<?xml version="1.0" encoding="UTF-8" standalone="no"?>
<svg
   xmlns:dc="http://purl.org/dc/elements/1.1/"
   xmlns:cc="http://creativecommons.org/ns#"
   xmlns:rdf="http://www.w3.org/1999/02/22-rdf-syntax-ns#"
   xmlns:svg="http://www.w3.org/2000/svg"
   xmlns="http://www.w3.org/2000/svg"
   xmlns:sodipodi="http://sodipodi.sourceforge.net/DTD/sodipodi-0.dtd"
   xmlns:inkscape="http://www.inkscape.org/namespaces/inkscape"
   version="1.1"
   width="76"
   height="76"
   viewBox="0 0 76.00 76.00"
   enable-background="new 0 0 76.00 76.00"
   xml:space="preserve"
   id="svg4"
   sodipodi:docname="appbar.clipboard.variant.text.svg"
   inkscape:version="0.92.3 (2405546, 2018-03-11)"><metadata
   id="metadata10"><rdf:RDF><cc:Work
       rdf:about=""><dc:format>image/svg+xml</dc:format><dc:type
         rdf:resource="http://purl.org/dc/dcmitype/StillImage" /></cc:Work></rdf:RDF></metadata><defs
   id="defs8" /><sodipodi:namedview
   pagecolor="#ffffff"
   bordercolor="#666666"
   borderopacity="1"
   objecttolerance="10"
   gridtolerance="10"
   guidetolerance="10"
   inkscape:pageopacity="0"
   inkscape:pageshadow="2"
   inkscape:window-width="1858"
   inkscape:window-height="1057"
   id="namedview6"
   showgrid="false"
   inkscape:zoom="3.1052632"
   inkscape:cx="38"
   inkscape:cy="38"
   inkscape:window-x="54"
   inkscape:window-y="49"
   inkscape:window-maximized="1"
   inkscape:current-layer="svg4" />
	<path
   fill="#000000"
   fill-opacity="1"
   stroke-width="0.2"
   stroke-linejoin="round"
   d="M 36.4167,15.8333C 38.6028,15.8333 41,17.8139 41,20L 41,21L 52,21L 52,33L 49,33L 49,24L 44,24L 46,28L 27,28L 29,24L 24,24L 24,54L 52,54L 52,57L 21,57L 21,21L 32,21L 32,20C 32,17.8139 34.2305,15.8333 36.4167,15.8333 Z M 36.4166,18.2084C 35.5422,18.2084 34.5,18.8755 34.5,19.75C 34.5,20.0384 34.8653,20.7671 35,21L 38,21C 38.1347,20.7671 38.5,20.0384 38.5,19.75C 38.5,18.8755 37.2911,18.2084 36.4166,18.2084 Z M 59,53L 37,53L 37,34L 54,34L 59,39L 59,53 Z M 39,36L 39,51L 57,51L 57,41L 52,41L 52,36L 39,36 Z M 54,37L 54,39L 56,39L 54,37 Z M 41,38L 50,38L 50,40L 41,40L 41,38 Z M 41,41L 50,41L 50,43L 41,43L 41,41 Z M 41,44L 56,44L 56,46L 41,46L 41,44 Z M 41,47L 56,47L 56,49L 41,49L 41,47 Z "
   id="path2"
   style="fill:#ffffff" />
</svg>