<?xml version="1.0" encoding="utf-8"?>
<!-- Generator: Adobe Illustrator 16.0.3, SVG Export Plug-In . SVG Version: 6.00 Build 0)  -->
<!DOCTYPE svg PUBLIC "-//W3C//DTD SVG 1.1//EN" "http://www.w3.org/Graphics/SVG/1.1/DTD/svg11.dtd">
<svg version="1.1" id="Ebene_1" xmlns="http://www.w3.org/2000/svg" xmlns:xlink="http://www.w3.org/1999/xlink" x="0px" y="0px"
	 width="872.957px" height="88.496px" viewBox="0 0 872.957 88.496" enable-background="new 0 0 872.957 88.496"
	 xml:space="preserve">
<g>
	<path fill="#2E8C36" d="M248.818,61.581c0.956,1.089,2.097,1.951,3.425,2.589c1.328,0.637,2.748,0.956,4.261,0.956
		c2.018,0,3.611-0.484,4.779-1.454c1.168-0.969,1.752-2.236,1.752-3.804c0-0.822-0.126-1.513-0.378-2.07
		c-0.253-0.558-0.591-1.042-1.016-1.454c-0.425-0.411-0.923-0.77-1.494-1.075c-0.571-0.305-1.175-0.604-1.812-0.896l-3.982-1.793
		c-0.584-0.238-1.188-0.53-1.812-0.876c-0.624-0.345-1.195-0.776-1.712-1.294c-0.518-0.518-0.95-1.129-1.294-1.832
		c-0.345-0.703-0.518-1.547-0.518-2.529c0-0.955,0.192-1.825,0.577-2.608c0.385-0.783,0.916-1.46,1.593-2.031
		c0.677-0.57,1.486-1.015,2.429-1.334c0.942-0.318,1.958-0.478,3.047-0.478c1.593,0,3.007,0.313,4.241,0.936
		c1.235,0.624,2.25,1.361,3.047,2.21l-1.036,1.234c-0.771-0.823-1.673-1.479-2.708-1.971c-1.036-0.491-2.217-0.737-3.544-0.737
		c-1.752,0-3.16,0.425-4.222,1.274c-1.062,0.85-1.593,1.991-1.593,3.424c0,0.771,0.146,1.422,0.438,1.952
		c0.292,0.531,0.663,0.989,1.115,1.374c0.451,0.385,0.942,0.717,1.474,0.996c0.531,0.278,1.036,0.523,1.514,0.736l3.982,1.752
		c0.743,0.319,1.447,0.678,2.111,1.075c0.663,0.398,1.248,0.863,1.752,1.395c0.504,0.531,0.909,1.161,1.214,1.892
		c0.305,0.73,0.458,1.6,0.458,2.608c0,1.01-0.199,1.945-0.597,2.808c-0.398,0.863-0.963,1.606-1.693,2.23
		c-0.73,0.624-1.613,1.115-2.648,1.474c-1.035,0.358-2.19,0.537-3.465,0.537c-1.912,0-3.611-0.365-5.098-1.095
		c-1.487-0.73-2.748-1.679-3.783-2.848L248.818,61.581z"/>
	<path fill="#2E8C36" d="M268.611,56.801c0-1.593,0.232-3.02,0.697-4.281c0.464-1.261,1.088-2.315,1.872-3.166
		c0.783-0.849,1.692-1.499,2.728-1.951c1.036-0.451,2.124-0.677,3.266-0.677s2.237,0.226,3.286,0.677
		c1.049,0.452,1.965,1.103,2.748,1.951c0.783,0.851,1.407,1.905,1.872,3.166c0.464,1.262,0.697,2.688,0.697,4.281
		s-0.233,3.007-0.697,4.241c-0.465,1.235-1.089,2.277-1.872,3.127c-0.783,0.85-1.699,1.5-2.748,1.951s-2.144,0.677-3.286,0.677
		s-2.23-0.226-3.266-0.677s-1.945-1.102-2.728-1.951c-0.783-0.85-1.408-1.892-1.872-3.127
		C268.844,59.808,268.611,58.394,268.611,56.801z M270.443,56.801c0,1.248,0.172,2.39,0.518,3.425
		c0.345,1.036,0.817,1.926,1.414,2.669s1.308,1.321,2.131,1.732c0.822,0.412,1.712,0.617,2.668,0.617
		c0.956,0,1.852-0.205,2.688-0.617c0.836-0.411,1.553-0.989,2.15-1.732c0.598-0.743,1.068-1.633,1.414-2.669
		c0.345-1.035,0.518-2.177,0.518-3.425c0-1.274-0.173-2.429-0.518-3.465c-0.346-1.035-0.816-1.932-1.414-2.688
		c-0.597-0.756-1.314-1.34-2.15-1.752c-0.836-0.411-1.732-0.617-2.688-0.617c-0.956,0-1.846,0.206-2.668,0.617
		c-0.823,0.412-1.534,0.996-2.131,1.752c-0.597,0.757-1.069,1.653-1.414,2.688C270.616,54.373,270.443,55.527,270.443,56.801z"/>
	<path fill="#2E8C36" d="M289.917,56.801c0-1.593,0.239-3.02,0.717-4.281c0.478-1.261,1.115-2.315,1.912-3.166
		c0.797-0.849,1.719-1.499,2.768-1.951c1.048-0.451,2.157-0.677,3.326-0.677c1.327,0,2.436,0.238,3.325,0.717
		c0.889,0.478,1.653,1.021,2.29,1.633l-1.036,1.234c-0.611-0.584-1.288-1.068-2.031-1.453c-0.744-0.385-1.58-0.578-2.509-0.578
		c-0.982,0-1.892,0.206-2.728,0.617c-0.836,0.412-1.567,0.996-2.19,1.752c-0.624,0.757-1.115,1.653-1.474,2.688
		c-0.358,1.036-0.538,2.19-0.538,3.465c0,1.248,0.166,2.39,0.498,3.425c0.332,1.036,0.796,1.926,1.394,2.669
		c0.598,0.743,1.328,1.321,2.19,1.732c0.863,0.412,1.812,0.617,2.848,0.617c1.009,0,1.945-0.212,2.808-0.638
		c0.863-0.424,1.626-0.941,2.29-1.553l0.916,1.194c-0.823,0.744-1.739,1.354-2.748,1.832c-1.009,0.479-2.125,0.717-3.345,0.717
		c-1.249,0-2.396-0.226-3.445-0.677c-1.049-0.451-1.965-1.102-2.748-1.951c-0.784-0.85-1.394-1.892-1.832-3.127
		C290.137,59.808,289.917,58.394,289.917,56.801z"/>
	<path fill="#2E8C36" d="M310.308,42.584c-0.452,0-0.83-0.146-1.135-0.438c-0.306-0.292-0.458-0.663-0.458-1.115
		c0-0.504,0.152-0.896,0.458-1.175c0.305-0.278,0.683-0.418,1.135-0.418c0.451,0,0.83,0.14,1.135,0.418
		c0.305,0.279,0.458,0.671,0.458,1.175c0,0.452-0.153,0.823-0.458,1.115C311.138,42.438,310.759,42.584,310.308,42.584z
		 M309.392,47.204h1.752V66.32h-1.752V47.204z"/>
	<path fill="#2E8C36" d="M317.437,61.541c0-2.097,0.996-3.703,2.987-4.818s5.111-1.912,9.359-2.39
		c0.026-0.717-0.02-1.44-0.139-2.171c-0.12-0.729-0.346-1.38-0.677-1.951c-0.333-0.57-0.796-1.035-1.394-1.395
		c-0.597-0.357-1.361-0.537-2.29-0.537c-1.301,0-2.482,0.252-3.544,0.757s-1.912,0.995-2.549,1.474l-0.796-1.314
		c0.345-0.238,0.763-0.504,1.254-0.797c0.491-0.291,1.036-0.557,1.633-0.797c0.598-0.238,1.255-0.443,1.972-0.617
		c0.717-0.172,1.46-0.258,2.23-0.258c1.142,0,2.097,0.192,2.868,0.577c0.77,0.386,1.394,0.909,1.872,1.573s0.816,1.44,1.016,2.33
		s0.299,1.852,0.299,2.887V66.32h-1.474l-0.199-2.469h-0.08c-0.982,0.77-2.038,1.453-3.166,2.051
		c-1.129,0.598-2.33,0.896-3.604,0.896c-0.77,0-1.487-0.106-2.15-0.318c-0.664-0.212-1.254-0.53-1.772-0.956
		c-0.518-0.424-0.923-0.969-1.214-1.633C317.582,63.227,317.437,62.444,317.437,61.541z M319.268,61.461
		c0,1.381,0.398,2.363,1.195,2.946c0.797,0.585,1.739,0.877,2.828,0.877c1.115,0,2.177-0.266,3.186-0.797
		c1.009-0.53,2.111-1.301,3.306-2.31v-6.492c-1.965,0.239-3.618,0.532-4.958,0.877s-2.423,0.756-3.246,1.234
		c-0.823,0.478-1.414,1.022-1.772,1.633C319.448,60.042,319.268,60.718,319.268,61.461z"/>
	<path fill="#2E8C36" d="M338.384,37.685h1.752V64.01c0,0.425,0.08,0.736,0.239,0.936s0.358,0.299,0.597,0.299
		c0.08,0,0.166,0,0.259,0c0.092,0,0.245-0.026,0.458-0.08l0.319,1.434c-0.186,0.054-0.372,0.1-0.558,0.14
		c-0.186,0.04-0.425,0.06-0.717,0.06c-1.567,0-2.35-1.009-2.35-3.026V37.685z"/>
	<path fill="#2E8C36" d="M355.111,61.581c0.956,1.089,2.097,1.951,3.425,2.589c1.328,0.637,2.748,0.956,4.261,0.956
		c2.018,0,3.611-0.484,4.779-1.454c1.168-0.969,1.752-2.236,1.752-3.804c0-0.822-0.126-1.513-0.378-2.07
		c-0.253-0.558-0.591-1.042-1.016-1.454c-0.425-0.411-0.923-0.77-1.494-1.075c-0.571-0.305-1.175-0.604-1.812-0.896l-3.982-1.793
		c-0.584-0.238-1.188-0.53-1.812-0.876c-0.624-0.345-1.195-0.776-1.712-1.294c-0.518-0.518-0.95-1.129-1.294-1.832
		c-0.345-0.703-0.518-1.547-0.518-2.529c0-0.955,0.192-1.825,0.577-2.608c0.385-0.783,0.916-1.46,1.593-2.031
		c0.677-0.57,1.486-1.015,2.429-1.334c0.942-0.318,1.958-0.478,3.047-0.478c1.593,0,3.007,0.313,4.241,0.936
		c1.235,0.624,2.25,1.361,3.047,2.21l-1.036,1.234c-0.771-0.823-1.673-1.479-2.708-1.971c-1.036-0.491-2.217-0.737-3.544-0.737
		c-1.752,0-3.16,0.425-4.222,1.274c-1.062,0.85-1.593,1.991-1.593,3.424c0,0.771,0.146,1.422,0.438,1.952
		c0.292,0.531,0.663,0.989,1.115,1.374c0.451,0.385,0.942,0.717,1.474,0.996c0.531,0.278,1.036,0.523,1.514,0.736l3.982,1.752
		c0.743,0.319,1.447,0.678,2.111,1.075c0.663,0.398,1.248,0.863,1.752,1.395c0.504,0.531,0.909,1.161,1.214,1.892
		c0.305,0.73,0.458,1.6,0.458,2.608c0,1.01-0.199,1.945-0.597,2.808c-0.398,0.863-0.963,1.606-1.693,2.23
		c-0.73,0.624-1.613,1.115-2.648,1.474c-1.035,0.358-2.19,0.537-3.465,0.537c-1.912,0-3.611-0.365-5.098-1.095
		c-1.487-0.73-2.748-1.679-3.783-2.848L355.111,61.581z"/>
	<path fill="#2E8C36" d="M374.904,56.801c0-1.593,0.239-3.02,0.717-4.281c0.478-1.261,1.115-2.315,1.912-3.166
		c0.797-0.849,1.719-1.499,2.768-1.951c1.048-0.451,2.157-0.677,3.326-0.677c1.327,0,2.436,0.238,3.325,0.717
		c0.889,0.478,1.653,1.021,2.29,1.633l-1.036,1.234c-0.611-0.584-1.288-1.068-2.031-1.453c-0.744-0.385-1.58-0.578-2.509-0.578
		c-0.982,0-1.892,0.206-2.728,0.617c-0.836,0.412-1.567,0.996-2.19,1.752c-0.624,0.757-1.115,1.653-1.474,2.688
		c-0.358,1.036-0.538,2.19-0.538,3.465c0,1.248,0.166,2.39,0.498,3.425c0.332,1.036,0.796,1.926,1.394,2.669
		c0.598,0.743,1.328,1.321,2.19,1.732c0.863,0.412,1.812,0.617,2.848,0.617c1.009,0,1.945-0.212,2.808-0.638
		c0.863-0.424,1.626-0.941,2.29-1.553l0.916,1.194c-0.823,0.744-1.739,1.354-2.748,1.832c-1.009,0.479-2.125,0.717-3.345,0.717
		c-1.249,0-2.396-0.226-3.445-0.677c-1.049-0.451-1.965-1.102-2.748-1.951c-0.784-0.85-1.394-1.892-1.832-3.127
		C375.123,59.808,374.904,58.394,374.904,56.801z"/>
	<path fill="#2E8C36" d="M395.294,42.584c-0.452,0-0.83-0.146-1.135-0.438c-0.306-0.292-0.458-0.663-0.458-1.115
		c0-0.504,0.152-0.896,0.458-1.175c0.305-0.278,0.683-0.418,1.135-0.418c0.451,0,0.83,0.14,1.135,0.418
		c0.305,0.279,0.458,0.671,0.458,1.175c0,0.452-0.153,0.823-0.458,1.115C396.124,42.438,395.745,42.584,395.294,42.584z
		 M394.378,47.204h1.752V66.32h-1.752V47.204z"/>
	<path fill="#2E8C36" d="M401.904,56.801c0-1.566,0.232-2.973,0.697-4.222c0.464-1.247,1.088-2.303,1.872-3.166
		c0.783-0.862,1.673-1.526,2.668-1.991c0.996-0.464,2.024-0.696,3.086-0.696c2.283,0,4.075,0.77,5.376,2.31
		c1.3,1.54,1.951,3.718,1.951,6.531c0,0.239,0,0.478,0,0.717s-0.026,0.478-0.08,0.717h-13.779c0.026,1.195,0.212,2.304,0.557,3.325
		c0.345,1.022,0.83,1.899,1.454,2.629c0.623,0.73,1.374,1.301,2.25,1.713c0.876,0.411,1.858,0.617,2.947,0.617
		c1.036,0,1.972-0.152,2.808-0.458c0.836-0.306,1.613-0.724,2.33-1.255l0.717,1.354c-0.771,0.451-1.613,0.876-2.529,1.274
		c-0.916,0.397-2.078,0.597-3.485,0.597c-1.221,0-2.37-0.226-3.445-0.677s-2.011-1.108-2.808-1.972
		c-0.796-0.862-1.428-1.911-1.892-3.146C402.137,59.768,401.904,58.369,401.904,56.801z M415.883,55.647
		c0-2.47-0.505-4.321-1.514-5.556c-1.009-1.234-2.376-1.853-4.102-1.853c-0.823,0-1.606,0.173-2.35,0.519
		c-0.744,0.345-1.414,0.836-2.011,1.473c-0.597,0.638-1.089,1.414-1.473,2.33c-0.385,0.916-0.631,1.945-0.737,3.087H415.883z"/>
	<path fill="#2E8C36" d="M422.733,47.204h1.513l0.159,2.946h0.12c0.982-0.981,1.991-1.798,3.027-2.449
		c1.036-0.649,2.216-0.975,3.544-0.975c1.991,0,3.451,0.598,4.381,1.791c0.929,1.195,1.394,3.041,1.394,5.536V66.32h-1.752V54.292
		c0-2.044-0.338-3.551-1.016-4.52c-0.677-0.97-1.799-1.454-3.365-1.454c-1.142,0-2.177,0.298-3.106,0.896
		c-0.93,0.598-1.978,1.494-3.146,2.688V66.32h-1.752V47.204z"/>
	<path fill="#2E8C36" d="M442.327,56.801c0-1.593,0.239-3.02,0.717-4.281c0.478-1.261,1.115-2.315,1.912-3.166
		c0.797-0.849,1.719-1.499,2.768-1.951c1.049-0.451,2.156-0.677,3.326-0.677c1.326,0,2.436,0.238,3.324,0.717
		c0.89,0.478,1.653,1.021,2.291,1.633l-1.036,1.234c-0.61-0.584-1.288-1.068-2.03-1.453c-0.744-0.385-1.58-0.578-2.51-0.578
		c-0.982,0-1.892,0.206-2.729,0.617c-0.836,0.412-1.566,0.996-2.19,1.752c-0.624,0.757-1.115,1.653-1.474,2.688
		c-0.358,1.036-0.538,2.19-0.538,3.465c0,1.248,0.166,2.39,0.498,3.425c0.332,1.036,0.796,1.926,1.394,2.669
		c0.598,0.743,1.327,1.321,2.19,1.732c0.863,0.412,1.813,0.617,2.848,0.617c1.009,0,1.945-0.212,2.808-0.638
		c0.862-0.424,1.626-0.941,2.29-1.553l0.916,1.194c-0.823,0.744-1.739,1.354-2.748,1.832c-1.01,0.479-2.125,0.717-3.346,0.717
		c-1.248,0-2.396-0.226-3.444-0.677c-1.05-0.451-1.965-1.102-2.748-1.951c-0.784-0.85-1.394-1.892-1.832-3.127
		C442.546,59.808,442.327,58.394,442.327,56.801z"/>
	<path fill="#2E8C36" d="M459.532,56.801c0-1.566,0.232-2.973,0.697-4.222c0.463-1.247,1.088-2.303,1.871-3.166
		c0.783-0.862,1.673-1.526,2.668-1.991c0.996-0.464,2.024-0.696,3.087-0.696c2.283,0,4.075,0.77,5.376,2.31s1.951,3.718,1.951,6.531
		c0,0.239,0,0.478,0,0.717s-0.025,0.478-0.079,0.717h-13.779c0.026,1.195,0.212,2.304,0.558,3.325
		c0.345,1.022,0.829,1.899,1.453,2.629c0.623,0.73,1.374,1.301,2.25,1.713c0.877,0.411,1.858,0.617,2.947,0.617
		c1.035,0,1.972-0.152,2.809-0.458c0.836-0.306,1.612-0.724,2.329-1.255l0.717,1.354c-0.771,0.451-1.612,0.876-2.528,1.274
		c-0.916,0.397-2.078,0.597-3.485,0.597c-1.222,0-2.37-0.226-3.444-0.677c-1.076-0.451-2.012-1.108-2.809-1.972
		c-0.796-0.862-1.428-1.911-1.891-3.146C459.764,59.768,459.532,58.369,459.532,56.801z M473.51,55.647
		c0-2.47-0.505-4.321-1.514-5.556c-1.01-1.234-2.377-1.853-4.102-1.853c-0.824,0-1.607,0.173-2.35,0.519
		c-0.744,0.345-1.414,0.836-2.012,1.473c-0.598,0.638-1.089,1.414-1.473,2.33c-0.386,0.916-0.632,1.945-0.737,3.087H473.51z"/>
	<path fill="#2E8C36" d="M497.604,66.797c-1.567,0-3.014-0.325-4.341-0.976c-1.328-0.65-2.47-1.573-3.426-2.768
		c-0.955-1.195-1.699-2.635-2.229-4.321c-0.532-1.686-0.797-3.564-0.797-5.635c0-2.071,0.265-3.937,0.797-5.596
		c0.53-1.659,1.274-3.08,2.229-4.262c0.956-1.181,2.098-2.084,3.426-2.708c1.327-0.624,2.773-0.936,4.341-0.936
		c1.593,0,3.053,0.313,4.381,0.936c1.327,0.624,2.469,1.527,3.425,2.708c0.956,1.182,1.698,2.603,2.23,4.262
		c0.53,1.659,0.796,3.524,0.796,5.596c0,2.07-0.266,3.949-0.796,5.635c-0.532,1.687-1.274,3.126-2.23,4.321
		c-0.956,1.194-2.098,2.117-3.425,2.768C500.657,66.472,499.197,66.797,497.604,66.797z M497.604,65.125
		c1.327,0,2.535-0.285,3.624-0.856c1.088-0.571,2.024-1.381,2.808-2.43s1.387-2.31,1.812-3.783s0.638-3.126,0.638-4.958
		c0-1.806-0.213-3.438-0.638-4.899c-0.425-1.459-1.028-2.701-1.812-3.723c-0.783-1.022-1.72-1.813-2.808-2.37
		c-1.089-0.558-2.297-0.836-3.624-0.836c-1.328,0-2.543,0.279-3.645,0.836s-2.038,1.348-2.808,2.37
		c-0.771,1.021-1.367,2.264-1.792,3.723c-0.425,1.461-0.638,3.094-0.638,4.899c0,1.832,0.213,3.484,0.638,4.958
		s1.021,2.734,1.792,3.783c0.77,1.049,1.706,1.858,2.808,2.43S496.276,65.125,497.604,65.125z"/>
	<path fill="#2E8C36" d="M516.002,67.993v6.97h-1.752V47.204h1.514l0.159,2.39h0.119c0.929-0.743,1.944-1.407,3.047-1.992
		c1.102-0.583,2.25-0.875,3.444-0.875c2.549,0,4.461,0.883,5.735,2.648s1.911,4.135,1.911,7.108c0,1.62-0.226,3.066-0.677,4.341
		s-1.069,2.356-1.852,3.246c-0.783,0.89-1.687,1.566-2.708,2.031c-1.022,0.464-2.091,0.696-3.206,0.696
		c-0.903,0-1.832-0.206-2.788-0.617s-1.938-0.988-2.947-1.732V67.993z M516.002,62.775c1.115,0.903,2.15,1.541,3.106,1.912
		c0.956,0.372,1.806,0.558,2.549,0.558c0.956,0,1.846-0.212,2.669-0.638c0.822-0.424,1.526-1.021,2.11-1.792
		c0.584-0.77,1.042-1.692,1.374-2.768s0.498-2.264,0.498-3.564c0-1.168-0.113-2.257-0.339-3.266s-0.577-1.878-1.056-2.608
		c-0.478-0.73-1.102-1.301-1.871-1.713c-0.771-0.411-1.7-0.617-2.788-0.617c-0.956,0-1.945,0.272-2.967,0.816
		c-1.022,0.545-2.118,1.321-3.286,2.33V62.775z"/>
	<path fill="#2E8C36" d="M534.323,56.801c0-1.566,0.231-2.973,0.696-4.222c0.465-1.247,1.089-2.303,1.872-3.166
		c0.783-0.862,1.673-1.526,2.668-1.991c0.996-0.464,2.024-0.696,3.087-0.696c2.283,0,4.075,0.77,5.376,2.31s1.952,3.718,1.952,6.531
		c0,0.239,0,0.478,0,0.717s-0.027,0.478-0.08,0.717h-13.779c0.026,1.195,0.212,2.304,0.558,3.325
		c0.345,1.022,0.829,1.899,1.453,2.629c0.624,0.73,1.374,1.301,2.25,1.713c0.877,0.411,1.858,0.617,2.947,0.617
		c1.036,0,1.972-0.152,2.808-0.458c0.837-0.306,1.613-0.724,2.33-1.255l0.717,1.354c-0.771,0.451-1.613,0.876-2.529,1.274
		c-0.915,0.397-2.077,0.597-3.484,0.597c-1.222,0-2.369-0.226-3.444-0.677c-1.076-0.451-2.012-1.108-2.809-1.972
		c-0.796-0.862-1.427-1.911-1.892-3.146C534.554,59.768,534.323,58.369,534.323,56.801z M548.301,55.647
		c0-2.47-0.505-4.321-1.514-5.556s-2.376-1.853-4.102-1.853c-0.823,0-1.607,0.173-2.35,0.519c-0.744,0.345-1.414,0.836-2.012,1.473
		c-0.598,0.638-1.089,1.414-1.474,2.33s-0.631,1.945-0.736,3.087H548.301z"/>
	<path fill="#2E8C36" d="M555.151,47.204h1.514l0.159,2.946h0.119c0.982-0.981,1.991-1.798,3.026-2.449
		c1.036-0.649,2.217-0.975,3.545-0.975c1.991,0,3.451,0.598,4.381,1.791c0.929,1.195,1.394,3.041,1.394,5.536V66.32h-1.752V54.292
		c0-2.044-0.339-3.551-1.016-4.52c-0.677-0.97-1.799-1.454-3.365-1.454c-1.142,0-2.178,0.298-3.106,0.896
		c-0.93,0.598-1.979,1.494-3.146,2.688V66.32h-1.752V47.204z"/>
	<path fill="#2E8C36" d="M596.25,57.319h-10.395l-3.106,9.001h-1.832l9.24-26.245h1.831l9.24,26.245h-1.912L596.25,57.319z
		 M595.732,55.766l-1.673-4.898c-0.531-1.566-1.035-3.067-1.514-4.501c-0.478-1.434-0.942-2.959-1.394-4.58h-0.159
		c-0.452,1.62-0.916,3.146-1.394,4.58c-0.479,1.434-0.983,2.935-1.514,4.501l-1.673,4.898H595.732z"/>
	<path fill="#2E8C36" d="M603.618,56.801c0-1.593,0.238-3.02,0.717-4.281c0.478-1.261,1.115-2.315,1.911-3.166
		c0.797-0.849,1.719-1.499,2.769-1.951c1.048-0.451,2.156-0.677,3.325-0.677c1.327,0,2.436,0.238,3.325,0.717
		c0.89,0.478,1.652,1.021,2.29,1.633l-1.035,1.234c-0.611-0.584-1.288-1.068-2.031-1.453c-0.744-0.385-1.58-0.578-2.509-0.578
		c-0.983,0-1.893,0.206-2.729,0.617c-0.836,0.412-1.566,0.996-2.19,1.752c-0.624,0.757-1.115,1.653-1.474,2.688
		c-0.358,1.036-0.537,2.19-0.537,3.465c0,1.248,0.165,2.39,0.497,3.425c0.332,1.036,0.797,1.926,1.395,2.669
		c0.597,0.743,1.327,1.321,2.19,1.732c0.862,0.412,1.812,0.617,2.848,0.617c1.008,0,1.944-0.212,2.808-0.638
		c0.862-0.424,1.626-0.941,2.29-1.553l0.916,1.194c-0.823,0.744-1.739,1.354-2.748,1.832c-1.01,0.479-2.125,0.717-3.346,0.717
		c-1.248,0-2.396-0.226-3.445-0.677s-1.965-1.102-2.748-1.951s-1.394-1.892-1.831-3.127
		C603.836,59.808,603.618,58.394,603.618,56.801z"/>
	<path fill="#2E8C36" d="M620.822,56.801c0-1.593,0.238-3.02,0.717-4.281c0.478-1.261,1.115-2.315,1.911-3.166
		c0.797-0.849,1.719-1.499,2.769-1.951c1.048-0.451,2.156-0.677,3.325-0.677c1.327,0,2.436,0.238,3.325,0.717
		c0.89,0.478,1.652,1.021,2.29,1.633l-1.035,1.234c-0.611-0.584-1.288-1.068-2.031-1.453c-0.744-0.385-1.58-0.578-2.509-0.578
		c-0.983,0-1.893,0.206-2.729,0.617c-0.836,0.412-1.566,0.996-2.19,1.752c-0.624,0.757-1.115,1.653-1.474,2.688
		c-0.358,1.036-0.537,2.19-0.537,3.465c0,1.248,0.165,2.39,0.497,3.425c0.332,1.036,0.797,1.926,1.395,2.669
		c0.597,0.743,1.327,1.321,2.19,1.732c0.862,0.412,1.812,0.617,2.848,0.617c1.008,0,1.944-0.212,2.808-0.638
		c0.862-0.424,1.626-0.941,2.29-1.553l0.916,1.194c-0.823,0.744-1.739,1.354-2.748,1.832c-1.01,0.479-2.125,0.717-3.346,0.717
		c-1.248,0-2.396-0.226-3.445-0.677s-1.965-1.102-2.748-1.951s-1.394-1.892-1.831-3.127
		C621.041,59.808,620.822,58.394,620.822,56.801z"/>
	<path fill="#2E8C36" d="M638.026,56.801c0-1.566,0.231-2.973,0.696-4.222c0.465-1.247,1.089-2.303,1.872-3.166
		c0.783-0.862,1.673-1.526,2.668-1.991c0.996-0.464,2.024-0.696,3.087-0.696c2.283,0,4.075,0.77,5.376,2.31s1.952,3.718,1.952,6.531
		c0,0.239,0,0.478,0,0.717s-0.027,0.478-0.08,0.717h-13.779c0.026,1.195,0.212,2.304,0.558,3.325
		c0.345,1.022,0.829,1.899,1.453,2.629c0.624,0.73,1.374,1.301,2.25,1.713c0.877,0.411,1.858,0.617,2.947,0.617
		c1.036,0,1.972-0.152,2.808-0.458c0.837-0.306,1.613-0.724,2.33-1.255l0.717,1.354c-0.771,0.451-1.613,0.876-2.529,1.274
		c-0.915,0.397-2.077,0.597-3.484,0.597c-1.222,0-2.369-0.226-3.444-0.677c-1.076-0.451-2.012-1.108-2.809-1.972
		c-0.796-0.862-1.427-1.911-1.892-3.146C638.257,59.768,638.026,58.369,638.026,56.801z M652.004,55.647
		c0-2.47-0.505-4.321-1.514-5.556s-2.376-1.853-4.102-1.853c-0.823,0-1.607,0.173-2.35,0.519c-0.744,0.345-1.414,0.836-2.012,1.473
		c-0.598,0.638-1.089,1.414-1.474,2.33s-0.631,1.945-0.736,3.087H652.004z"/>
	<path fill="#2E8C36" d="M657.5,62.855c0.823,0.69,1.699,1.269,2.629,1.732c0.929,0.465,2.084,0.697,3.465,0.697
		c1.514,0,2.648-0.379,3.405-1.136c0.757-0.756,1.135-1.639,1.135-2.648c0-0.583-0.14-1.101-0.418-1.553
		c-0.279-0.451-0.645-0.836-1.096-1.155c-0.451-0.318-0.949-0.597-1.493-0.836c-0.545-0.239-1.096-0.464-1.652-0.677
		c-0.718-0.266-1.441-0.544-2.171-0.837c-0.73-0.292-1.388-0.644-1.972-1.055c-0.584-0.412-1.055-0.902-1.413-1.474
		c-0.359-0.571-0.538-1.268-0.538-2.091c0-0.69,0.133-1.348,0.398-1.972c0.265-0.624,0.663-1.168,1.194-1.633
		c0.531-0.464,1.175-0.829,1.932-1.095s1.64-0.398,2.648-0.398s1.998,0.186,2.967,0.557c0.969,0.373,1.799,0.851,2.489,1.434
		l-0.956,1.235c-0.637-0.478-1.313-0.882-2.03-1.215c-0.718-0.331-1.567-0.498-2.549-0.498c-0.744,0-1.381,0.1-1.912,0.299
		s-0.976,0.458-1.334,0.776s-0.624,0.691-0.797,1.115c-0.173,0.426-0.259,0.85-0.259,1.274c0,0.558,0.126,1.029,0.379,1.414
		c0.252,0.385,0.59,0.724,1.015,1.016s0.909,0.551,1.454,0.776c0.544,0.226,1.096,0.445,1.652,0.657
		c0.743,0.293,1.487,0.584,2.23,0.876c0.743,0.293,1.414,0.651,2.012,1.075c0.597,0.426,1.081,0.95,1.453,1.573
		c0.372,0.624,0.558,1.401,0.558,2.33c0,0.717-0.14,1.4-0.418,2.051c-0.279,0.651-0.697,1.222-1.255,1.713s-1.234,0.883-2.031,1.175
		c-0.796,0.292-1.712,0.438-2.747,0.438c-1.435,0-2.748-0.259-3.943-0.776c-1.194-0.518-2.217-1.135-3.066-1.852L657.5,62.855z"/>
	<path fill="#2E8C36" d="M673.628,62.855c0.823,0.69,1.699,1.269,2.629,1.732c0.929,0.465,2.084,0.697,3.465,0.697
		c1.514,0,2.648-0.379,3.405-1.136c0.757-0.756,1.135-1.639,1.135-2.648c0-0.583-0.14-1.101-0.418-1.553
		c-0.279-0.451-0.645-0.836-1.096-1.155c-0.451-0.318-0.949-0.597-1.493-0.836c-0.545-0.239-1.096-0.464-1.652-0.677
		c-0.718-0.266-1.441-0.544-2.171-0.837c-0.73-0.292-1.388-0.644-1.972-1.055c-0.584-0.412-1.055-0.902-1.413-1.474
		c-0.359-0.571-0.538-1.268-0.538-2.091c0-0.69,0.133-1.348,0.398-1.972c0.265-0.624,0.663-1.168,1.194-1.633
		c0.531-0.464,1.175-0.829,1.932-1.095s1.64-0.398,2.648-0.398s1.998,0.186,2.967,0.557c0.969,0.373,1.799,0.851,2.489,1.434
		l-0.956,1.235c-0.637-0.478-1.313-0.882-2.03-1.215c-0.718-0.331-1.567-0.498-2.549-0.498c-0.744,0-1.381,0.1-1.912,0.299
		s-0.976,0.458-1.334,0.776s-0.624,0.691-0.797,1.115c-0.173,0.426-0.259,0.85-0.259,1.274c0,0.558,0.126,1.029,0.379,1.414
		c0.252,0.385,0.59,0.724,1.015,1.016s0.909,0.551,1.454,0.776c0.544,0.226,1.096,0.445,1.652,0.657
		c0.743,0.293,1.487,0.584,2.23,0.876c0.743,0.293,1.414,0.651,2.012,1.075c0.597,0.426,1.081,0.95,1.453,1.573
		c0.372,0.624,0.558,1.401,0.558,2.33c0,0.717-0.14,1.4-0.418,2.051c-0.279,0.651-0.697,1.222-1.255,1.713s-1.234,0.883-2.031,1.175
		c-0.796,0.292-1.712,0.438-2.747,0.438c-1.435,0-2.748-0.259-3.943-0.776c-1.194-0.518-2.217-1.135-3.066-1.852L673.628,62.855z"/>
	<path fill="#2E8C36" d="M713.773,66.32l-7.129-12.067h-5.575V66.32h-1.832V40.075h7.526c1.301,0,2.482,0.126,3.545,0.378
		c1.062,0.252,1.965,0.657,2.708,1.215c0.743,0.557,1.32,1.274,1.732,2.15c0.411,0.876,0.617,1.939,0.617,3.186
		c0,2.098-0.604,3.743-1.812,4.938c-1.209,1.194-2.848,1.925-4.919,2.19l7.248,12.187H713.773z M706.286,52.74
		c2.336,0,4.122-0.472,5.356-1.414s1.853-2.383,1.853-4.321c0-1.964-0.625-3.352-1.872-4.162c-1.248-0.81-3.027-1.215-5.337-1.215
		h-5.217V52.74H706.286z"/>
	<path fill="#2E8C36" d="M719.349,56.801c0-1.566,0.231-2.973,0.696-4.222c0.465-1.247,1.089-2.303,1.872-3.166
		c0.783-0.862,1.673-1.526,2.668-1.991c0.996-0.464,2.024-0.696,3.087-0.696c2.283,0,4.075,0.77,5.376,2.31S735,52.753,735,55.567
		c0,0.239,0,0.478,0,0.717s-0.027,0.478-0.08,0.717h-13.779c0.026,1.195,0.212,2.304,0.558,3.325
		c0.345,1.022,0.829,1.899,1.453,2.629c0.624,0.73,1.374,1.301,2.25,1.713c0.877,0.411,1.858,0.617,2.947,0.617
		c1.036,0,1.972-0.152,2.808-0.458c0.837-0.306,1.613-0.724,2.33-1.255l0.717,1.354c-0.771,0.451-1.613,0.876-2.529,1.274
		c-0.915,0.397-2.077,0.597-3.484,0.597c-1.222,0-2.369-0.226-3.444-0.677c-1.076-0.451-2.012-1.108-2.809-1.972
		c-0.796-0.862-1.427-1.911-1.892-3.146C719.581,59.768,719.349,58.369,719.349,56.801z M733.328,55.647
		c0-2.47-0.505-4.321-1.514-5.556s-2.376-1.853-4.102-1.853c-0.823,0-1.607,0.173-2.35,0.519c-0.744,0.345-1.414,0.836-2.012,1.473
		c-0.598,0.638-1.089,1.414-1.474,2.33s-0.631,1.945-0.736,3.087H733.328z"/>
	<path fill="#2E8C36" d="M741.929,67.993v6.97h-1.752V47.204h1.514l0.159,2.39h0.119c0.929-0.743,1.944-1.407,3.047-1.992
		c1.102-0.583,2.25-0.875,3.444-0.875c2.549,0,4.461,0.883,5.735,2.648s1.911,4.135,1.911,7.108c0,1.62-0.226,3.066-0.677,4.341
		s-1.069,2.356-1.852,3.246c-0.783,0.89-1.687,1.566-2.708,2.031c-1.022,0.464-2.091,0.696-3.206,0.696
		c-0.903,0-1.832-0.206-2.788-0.617s-1.938-0.988-2.947-1.732V67.993z M741.929,62.775c1.115,0.903,2.15,1.541,3.106,1.912
		c0.956,0.372,1.806,0.558,2.549,0.558c0.956,0,1.846-0.212,2.669-0.638c0.822-0.424,1.526-1.021,2.11-1.792
		c0.584-0.77,1.042-1.692,1.374-2.768s0.498-2.264,0.498-3.564c0-1.168-0.113-2.257-0.339-3.266s-0.577-1.878-1.056-2.608
		c-0.478-0.73-1.102-1.301-1.871-1.713c-0.771-0.411-1.7-0.617-2.788-0.617c-0.956,0-1.945,0.272-2.967,0.816
		c-1.022,0.545-2.118,1.321-3.286,2.33V62.775z"/>
	<path fill="#2E8C36" d="M760.25,56.801c0-1.593,0.231-3.02,0.696-4.281c0.465-1.261,1.089-2.315,1.872-3.166
		c0.783-0.849,1.692-1.499,2.729-1.951c1.035-0.451,2.123-0.677,3.266-0.677c1.141,0,2.236,0.226,3.285,0.677
		c1.049,0.452,1.965,1.103,2.748,1.951c0.783,0.851,1.407,1.905,1.872,3.166c0.464,1.262,0.696,2.688,0.696,4.281
		s-0.232,3.007-0.696,4.241c-0.465,1.235-1.089,2.277-1.872,3.127s-1.699,1.5-2.748,1.951s-2.145,0.677-3.285,0.677
		c-1.143,0-2.23-0.226-3.266-0.677c-1.036-0.451-1.945-1.102-2.729-1.951s-1.407-1.892-1.872-3.127
		C760.481,59.808,760.25,58.394,760.25,56.801z M762.082,56.801c0,1.248,0.172,2.39,0.518,3.425
		c0.345,1.036,0.816,1.926,1.413,2.669c0.598,0.743,1.308,1.321,2.131,1.732c0.823,0.412,1.713,0.617,2.669,0.617
		c0.955,0,1.852-0.205,2.688-0.617c0.837-0.411,1.554-0.989,2.151-1.732c0.597-0.743,1.068-1.633,1.413-2.669
		c0.345-1.035,0.518-2.177,0.518-3.425c0-1.274-0.173-2.429-0.518-3.465c-0.345-1.035-0.816-1.932-1.413-2.688
		c-0.598-0.756-1.314-1.34-2.151-1.752c-0.836-0.411-1.732-0.617-2.688-0.617c-0.956,0-1.846,0.206-2.669,0.617
		c-0.823,0.412-1.533,0.996-2.131,1.752c-0.597,0.757-1.068,1.653-1.413,2.688C762.253,54.373,762.082,55.527,762.082,56.801z"/>
	<path fill="#2E8C36" d="M781.793,62.855c0.823,0.69,1.699,1.269,2.629,1.732c0.929,0.465,2.084,0.697,3.465,0.697
		c1.514,0,2.648-0.379,3.405-1.136c0.757-0.756,1.135-1.639,1.135-2.648c0-0.583-0.14-1.101-0.418-1.553
		c-0.279-0.451-0.645-0.836-1.096-1.155c-0.451-0.318-0.949-0.597-1.493-0.836c-0.545-0.239-1.096-0.464-1.652-0.677
		c-0.718-0.266-1.441-0.544-2.171-0.837c-0.73-0.292-1.388-0.644-1.972-1.055c-0.584-0.412-1.055-0.902-1.413-1.474
		c-0.359-0.571-0.538-1.268-0.538-2.091c0-0.69,0.133-1.348,0.398-1.972c0.265-0.624,0.663-1.168,1.194-1.633
		c0.531-0.464,1.175-0.829,1.932-1.095s1.64-0.398,2.648-0.398s1.998,0.186,2.967,0.557c0.969,0.373,1.799,0.851,2.489,1.434
		l-0.956,1.235c-0.637-0.478-1.313-0.882-2.03-1.215c-0.718-0.331-1.567-0.498-2.549-0.498c-0.744,0-1.381,0.1-1.912,0.299
		s-0.976,0.458-1.334,0.776s-0.624,0.691-0.797,1.115c-0.173,0.426-0.259,0.85-0.259,1.274c0,0.558,0.126,1.029,0.379,1.414
		c0.252,0.385,0.59,0.724,1.015,1.016s0.909,0.551,1.454,0.776c0.544,0.226,1.096,0.445,1.652,0.657
		c0.743,0.293,1.487,0.584,2.23,0.876c0.743,0.293,1.414,0.651,2.012,1.075c0.597,0.426,1.081,0.95,1.453,1.573
		c0.372,0.624,0.558,1.401,0.558,2.33c0,0.717-0.14,1.4-0.418,2.051c-0.279,0.651-0.697,1.222-1.255,1.713s-1.234,0.883-2.031,1.175
		c-0.796,0.292-1.712,0.438-2.747,0.438c-1.435,0-2.748-0.259-3.943-0.776c-1.194-0.518-2.217-1.135-3.066-1.852L781.793,62.855z"/>
	<path fill="#2E8C36" d="M800.194,42.584c-0.452,0-0.83-0.146-1.135-0.438c-0.306-0.292-0.458-0.663-0.458-1.115
		c0-0.504,0.152-0.896,0.458-1.175c0.305-0.278,0.683-0.418,1.135-0.418c0.451,0,0.829,0.14,1.135,0.418
		c0.305,0.279,0.458,0.671,0.458,1.175c0,0.452-0.153,0.823-0.458,1.115C801.023,42.438,800.645,42.584,800.194,42.584z
		 M799.278,47.204h1.752V66.32h-1.752V47.204z"/>
	<path fill="#2E8C36" d="M808.834,48.716h-2.986v-1.354l3.026-0.159l0.239-5.536h1.514v5.536h5.535v1.513h-5.535v12.466
		c0,0.611,0.046,1.162,0.139,1.653s0.259,0.916,0.498,1.274s0.563,0.637,0.976,0.836c0.411,0.199,0.949,0.299,1.613,0.299
		c0.371,0,0.776-0.06,1.215-0.18c0.438-0.119,0.829-0.259,1.175-0.418l0.478,1.434c-0.558,0.213-1.115,0.385-1.673,0.518
		s-1.035,0.199-1.434,0.199c-0.93,0-1.699-0.139-2.31-0.418c-0.611-0.278-1.103-0.67-1.474-1.175
		c-0.372-0.504-0.631-1.115-0.776-1.832c-0.146-0.717-0.22-1.5-0.22-2.35V48.716z"/>
	<path fill="#2E8C36" d="M818.832,56.801c0-1.593,0.231-3.02,0.696-4.281c0.465-1.261,1.089-2.315,1.872-3.166
		c0.783-0.849,1.692-1.499,2.729-1.951c1.035-0.451,2.123-0.677,3.266-0.677c1.141,0,2.236,0.226,3.285,0.677
		c1.049,0.452,1.965,1.103,2.748,1.951c0.783,0.851,1.407,1.905,1.872,3.166c0.464,1.262,0.696,2.688,0.696,4.281
		s-0.232,3.007-0.696,4.241c-0.465,1.235-1.089,2.277-1.872,3.127s-1.699,1.5-2.748,1.951s-2.145,0.677-3.285,0.677
		c-1.143,0-2.23-0.226-3.266-0.677c-1.036-0.451-1.945-1.102-2.729-1.951s-1.407-1.892-1.872-3.127
		C819.063,59.808,818.832,58.394,818.832,56.801z M820.664,56.801c0,1.248,0.172,2.39,0.518,3.425
		c0.345,1.036,0.816,1.926,1.413,2.669c0.598,0.743,1.308,1.321,2.131,1.732c0.823,0.412,1.713,0.617,2.669,0.617
		c0.955,0,1.852-0.205,2.688-0.617c0.837-0.411,1.554-0.989,2.151-1.732c0.597-0.743,1.068-1.633,1.413-2.669
		c0.345-1.035,0.518-2.177,0.518-3.425c0-1.274-0.173-2.429-0.518-3.465c-0.345-1.035-0.816-1.932-1.413-2.688
		c-0.598-0.756-1.314-1.34-2.151-1.752c-0.836-0.411-1.732-0.617-2.688-0.617c-0.956,0-1.846,0.206-2.669,0.617
		c-0.823,0.412-1.533,0.996-2.131,1.752c-0.597,0.757-1.068,1.653-1.413,2.688C820.835,54.373,820.664,55.527,820.664,56.801z"/>
	<path fill="#2E8C36" d="M841.731,47.204h1.514l0.159,3.544h0.119c0.638-1.194,1.414-2.163,2.33-2.906
		c0.916-0.744,1.944-1.115,3.086-1.115c0.372,0,0.703,0.026,0.996,0.079c0.292,0.054,0.598,0.159,0.916,0.319l-0.398,1.592
		c-0.318-0.132-0.598-0.219-0.836-0.258c-0.239-0.04-0.545-0.061-0.916-0.061c-0.851,0-1.746,0.365-2.688,1.096
		s-1.786,1.998-2.529,3.803V66.32h-1.752V47.204z"/>
	<path fill="#2E8C36" d="M853.837,73.309c0.265,0.066,0.544,0.1,0.836,0.1c1.194,0,2.19-0.478,2.987-1.434
		c0.796-0.956,1.434-2.164,1.911-3.624l0.518-1.673l-7.846-19.475h1.912l4.62,12.027c0.291,0.797,0.617,1.673,0.976,2.628
		c0.358,0.956,0.723,1.859,1.095,2.709h0.159c0.292-0.85,0.591-1.753,0.896-2.709c0.305-0.955,0.591-1.831,0.856-2.628l4.102-12.027
		h1.792l-7.566,21.506c-0.266,0.797-0.591,1.573-0.976,2.33c-0.386,0.756-0.837,1.434-1.354,2.03
		c-0.518,0.598-1.115,1.076-1.792,1.435s-1.44,0.537-2.29,0.537c-0.717,0-1.368-0.133-1.951-0.398l0.398-1.553
		C853.333,73.169,853.572,73.243,853.837,73.309z"/>
</g>
<g>
	<g>
		<path fill="#ADCE6E" d="M163.521,72.078c1.779,0,3.18,0.558,4.208,1.664c1.028,1.107,1.542,2.41,1.542,3.909
			s-0.513,2.803-1.542,3.908c-1.029,1.109-2.43,1.664-4.208,1.664H9.485c-1.779,0-3.181-0.555-4.208-1.664
			c-1.029-1.105-1.544-2.409-1.544-3.908s0.515-2.802,1.544-3.909c1.027-1.106,2.428-1.664,4.208-1.664H163.521z"/>
	</g>
	<g>
		<path fill="#2D8D36" d="M11.576,34.231c-2.919-2.039-4.902-4.242-5.949-6.613c-1.046-2.368-1.569-5.069-1.569-8.101
			c0-2.642,0.467-4.928,1.406-6.858c0.938-1.93,2.208-3.542,3.806-4.839c1.603-1.291,3.463-2.257,5.586-2.892
			c2.123-0.634,4.372-0.949,6.741-0.949c3.087,0,5.677,0.498,7.772,1.489c2.095,0.996,3.791,2.237,5.085,3.723
			c1.298,1.492,2.22,3.106,2.771,4.843c0.551,1.739,0.827,3.376,0.827,4.92c0,1.877-0.508,3.282-1.529,4.217
			c-1.02,0.938-2.33,1.407-3.928,1.407c-1.102,0-2-0.124-2.688-0.372c-0.688-0.248-1.227-0.634-1.612-1.159
			c-0.386-0.523-0.675-1.184-0.869-1.982c-0.195-0.799-0.344-1.724-0.455-2.771c-0.275-2.094-0.937-3.541-1.984-4.339
			c-1.049-0.802-2.371-1.201-3.968-1.201c-1.71,0-3.117,0.51-4.22,1.531c-1.099,1.016-1.654,2.408-1.654,4.173
			c0,0.661,0.056,1.337,0.167,2.024c0.11,0.691,0.37,1.379,0.783,2.068c0.414,0.689,1.007,1.435,1.777,2.233
			c0.77,0.798,1.846,1.639,3.222,2.52l8.181,5.374c1.487,0.992,2.835,2.022,4.048,3.1c1.21,1.075,2.231,2.274,3.058,3.595
			c0.824,1.321,1.458,2.825,1.902,4.506c0.438,1.68,0.658,3.596,0.658,5.745c0,5.18-1.542,9.258-4.628,12.233
			c-3.085,2.977-7.825,4.463-14.215,4.463c-2.425,0-4.517-0.318-6.28-0.952c-1.763-0.636-3.251-1.462-4.464-2.481
			c-1.212-1.023-2.175-2.153-2.893-3.394c-0.716-1.244-1.28-2.445-1.692-3.603c-0.415-1.154-0.692-2.22-0.829-3.184
			c-0.139-0.964-0.207-1.694-0.207-2.189c0-0.993,0.071-1.942,0.208-2.853c0.138-0.909,0.415-1.711,0.828-2.398
			c0.416-0.689,0.992-1.241,1.738-1.654c0.744-0.414,1.696-0.622,2.855-0.622c1.764,0,3.077,0.537,3.931,1.616
			c0.855,1.072,1.366,2.936,1.53,5.578c0.11,2.042,0.673,3.776,1.69,5.209c1.019,1.437,2.652,2.153,4.906,2.153
			c2.2,0,3.821-0.676,4.864-2.025c1.046-1.353,1.568-2.991,1.568-4.92c0-0.989-0.098-1.888-0.29-2.687
			c-0.192-0.798-0.524-1.529-0.992-2.189c-0.466-0.662-1.06-1.309-1.775-1.943c-0.715-0.635-1.568-1.309-2.561-2.026L11.576,34.231z
			"/>
		<path fill="#2D8D36" d="M52.921,34.231c-2.918-2.039-4.903-4.242-5.948-6.613c-1.048-2.368-1.571-5.069-1.571-8.101
			c0-2.642,0.468-4.928,1.407-6.858c0.939-1.93,2.208-3.542,3.807-4.839c1.601-1.291,3.462-2.257,5.584-2.892
			c2.123-0.634,4.373-0.949,6.742-0.949c3.087,0,5.677,0.498,7.771,1.489c2.095,0.996,3.792,2.237,5.086,3.723
			c1.295,1.492,2.22,3.106,2.771,4.843c0.552,1.739,0.826,3.376,0.826,4.92c0,1.877-0.509,3.282-1.528,4.217
			c-1.019,0.938-2.331,1.407-3.929,1.407c-1.102,0-1.998-0.124-2.687-0.372c-0.688-0.248-1.228-0.634-1.613-1.159
			c-0.384-0.523-0.675-1.184-0.867-1.982c-0.191-0.799-0.346-1.724-0.456-2.771c-0.273-2.094-0.935-3.541-1.984-4.339
			c-1.049-0.802-2.372-1.201-3.97-1.201c-1.707,0-3.115,0.51-4.217,1.531c-1.099,1.016-1.654,2.408-1.654,4.173
			c0,0.661,0.056,1.337,0.167,2.024c0.11,0.691,0.371,1.379,0.784,2.068c0.412,0.689,1.006,1.435,1.776,2.233
			c0.771,0.798,1.845,1.639,3.223,2.52l8.181,5.374c1.486,0.992,2.835,2.022,4.048,3.1c1.209,1.075,2.23,2.274,3.058,3.595
			c0.824,1.321,1.457,2.825,1.899,4.506c0.442,1.68,0.661,3.596,0.661,5.745c0,5.18-1.542,9.258-4.628,12.233
			c-3.083,2.977-7.824,4.463-14.214,4.463c-2.425,0-4.516-0.318-6.28-0.952c-1.763-0.636-3.251-1.462-4.464-2.481
			c-1.211-1.023-2.175-2.153-2.892-3.394c-0.717-1.244-1.281-2.445-1.693-3.603c-0.415-1.154-0.692-2.22-0.829-3.184
			c-0.139-0.964-0.207-1.694-0.207-2.189c0-0.993,0.071-1.942,0.208-2.853c0.137-0.909,0.413-1.711,0.827-2.398
			c0.415-0.689,0.992-1.241,1.738-1.654c0.743-0.414,1.697-0.622,2.856-0.622c1.764,0,3.075,0.537,3.93,1.616
			c0.855,1.072,1.368,2.936,1.531,5.578c0.11,2.042,0.673,3.776,1.69,5.209c1.02,1.437,2.652,2.153,4.907,2.153
			c2.197,0,3.821-0.676,4.864-2.025c1.045-1.353,1.567-2.991,1.567-4.92c0-0.989-0.098-1.888-0.29-2.687
			c-0.193-0.798-0.524-1.529-0.992-2.189c-0.466-0.662-1.061-1.309-1.776-1.943s-1.568-1.309-2.561-2.026L52.921,34.231z"/>
		<path fill="#2D8D36" d="M86.639,28.369c0-5.456,0.511-9.798,1.531-13.021c1.022-3.224,2.389-5.679,4.101-7.356
			c1.714-1.682,3.658-2.772,5.838-3.266c2.183-0.498,4.434-0.746,6.751-0.746c2.321,0,4.571,0.248,6.751,0.746
			c2.181,0.494,4.127,1.583,5.839,3.266c1.714,1.678,3.08,4.133,4.102,7.356c1.021,3.223,1.532,7.565,1.532,13.021v12.566
			c0,5.623-0.469,10.102-1.408,13.438c-0.938,3.332-2.225,5.882-3.852,7.646c-1.629,1.764-3.563,2.921-5.798,3.474
			c-2.236,0.549-4.625,0.825-7.167,0.825c-2.595,0-4.996-0.276-7.206-0.825c-2.208-0.553-4.128-1.71-5.756-3.474
			c-1.63-1.765-2.913-4.314-3.854-7.646c-0.939-3.337-1.406-7.815-1.406-13.438V28.369z M98.212,40.933
			c0,3.637,0.138,6.542,0.418,8.719c0.276,2.177,0.689,3.856,1.246,5.04c0.552,1.188,1.247,1.958,2.077,2.314
			c0.832,0.356,1.799,0.539,2.908,0.539c1.108,0,2.077-0.183,2.91-0.539c0.83-0.356,1.522-1.127,2.078-2.314
			c0.554-1.184,0.968-2.863,1.245-5.04c0.279-2.178,0.417-5.082,0.417-8.719V28.374c0-3.197-0.138-5.814-0.417-7.853
			c-0.276-2.037-0.691-3.632-1.245-4.792c-0.555-1.159-1.248-1.943-2.078-2.354c-0.833-0.416-1.802-0.621-2.91-0.621
			c-1.108,0-2.076,0.206-2.908,0.621c-0.83,0.412-1.525,1.195-2.077,2.354c-0.557,1.16-0.969,2.755-1.246,4.792
			c-0.28,2.039-0.418,4.656-0.418,7.853V40.933z"/>
		<path fill="#2D8D36" d="M140.66,50.062l-2.235,10.733c-0.386,1.869-1.008,3.204-1.861,4.005c-0.856,0.795-2.165,1.197-3.929,1.197
			c-1.65,0-2.934-0.444-3.845-1.326c-0.908-0.879-1.362-2.039-1.362-3.471c0-0.499,0.054-1.175,0.165-2.027
			c0.11-0.854,0.276-1.695,0.495-2.523l10.585-44.575c0.327-1.487,0.703-2.743,1.117-3.763c0.412-1.021,0.949-1.819,1.613-2.398
			c0.659-0.577,1.5-0.991,2.52-1.239c1.021-0.248,2.301-0.373,3.845-0.373c1.379,0,2.564,0.125,3.555,0.373
			c0.994,0.248,1.848,0.662,2.567,1.239c0.713,0.58,1.308,1.377,1.774,2.398c0.467,1.02,0.867,2.276,1.201,3.763l10.502,44.243
			c0.217,0.938,0.412,1.823,0.577,2.65c0.166,0.824,0.248,1.46,0.248,1.9c0,1.873-0.565,3.198-1.695,3.969
			c-1.13,0.773-2.386,1.16-3.761,1.16c-2.041,0-3.53-0.513-4.466-1.529c-0.937-1.019-1.68-2.901-2.234-5.657l-1.735-8.749H140.66z
			 M152.567,41.286l-4.881-24.724h-0.163l-5.047,24.724H152.567z"/>
		<path fill="#2D8D36" d="M173.899,11.332c0-2.093,0.479-3.61,1.445-4.547c0.965-0.936,2.467-1.407,4.506-1.407h15.212
			c2.482,0,4.576,0.401,6.284,1.199c1.711,0.802,3.091,1.89,4.136,3.271c1.046,1.378,1.807,3.005,2.275,4.883
			c0.467,1.875,0.704,3.86,0.704,5.958c0,3.917-0.565,6.885-1.691,8.898c-1.127,2.012-2.955,3.542-5.483,4.593
			c1.487,0.498,2.667,1.115,3.546,1.859c0.88,0.743,1.569,1.626,2.065,2.646c0.495,1.018,0.822,2.206,0.988,3.551
			c0.164,1.35,0.25,2.878,0.25,4.586v6.365c0,1.652,0.123,3.236,0.369,4.75c0.249,1.519,0.375,3.018,0.375,4.505
			c0,0.879-0.414,1.696-1.239,2.438c-0.826,0.745-2.176,1.118-4.044,1.118c-2.091,0-3.716-0.457-4.868-1.365
			c-1.155-0.907-1.789-2.328-1.898-4.257l-0.498-15.207c-0.166-4.132-2.347-6.198-6.542-6.198h-4.805v38.552
			c0,1.761-0.552,3.153-1.655,4.17c-1.103,1.021-2.4,1.531-3.889,1.531c-1.491,0-2.787-0.513-3.889-1.531
			c-1.105-1.018-1.655-2.41-1.655-4.174V11.332z M184.987,30.627h4.317c1.104,0,2.129-0.137,3.069-0.412
			c0.942-0.28,1.74-0.749,2.408-1.412c0.664-0.664,1.188-1.534,1.575-2.608c0.386-1.08,0.582-2.417,0.582-4.021
			c0-2.981-0.524-5.137-1.576-6.462c-1.05-1.327-2.904-1.989-5.557-1.989h-4.817V30.627z"/>
	</g>
	<circle fill="#ADCE6E" cx="203.308" cy="77.651" r="5.573"/>
</g>
</svg>
