<?xml version="1.0" encoding="utf-8"?>
<!-- Generator: Adobe Illustrator 16.0.0, SVG Export Plug-In . SVG Version: 6.00 Build 0)  -->
<!DOCTYPE svg PUBLIC "-//W3C//DTD SVG 1.1//EN" "http://www.w3.org/Graphics/SVG/1.1/DTD/svg11.dtd">
<svg version="1.1" id="Ebene_1" xmlns="http://www.w3.org/2000/svg" xmlns:xlink="http://www.w3.org/1999/xlink" x="0px" y="0px"
	 width="200px" height="73px" viewBox="0 0 200 73" enable-background="new 0 0 200 73" xml:space="preserve">
<g>
	<path fill="#497593" d="M43.391,57.137l4.803-25.008c0.331-1.821,0.746-3.726,0.746-5.63c0-2.733-1.822-4.638-4.555-4.638
		c-7.949,0-11.924,11.51-13.167,17.887l-3.395,17.389h-6.128l4.803-24.594c0.331-1.905,0.828-3.809,0.828-5.714
		c0-2.567-1.656-4.969-4.389-4.969c-7.95,0-12.173,11.428-13.415,17.887L6.127,57.137H0l7.701-39.416h6.128l-1.739,8.529
		l0.166,0.166c2.732-5.216,7.536-9.605,13.746-9.605c4.224,0,7.701,3.643,7.701,7.867v1.491h0.166
		c2.484-5.052,7.784-9.357,13.581-9.357c4.471,0,7.867,3.312,7.867,7.784c0,1.739-0.166,3.478-0.497,5.216l-5.299,27.327H43.391z"/>
	<path fill="#497593" d="M63.092,57.137l7.701-39.416h6.127L69.22,57.137H63.092z M72.118,7.453L73.608,0h7.37l-1.408,7.453H72.118z
		"/>
	<path fill="#497593" d="M82.384,49.932c3.064,2.484,6.376,3.892,10.351,3.892c4.306,0,9.357-1.738,9.357-6.873
		c0-7.949-15.401-8.115-15.401-18.299c0-8.364,7.287-11.842,14.739-11.842c3.396,0,6.46,0.662,9.606,1.904l-1.325,5.88
		c-3.146-2.07-5.714-3.561-9.688-3.561c-3.81,0-7.204,1.822-7.204,6.045c0,6.128,15.401,6.708,15.401,17.804
		c0,9.854-7.7,13.166-16.395,13.166c-3.644,0-7.288-0.911-10.682-2.153L82.384,49.932z"/>
	<path fill="#497593" d="M116.083,49.932c3.064,2.484,6.377,3.892,10.353,3.892c4.306,0,9.357-1.738,9.357-6.873
		c0-7.949-15.404-8.115-15.404-18.299c0-8.364,7.289-11.842,14.741-11.842c3.394,0,6.458,0.662,9.604,1.904l-1.325,5.88
		c-3.145-2.07-5.712-3.561-9.688-3.561c-3.809,0-7.203,1.822-7.203,6.045c0,6.128,15.401,6.708,15.401,17.804
		c0,9.854-7.702,13.166-16.396,13.166c-3.643,0-7.286-0.911-10.682-2.153L116.083,49.932z"/>
	<path fill="#497593" d="M151.273,72.954l8.695-15.569l-8.032-39.664h6.626l6.21,30.97l17.306-30.97h5.548l-30.805,55.233H151.273z"
		/>
	<path fill="#E85E2B" d="M186.314,57.137l2.185-11.385H200l-2.184,11.385H186.314z"/>
</g>
</svg>
