<?xml version="1.0" encoding="utf-8"?>
<!-- Generator: Adobe Illustrator 25.0.1, SVG Export Plug-In . SVG Version: 6.00 Build 0)  -->
<svg version="1.1"
	 id="svg8" xmlns:cc="http://creativecommons.org/ns#" xmlns:dc="http://purl.org/dc/elements/1.1/" xmlns:rdf="http://www.w3.org/1999/02/22-rdf-syntax-ns#" xmlns:svg="http://www.w3.org/2000/svg"
	 xmlns="http://www.w3.org/2000/svg" xmlns:xlink="http://www.w3.org/1999/xlink" x="0px" y="0px" viewBox="0 0 359.6 100.4"
	 style="enable-background:new 0 0 359.6 100.4;" xml:space="preserve">
<style type="text/css">
	.st0{fill:none;stroke:#A5B9CD;stroke-width:4.252;stroke-miterlimit:11.3386;}
	.st1{fill:#FFFFFF;}
	.st2{fill:#426889;}
</style>
<g id="g2470" transform="translate(80.839243)">
	<g id="text2416" transform="translate(-60.899998,-103.03755)">
		<path id="path2464" class="st0" d="M-17.5,163.8H-7v-25.3h22.9v25.3h10.5v-57.6H15.8v23.1H-7v-23.1h-10.5V163.8z"/>
		<path id="path2466" class="st0" d="M45.3,164.8c13,0,20.8-7.8,20.8-17.2c0-8.4-4.8-12.7-11.6-15.6l-7.7-3.2c-4.8-2-9.1-3.6-9.1-8
			c0-4.1,3.4-6.6,8.8-6.6c4.4,0,8.6,1.8,12.2,4.8l5.6-6.9c-4.5-4.3-10.9-7.1-17.9-7.1c-11.3,0-19.4,7.1-19.4,16.4
			c0,8.4,5.9,12.8,11.6,15.2l7.8,3.4c5.2,2.2,8.9,3.7,8.9,8.3c0,4.4-3.5,7.3-9.9,7.3c-5.5,0-11.3-2.3-15.4-6.2l-5.6,6.9
			C30,161.9,37.4,164.8,45.3,164.8L45.3,164.8z"/>
		<path id="path2468" class="st0" d="M64.2,163.8h10.5v-22.4h8.5l12.3,22.4h11.7l-13.6-23.9c6.9-2.4,11.4-7.7,11.4-16.5
			c0-12.9-9.2-17.2-21.3-17.2H64.2V163.8z M74.6,133.1v-18.5h7.9c7.8,0,12.1,2.3,12.1,8.8c0,6.4-4.2,9.7-12.1,9.7H74.6z"/>
	</g>
	<g id="text2420" transform="translate(-60.899998,-103.03755)">
		<path id="path2471" class="st1" d="M-17.5,163.8H-7v-25.3h22.9v25.3h10.5v-57.6H15.8v23.1H-7v-23.1h-10.5V163.8z"/>
		<path id="path2473" class="st1" d="M45.3,164.8c13,0,20.8-7.8,20.8-17.2c0-8.4-4.8-12.7-11.6-15.6l-7.7-3.2c-4.8-2-9.1-3.6-9.1-8
			c0-4.1,3.4-6.6,8.8-6.6c4.4,0,8.6,1.8,12.2,4.8l5.6-6.9c-4.5-4.3-10.9-7.1-17.9-7.1c-11.3,0-19.4,7.1-19.4,16.4
			c0,8.4,5.9,12.8,11.6,15.2l7.8,3.4c5.2,2.2,8.9,3.7,8.9,8.3c0,4.4-3.5,7.3-9.9,7.3c-5.5,0-11.3-2.3-15.4-6.2l-5.6,6.9
			C30,161.9,37.4,164.8,45.3,164.8L45.3,164.8z"/>
		<path id="path2475" class="st1" d="M64.2,163.8h10.5v-22.4h8.5l12.3,22.4h11.7l-13.6-23.9c6.9-2.4,11.4-7.7,11.4-16.5
			c0-12.9-9.2-17.2-21.3-17.2H64.2V163.8z M74.6,133.1v-18.5h7.9c7.8,0,12.1,2.3,12.1,8.8c0,6.4-4.2,9.7-12.1,9.7H74.6z"/>
	</g>
</g>
<g id="text2424" transform="translate(-60.899998,-103.03755)">
	<path id="path2478" class="st2" d="M60.9,203.1h3.7v-8.9h8.1v8.9h3.7v-20.3h-3.7v8.1h-8.1v-8.1h-3.7L60.9,203.1z"/>
	<path id="path2480" class="st2" d="M82,203.1h3.7v-15.3H82V203.1z M83.9,185.2c1.3,0,2.2-0.8,2.2-2.1c0-1.2-0.9-2.1-2.2-2.1
		c-1.3,0-2.2,0.8-2.2,2.1C81.7,184.4,82.6,185.2,83.9,185.2z"/>
	<path id="path2482" class="st2" d="M95.3,203.5c3.9,0,6-2.1,6-4.7c0-2.6-2.1-3.8-4.4-4.6c-1.9-0.7-3-1.1-3-2.2
		c0-0.9,0.7-1.6,2.2-1.6c1.2,0,2.3,0.4,3.4,1.2l1.6-2.1c-1.2-1.1-3-1.9-5.1-1.9c-3.4,0-5.6,1.9-5.6,4.6c0,2.4,2,3.7,4.2,4.5
		c1.7,0.6,3.2,1.1,3.2,2.4c0,1-0.8,1.8-2.4,1.8c-1.6,0-2.9-0.5-4.3-1.5l-1.6,2.1C91,202.7,93.2,203.5,95.3,203.5L95.3,203.5z"/>
	<path id="path2484" class="st2" d="M110.1,203.5c1.2,0,2.4-0.3,3.2-0.7l-0.7-2.6c-0.5,0.2-1.1,0.3-1.6,0.3c-1.4,0-2.1-0.9-2.1-2.6
		v-7.2h3.9v-2.9h-3.9v-4.7h-3l-0.4,4.7l-2.4,0.2v2.7h2.2v7.2C105.2,201.2,106.5,203.5,110.1,203.5L110.1,203.5z"/>
	<path id="path2486" class="st2" d="M122.6,203.5c3.8,0,7.3-2.9,7.3-8c0-5.1-3.5-8-7.3-8c-3.8,0-7.3,2.9-7.3,8
		C115.3,200.6,118.7,203.5,122.6,203.5z M122.6,200.5c-2.2,0-3.5-2-3.5-5c0-3,1.3-5,3.5-5s3.5,2,3.5,5
		C126.1,198.5,124.8,200.5,122.6,200.5z"/>
	<path id="path2488" class="st2" d="M134.2,203.1h3.7v-9.2c0.9-2.3,2.4-3.1,3.6-3.1c0.6,0,1,0.1,1.5,0.2l0.7-3.1
		c-0.5-0.2-1-0.3-1.7-0.3c-1.6,0-3.2,1.1-4.3,3.1h-0.1l-0.3-2.7h-3L134.2,203.1z"/>
	<path id="path2490" class="st2" d="M146.6,203.1h3.7v-15.3h-3.7V203.1z M148.5,185.2c1.3,0,2.2-0.8,2.2-2.1c0-1.2-0.9-2.1-2.2-2.1
		c-1.3,0-2.2,0.8-2.2,2.1C146.3,184.4,147.2,185.2,148.5,185.2z"/>
	<path id="path2492" class="st2" d="M162.1,203.5c1.7,0,3.5-0.6,5-1.9l-1.5-2.3c-0.9,0.7-1.9,1.2-3.1,1.2c-2.3,0-4-2-4-5
		c0-3,1.7-5,4.1-5c1,0,1.7,0.3,2.5,1l1.8-2.3c-1.1-1-2.5-1.7-4.5-1.7c-4.1,0-7.7,2.9-7.7,8C154.7,200.6,157.9,203.5,162.1,203.5
		L162.1,203.5z"/>
	<path id="path2494" class="st2" d="M174.3,203.5c1.8,0,3.3-0.9,4.6-2h0.1l0.3,1.7h3v-9c0-4.2-1.9-6.6-5.7-6.6c-2.4,0-4.6,0.9-6.3,2
		l1.3,2.4c1.4-0.8,2.8-1.4,4.3-1.4c2,0,2.7,1.3,2.7,2.9c-6.3,0.7-8.9,2.4-8.9,5.7C169.8,201.7,171.6,203.5,174.3,203.5L174.3,203.5z
		 M175.4,200.6c-1.2,0-2.1-0.5-2.1-1.8c0-1.6,1.2-2.5,5.4-3v3.2C177.6,200.1,176.7,200.6,175.4,200.6z"/>
	<path id="path2496" class="st2" d="M191,203.5c0.9,0,1.5-0.1,1.9-0.3l-0.4-2.7c-0.2,0.1-0.4,0.1-0.6,0.1c-0.4,0-0.8-0.3-0.8-1.2
		v-18.1h-3.7v17.9C187.5,201.8,188.4,203.5,191,203.5L191,203.5z"/>
	<path id="path2498" class="st2" d="M210.1,203.5c4.6,0,7.3-2.8,7.3-6c0-2.9-1.7-4.5-4.1-5.5l-2.7-1.1c-1.7-0.7-3.2-1.3-3.2-2.8
		c0-1.5,1.2-2.3,3.1-2.3c1.6,0,3,0.6,4.3,1.7l2-2.4c-1.6-1.5-3.8-2.5-6.3-2.5c-4,0-6.8,2.5-6.8,5.8c0,2.9,2.1,4.5,4.1,5.4l2.8,1.2
		c1.8,0.8,3.1,1.3,3.1,2.9c0,1.5-1.2,2.6-3.5,2.6c-2,0-4-0.8-5.4-2.2l-2,2.4C204.7,202.5,207.3,203.5,210.1,203.5L210.1,203.5z"/>
	<path id="path2500" class="st2" d="M228,203.5c3.8,0,7.3-2.9,7.3-8c0-5.1-3.5-8-7.3-8c-3.8,0-7.3,2.9-7.3,8
		C220.7,200.6,224.1,203.5,228,203.5z M228,200.5c-2.2,0-3.5-2-3.5-5c0-3,1.3-5,3.5-5c2.2,0,3.5,2,3.5,5
		C231.5,198.5,230.2,200.5,228,200.5z"/>
	<path id="path2502" class="st2" d="M246,203.5c1.7,0,3.5-0.6,5-1.9l-1.5-2.3c-0.9,0.7-1.9,1.2-3.1,1.2c-2.3,0-4-2-4-5
		c0-3,1.7-5,4.1-5c1,0,1.7,0.3,2.5,1l1.8-2.3c-1.1-1-2.5-1.7-4.5-1.7c-4.1,0-7.7,2.9-7.7,8C238.6,200.6,241.8,203.5,246,203.5z"/>
	<path id="path2504" class="st2" d="M254.8,203.1h3.7v-15.3h-3.7V203.1z M256.7,185.2c1.3,0,2.2-0.8,2.2-2.1c0-1.2-0.9-2.1-2.2-2.1
		c-1.3,0-2.2,0.8-2.2,2.1C254.5,184.4,255.4,185.2,256.7,185.2z"/>
	<path id="path2506" class="st2" d="M267.5,203.5c1.8,0,3.3-0.9,4.6-2h0.1l0.3,1.7h3v-9c0-4.2-1.9-6.6-5.7-6.6c-2.4,0-4.6,0.9-6.3,2
		l1.3,2.4c1.4-0.8,2.8-1.4,4.3-1.4c2,0,2.7,1.3,2.7,2.9c-6.3,0.7-8.9,2.4-8.9,5.7C263,201.7,264.9,203.5,267.5,203.5L267.5,203.5z
		 M268.7,200.6c-1.2,0-2.1-0.5-2.1-1.8c0-1.6,1.2-2.5,5.4-3v3.2C270.8,200.1,269.9,200.6,268.7,200.6L268.7,200.6z"/>
	<path id="path2508" class="st2" d="M284.3,203.5c0.9,0,1.5-0.1,1.9-0.3l-0.4-2.7c-0.2,0.1-0.4,0.1-0.6,0.1c-0.4,0-0.8-0.3-0.8-1.2
		v-18.1h-3.7v17.9C280.7,201.8,281.7,203.5,284.3,203.5L284.3,203.5z"/>
	<path id="path2510" class="st2" d="M297.5,203.1h3.7v-7.9h3l4.3,7.9h4.1l-4.8-8.4c2.4-0.8,4-2.7,4-5.8c0-4.6-3.3-6-7.5-6h-6.9
		L297.5,203.1z M301.1,192.3v-6.5h2.8c2.8,0,4.2,0.8,4.2,3.1c0,2.3-1.5,3.4-4.2,3.4H301.1z"/>
	<path id="path2512" class="st2" d="M322.6,203.5c2,0,3.8-0.6,5.3-1.6l-1.2-2.3c-1.1,0.7-2.2,1.1-3.5,1.1c-2.4,0-4-1.5-4.4-4h9.6
		c0.1-0.6,0.2-1.1,0.2-1.9c0-4.3-2.2-7.3-6.4-7.3c-3.6,0-7,3-7,8C315.1,200.6,318.4,203.5,322.6,203.5L322.6,203.5z M318.7,193.9
		c0.3-2.3,1.8-3.5,3.5-3.5c2,0,3,1.3,3,3.5H318.7z"/>
	<path id="path2514" class="st2" d="M337,203.5c3.9,0,6-2.1,6-4.7c0-2.6-2.1-3.8-4.4-4.6c-1.9-0.7-3-1.1-3-2.2
		c0-0.9,0.7-1.6,2.2-1.6c1.2,0,2.3,0.4,3.4,1.2l1.6-2.1c-1.2-1.1-3-1.9-5.1-1.9c-3.4,0-5.6,1.9-5.6,4.6c0,2.4,2,3.7,4.2,4.5
		c1.7,0.6,3.2,1.1,3.2,2.4c0,1-0.8,1.8-2.4,1.8c-1.5,0-2.9-0.5-4.3-1.5l-1.6,2.1C332.7,202.7,334.8,203.5,337,203.5L337,203.5z"/>
	<path id="path2516" class="st2" d="M353.4,203.5c2,0,3.8-0.6,5.3-1.6l-1.2-2.3c-1.1,0.7-2.2,1.1-3.5,1.1c-2.4,0-4-1.5-4.4-4h9.6
		c0.1-0.6,0.2-1.1,0.2-1.9c0-4.3-2.2-7.3-6.4-7.3c-3.6,0-7,3-7,8C345.9,200.6,349.2,203.5,353.4,203.5L353.4,203.5z M349.5,193.9
		c0.3-2.3,1.8-3.5,3.5-3.5c2,0,3,1.3,3,3.5H349.5z"/>
	<path id="path2518" class="st2" d="M366.9,203.5c1.8,0,3.3-0.9,4.7-2h0.1l0.3,1.7h3v-9c0-4.2-1.9-6.6-5.7-6.6c-2.4,0-4.6,0.9-6.3,2
		l1.3,2.4c1.4-0.8,2.8-1.4,4.3-1.4c2,0,2.7,1.3,2.7,2.9c-6.3,0.7-8.9,2.4-8.9,5.7C362.4,201.7,364.2,203.5,366.9,203.5L366.9,203.5z
		 M368,200.6c-1.2,0-2.1-0.5-2.1-1.8c0-1.6,1.2-2.5,5.4-3v3.2C370.2,200.1,369.3,200.6,368,200.6z"/>
	<path id="path2520" class="st2" d="M380.1,203.1h3.7v-9.2c0.9-2.3,2.4-3.1,3.6-3.1c0.6,0,1,0.1,1.5,0.2l0.7-3.1
		c-0.5-0.2-1-0.3-1.7-0.3c-1.6,0-3.2,1.1-4.3,3.1h-0.1l-0.3-2.7h-3V203.1z"/>
	<path id="path2522" class="st2" d="M398.6,203.5c1.7,0,3.5-0.6,5-1.9l-1.5-2.3c-0.9,0.7-1.9,1.2-3.1,1.2c-2.3,0-4-2-4-5
		c0-3,1.7-5,4.1-5c1,0,1.7,0.3,2.5,1l1.8-2.3c-1.1-1-2.5-1.7-4.5-1.7c-4.1,0-7.7,2.9-7.7,8C391.2,200.6,394.5,203.5,398.6,203.5z"/>
	<path id="path2524" class="st2" d="M407.4,203.1h3.7v-10.6c1.2-1.2,2.1-1.9,3.4-1.9c1.6,0,2.3,0.9,2.3,3.4v9.1h3.7v-9.5
		c0-3.8-1.4-6.1-4.7-6.1c-2.1,0-3.6,1.1-4.8,2.3l0.2-2.9v-5.6h-3.7L407.4,203.1z"/>
</g>
</svg>
