<?xml version="1.0" encoding="utf-8"?>
<!-- Generator: Adobe Illustrator 16.0.3, SVG Export Plug-In . SVG Version: 6.00 Build 0)  -->
<!DOCTYPE svg PUBLIC "-//W3C//DTD SVG 1.1//EN" "http://www.w3.org/Graphics/SVG/1.1/DTD/svg11.dtd">
<svg version="1.1" id="Ebene_1" xmlns="http://www.w3.org/2000/svg" xmlns:xlink="http://www.w3.org/1999/xlink" x="0px" y="0px"
	 width="354.331px" height="70.866px" viewBox="0 0 354.331 70.866" enable-background="new 0 0 354.331 70.866"
	 xml:space="preserve">
<g>
	<path fill="#6F6F6E" d="M5.669,67.727l15.265-64.59h6.553l-15.266,64.59H5.669z"/>
	<path fill="#991E6C" d="M48.87,11.49c-6.408,0-6.984,4.464-6.984,7.993v4.176h9.937v3.312h-9.937v30.963h-5.329V26.971h-6.336
		v-3.312h6.336v-2.232c0-7.057,1.08-13.393,12.025-13.393c2.808,0,4.536,0.432,5.832,0.648v4.249
		C52.903,12.282,51.247,11.49,48.87,11.49z"/>
	<path fill="#991E6C" d="M61.828,36.692c0,7.561,2.592,18.578,13.177,18.578c3.096,0,4.248-0.504,6.265-1.008v3.096
		c-2.809,0.792-4.608,1.368-8.497,1.368c-10.225,0-16.921-6.336-16.921-18.938c0-9.793,3.888-16.921,13.897-16.921
		c12.169,0,12.169,11.017,12.169,13.825H61.828z M69.389,25.747c-6.121,0-7.417,5.905-7.417,7.777h14.401
		C76.374,30.572,75.509,25.747,69.389,25.747z"/>
	<path fill="#991E6C" d="M128.575,57.934V34.892c0-2.664,0-7.633-4.824-7.633c-6.121,0-8.785,9.649-8.785,15.266v15.409h-5.328
		V35.756c0-3.672,0-8.497-4.752-8.497c-6.121,0-8.857,9.361-8.857,15.985v14.689H90.7V23.659h5.184v8.425h0.144
		c1.8-4.32,4.752-9.217,10.729-9.217s8.208,5.184,8.208,9h0.144c0.864-2.376,3.96-9,10.513-9c5.544,0,8.281,4.032,8.281,9.649
		v25.418H128.575z"/>
	<path fill="#991E6C" d="M162.412,34.244c0-2.736,0-8.497-5.977-8.497c-6.049,0-7.633,6.985-7.633,12.673
		c0,7.345,3.096,16.85,13.033,16.85c2.808,0,3.888-0.432,5.833-0.936v3.168c-2.521,0.792-4.681,1.224-7.705,1.224
		c-12.817,0-17.138-8.281-17.138-19.01c0-11.233,5.544-16.849,13.969-16.849c8.497,0,11.809,5.184,11.809,11.377H162.412z"/>
	<path fill="#991E6C" d="M188.115,58.726c-10.225,0-14.545-6.48-14.545-17.569c0-10.945,4.32-18.29,14.545-18.29
		c10.225,0,14.905,7.345,14.905,18.29C203.02,52.246,198.34,58.726,188.115,58.726z M188.115,25.747
		c-7.345,0-8.569,8.137-8.569,15.625c0,7.057,1.224,14.473,8.569,14.473c7.417,0,8.929-7.417,8.929-14.473
		C197.043,33.884,195.532,25.747,188.115,25.747z"/>
	<path fill="#991E6C" d="M232.611,57.934V35.756c0-3.672,0-8.497-4.752-8.497c-7.201,0-10.441,9.361-10.441,15.985v14.689h-5.328
		V23.659h5.185v8.425h0.144c2.088-4.32,5.545-9.217,12.313-9.217c5.977,0,8.208,5.184,8.208,9v26.066H232.611z"/>
	<path fill="#991E6C" d="M255.001,58.726c-4.68,0-7.633-0.792-9.288-1.44v-5.4c0.72,0.432,5.112,3.24,9.576,3.24
		c3.961,0,7.201-1.656,7.201-5.544c0-3.457-3.313-4.825-7.345-7.201c-4.32-2.521-9.289-4.32-9.289-10.153
		c0-5.905,3.96-9.361,11.737-9.361c3.6,0,6.624,0.936,7.992,1.224v5.112c-1.152-0.648-4.68-2.736-8.713-2.736
		c-3.096,0-5.904,1.296-5.904,4.104c0,4.104,4.969,5.256,10.945,8.857c3.313,1.944,5.904,4.32,5.904,9.145
		C267.819,53.902,264.002,58.726,255.001,58.726z"/>
	<path fill="#991E6C" d="M295.179,57.934v-8.353h-0.145c-3.313,7.057-5.473,9.145-12.313,9.145c-5.689,0-8.209-6.121-8.209-10.585
		V23.659h5.328v22.178c0,3.672,1.512,8.497,6.121,8.497c6.264,0,9.072-9.361,9.072-15.985V23.659h5.328v34.275H295.179z"/>
	<path fill="#991E6C" d="M312.384,57.934V8.25h5.328v49.684H312.384z"/>
	<path fill="#991E6C" d="M337.513,26.971v20.306c0,4.032,0,7.993,5.904,7.993c1.801,0,2.592-0.216,3.24-0.432v3.6
		c-1.729,0.288-2.809,0.288-4.248,0.288c-7.057,0-10.225-2.448-10.225-8.641V26.971h-6.049v-3.312h6.049v-8.065l5.328-3.24v11.305
		h9.361v3.312H337.513z"/>
</g>
</svg>
