<?xml version="1.0" encoding="utf-8"?>
<!-- Generator: Adobe Illustrator 16.0.3, SVG Export Plug-In . SVG Version: 6.00 Build 0)  -->
<!DOCTYPE svg PUBLIC "-//W3C//DTD SVG 1.1//EN" "http://www.w3.org/Graphics/SVG/1.1/DTD/svg11.dtd">
<svg version="1.1" id="Ebene_1" xmlns="http://www.w3.org/2000/svg" xmlns:xlink="http://www.w3.org/1999/xlink" x="0px" y="0px"
	 width="205.58px" height="86.884px" viewBox="0 0 205.58 86.884" enable-background="new 0 0 205.58 86.884" xml:space="preserve">
<g>
	<path fill="#010202" d="M3.734,33.892c0.947,1.001,2.063,1.806,3.348,2.415C8.367,36.916,9.7,37.22,11.08,37.22
		c1.758,0,3.125-0.399,4.099-1.197c0.974-0.797,1.461-1.846,1.461-3.145c0-0.676-0.115-1.251-0.345-1.725
		c-0.23-0.473-0.542-0.879-0.934-1.218c-0.393-0.338-0.859-0.642-1.4-0.913c-0.542-0.27-1.123-0.554-1.745-0.852l-3.815-1.664
		c-0.623-0.27-1.258-0.595-1.907-0.974s-1.231-0.838-1.745-1.38c-0.514-0.541-0.933-1.183-1.258-1.928
		c-0.325-0.744-0.487-1.603-0.487-2.577c0-1,0.209-1.934,0.629-2.8c0.419-0.866,1-1.617,1.745-2.252
		c0.744-0.635,1.624-1.129,2.638-1.481c1.015-0.351,2.13-0.527,3.348-0.527c1.596,0,3.07,0.304,4.424,0.913
		c1.353,0.609,2.502,1.4,3.449,2.374l-1.826,2.191c-0.812-0.784-1.711-1.4-2.699-1.847c-0.988-0.446-2.104-0.669-3.348-0.669
		c-1.488,0-2.685,0.345-3.591,1.035c-0.907,0.69-1.359,1.644-1.359,2.861c0,0.649,0.128,1.197,0.385,1.644
		c0.257,0.446,0.602,0.839,1.035,1.177c0.432,0.339,0.906,0.636,1.42,0.893c0.514,0.257,1.041,0.494,1.583,0.71l3.774,1.624
		c0.757,0.325,1.475,0.697,2.151,1.116c0.676,0.42,1.258,0.907,1.745,1.461c0.487,0.555,0.873,1.204,1.157,1.948
		s0.426,1.603,0.426,2.577c0,1.055-0.21,2.043-0.629,2.963c-0.419,0.92-1.021,1.725-1.806,2.415
		c-0.785,0.69-1.732,1.231-2.841,1.623c-1.11,0.392-2.368,0.588-3.774,0.588c-1.867,0-3.599-0.352-5.195-1.055
		c-1.597-0.703-2.977-1.664-4.139-2.881L3.734,33.892z"/>
	<path fill="#010202" d="M38.147,40.182c-1.678,0-3.213-0.325-4.606-0.974c-1.394-0.649-2.591-1.576-3.591-2.78
		c-1.001-1.203-1.779-2.664-2.333-4.383c-0.555-1.718-0.832-3.646-0.832-5.783s0.277-4.051,0.832-5.743
		c0.554-1.69,1.332-3.125,2.333-4.302c1-1.177,2.198-2.076,3.591-2.699c1.393-0.622,2.928-0.933,4.606-0.933
		c1.677,0,3.212,0.318,4.606,0.954c1.393,0.636,2.597,1.542,3.612,2.719c1.014,1.177,1.799,2.611,2.354,4.301
		c0.554,1.691,0.832,3.592,0.832,5.702c0,2.137-0.278,4.065-0.832,5.783c-0.555,1.719-1.339,3.18-2.354,4.383
		c-1.015,1.205-2.219,2.131-3.612,2.78C41.36,39.857,39.825,40.182,38.147,40.182z M38.147,37.22c1.19,0,2.266-0.257,3.227-0.771
		c0.96-0.514,1.786-1.251,2.476-2.212c0.69-0.96,1.224-2.11,1.603-3.449c0.378-1.339,0.568-2.847,0.568-4.525
		c0-1.65-0.189-3.138-0.568-4.464c-0.379-1.325-0.913-2.448-1.603-3.368c-0.69-0.919-1.516-1.629-2.476-2.13
		c-0.961-0.5-2.036-0.751-3.227-0.751c-1.191,0-2.266,0.25-3.226,0.751c-0.961,0.501-1.786,1.211-2.476,2.13
		c-0.69,0.92-1.225,2.043-1.603,3.368c-0.379,1.326-0.568,2.814-0.568,4.464c0,1.678,0.189,3.186,0.568,4.525
		c0.378,1.339,0.913,2.489,1.603,3.449c0.69,0.961,1.515,1.698,2.476,2.212C35.881,36.963,36.957,37.22,38.147,37.22z"/>
	<path fill="#010202" d="M58.316,13.073h3.368v23.741h11.647v2.881H58.316V13.073z"/>
	<path fill="#010202" d="M81.083,13.073h3.368v26.622h-3.368V13.073z"/>
</g>
<g>
	<path fill="#010202" d="M121.196,50.977h3.368v13.352h0.122l11.079-13.352h3.815l-8.319,10.146l9.618,16.477h-3.774l-7.954-13.838
		l-4.586,5.397v8.441h-3.368V50.977z"/>
	<path fill="#010202" d="M162.347,77.599l-6.412-11.241h-4.83v11.241h-3.368V50.977h8.319c1.353,0,2.604,0.129,3.754,0.386
		c1.149,0.257,2.137,0.684,2.962,1.278c0.825,0.595,1.467,1.366,1.928,2.313c0.46,0.947,0.69,2.11,0.69,3.49
		c0,2.083-0.542,3.748-1.623,4.992c-1.083,1.245-2.53,2.097-4.343,2.557l6.737,11.606H162.347z M151.105,63.598h4.464
		c2.083,0,3.679-0.426,4.789-1.278c1.109-0.852,1.664-2.144,1.664-3.875c0-1.758-0.555-2.989-1.664-3.693
		c-1.11-0.703-2.706-1.055-4.789-1.055h-4.464V63.598z"/>
	<path fill="#010202" d="M174.358,50.977h3.368v26.622h-3.368V50.977z"/>
	<path fill="#010202" d="M188.115,71.796c0.947,1.001,2.063,1.806,3.348,2.415c1.285,0.609,2.618,0.913,3.998,0.913
		c1.758,0,3.125-0.399,4.099-1.197c0.974-0.797,1.461-1.846,1.461-3.145c0-0.676-0.115-1.251-0.345-1.725
		c-0.23-0.473-0.542-0.879-0.934-1.218c-0.393-0.338-0.859-0.642-1.4-0.913c-0.542-0.27-1.123-0.554-1.745-0.852l-3.815-1.664
		c-0.623-0.27-1.258-0.595-1.907-0.974s-1.231-0.838-1.745-1.38c-0.514-0.541-0.933-1.183-1.258-1.928
		c-0.325-0.744-0.487-1.603-0.487-2.577c0-1,0.209-1.934,0.629-2.8c0.419-0.866,1-1.617,1.745-2.252
		c0.744-0.635,1.624-1.129,2.638-1.481c1.015-0.351,2.13-0.527,3.348-0.527c1.596,0,3.07,0.304,4.424,0.913
		c1.353,0.609,2.502,1.4,3.449,2.374l-1.826,2.191c-0.812-0.784-1.711-1.4-2.699-1.847c-0.988-0.446-2.104-0.669-3.348-0.669
		c-1.488,0-2.685,0.345-3.591,1.035c-0.907,0.69-1.359,1.644-1.359,2.861c0,0.649,0.128,1.197,0.385,1.644
		c0.257,0.446,0.602,0.839,1.035,1.177c0.432,0.339,0.906,0.636,1.42,0.893c0.514,0.257,1.041,0.494,1.583,0.71l3.774,1.624
		c0.757,0.325,1.475,0.697,2.151,1.116c0.676,0.42,1.258,0.907,1.745,1.461c0.487,0.555,0.873,1.204,1.157,1.948
		s0.426,1.603,0.426,2.577c0,1.055-0.21,2.043-0.629,2.963c-0.419,0.92-1.021,1.725-1.806,2.415
		c-0.785,0.69-1.732,1.231-2.841,1.623c-1.11,0.392-2.368,0.588-3.774,0.588c-1.867,0-3.599-0.352-5.195-1.055
		c-1.597-0.703-2.977-1.664-4.139-2.881L188.115,71.796z"/>
</g>
<polyline fill="none" stroke="#497593" stroke-width="2.7" stroke-miterlimit="10" points="145.02,41.854 122.106,4.517 
	81.709,83.066 57.693,48.198 "/>
</svg>
