<?xml version="1.0" encoding="utf-8"?>
<!-- Generator: Adobe Illustrator 16.0.0, SVG Export Plug-In . SVG Version: 6.00 Build 0)  -->
<!DOCTYPE svg PUBLIC "-//W3C//DTD SVG 1.1//EN" "http://www.w3.org/Graphics/SVG/1.1/DTD/svg11.dtd">
<svg version="1.1" id="Ebene_1" xmlns="http://www.w3.org/2000/svg" xmlns:xlink="http://www.w3.org/1999/xlink" x="0px" y="0px"
	 width="160px" height="50px" viewBox="0 0 160 50" enable-background="new 0 0 160 50" xml:space="preserve">
<g>
	<rect x="8.771" fill="#497593" width="51.991" height="48.301"/>
	<g>
		<defs>
			<rect id="SVGID_1_" x="8.771" y="0" width="51.992" height="48.301"/>
		</defs>
		<clipPath id="SVGID_2_">
			<use xlink:href="#SVGID_1_"  overflow="visible"/>
		</clipPath>
		<path clip-path="url(#SVGID_2_)" fill="#FFFFFF" d="M8.497,48.965h5.378V26.387h7.189v-2.769h-7.189v-3.035
			c0-2.715,0.533-5.858,4.899-5.858c2.183,0,3.621,0.693,4.739,1.172v-3.673c-1.277-0.267-3.195-0.586-5.378-0.586
			c-8.52,0-9.638,4.898-9.638,9.585v2.396h-4.42v2.769h4.42V48.965z"/>
		<path clip-path="url(#SVGID_2_)" fill="#FFFFFF" d="M25.984,36.291c0-4.419,0.905-10.17,5.112-10.17
			c4.633,0,5.058,5.751,5.058,10.17c0,4.207-0.639,9.851-5.058,9.851C26.782,46.142,25.984,40.498,25.984,36.291 M36.367,48.965
			h5.378V12.224h-5.378v14.909h-0.106c-0.746-1.384-2.29-4.099-6.604-4.099c-6.709,0-9.531,5.644-9.531,13.257
			c0,7.295,2.236,13.259,9.531,13.259c4.101,0,5.857-3.035,6.604-4.739h0.106V48.965z"/>
	</g>
	<polygon fill="#FFFFFF" points="44.703,23.604 44.703,26.799 56.47,26.799 43.904,45.435 43.904,48.301 60.762,48.301 
		60.762,45.435 49.548,45.435 60.762,28.804 60.762,23.604 	"/>
	<path d="M156.679,44.777c0,1-0.135,3.061-1.523,3.061c-1.493,0-1.463-2.015-1.463-3.061c0-0.956,0.134-2.882,1.463-2.882
		C156.499,41.895,156.679,43.792,156.679,44.777 M158.321,44.777c0-1.777-0.538-3.747-2.672-3.747c-0.94,0-1.478,0.403-1.986,1.149
		h-0.03v-4.181h-1.508v6.778c0,2.209,0.493,3.688,3.031,3.688C157.455,48.464,158.321,46.912,158.321,44.777 M148.735,45.807
		c0,0.656-0.298,1.253-0.895,1.567c-0.164,0.089-0.373,0.149-0.567,0.149c-0.582,0-0.866-0.538-0.866-1.061
		c0-1.193,1.404-1.433,2.329-1.493V45.807z M150.244,48.299v-4.582c0-1.822-0.538-2.688-2.507-2.688
		c-1.583,0-2.613,0.522-2.733,2.18h1.583c0.045-0.777,0.195-1.553,1.15-1.553c1.015,0,0.999,1.343,0.999,2.061v0.626
		c-1.507,0.075-3.97,0.344-3.97,2.344c0,1.075,0.925,1.776,1.941,1.776c0.835,0,1.583-0.434,2-1.149h0.029v0.984H150.244z
		 M144.272,48.299v-1.075h-3.807v-9.226h-1.643v10.301H144.272z M131.194,45.807c0,0.656-0.299,1.253-0.896,1.567
		c-0.164,0.089-0.373,0.149-0.567,0.149c-0.582,0-0.865-0.538-0.865-1.061c0-1.193,1.402-1.433,2.328-1.493V45.807z M132.702,48.299
		v-4.582c0-1.822-0.537-2.688-2.508-2.688c-1.583,0-2.613,0.522-2.732,2.18h1.583c0.044-0.777,0.193-1.553,1.149-1.553
		c1.016,0,1,1.343,1,2.061v0.626c-1.507,0.075-3.972,0.344-3.972,2.344c0,1.075,0.926,1.776,1.941,1.776
		c0.836,0,1.583-0.434,2-1.149h0.03v0.984H132.702z M126.491,41.97v-0.776h-1.941v-2.583l-1.508,0.911v1.672h-1.134v0.776h1.134
		v4.688c0,1.462,0.941,1.806,2.24,1.806c0.343,0,0.701-0.015,1.045-0.104v-0.866c-0.224,0.09-0.463,0.119-0.702,0.119
		c-1.06,0-1.075-0.686-1.075-1.553v-4.09H126.491z M119.057,45.807c0,0.656-0.299,1.253-0.896,1.567
		c-0.164,0.089-0.374,0.149-0.567,0.149c-0.583,0-0.866-0.538-0.866-1.061c0-1.193,1.403-1.433,2.33-1.493V45.807z M120.565,48.299
		v-4.582c0-1.822-0.538-2.688-2.509-2.688c-1.583,0-2.612,0.522-2.732,2.18h1.583c0.045-0.777,0.193-1.553,1.149-1.553
		c1.015,0,1,1.343,1,2.061v0.626c-1.508,0.075-3.972,0.344-3.972,2.344c0,1.075,0.926,1.776,1.941,1.776
		c0.836,0,1.583-0.434,2.001-1.149h0.03v0.984H120.565z M111.936,44.747c0,0.956-0.105,2.762-1.418,2.762
		c-1.299,0-1.434-1.82-1.434-2.762c0-0.925,0.149-2.852,1.434-2.852C111.906,41.895,111.936,43.762,111.936,44.747 M113.503,48.299
		V37.999h-1.508v4.181h-0.029c-0.404-0.762-0.971-1.149-1.852-1.149c-2.105,0-2.673,1.955-2.673,3.717
		c0,1.821,0.493,3.718,2.673,3.718c0.896,0,1.508-0.538,1.852-1.329h0.029v1.164H113.503z M104.755,44.747
		c0,1.016-0.075,3.091-1.508,3.091c-1.419,0-1.494-2.075-1.494-3.091c0-1.015,0.075-3.09,1.494-3.09
		C104.68,41.657,104.755,43.732,104.755,44.747 M106.396,44.747c0-2.12-0.836-3.717-3.149-3.717c-2.315,0-3.136,1.612-3.136,3.717
		c0,2.105,0.821,3.718,3.136,3.718C105.561,48.464,106.396,46.867,106.396,44.747 M99.634,42.597V41.03
		c-1.254,0.104-1.792,0.94-2.299,1.97h-0.029v-1.806h-1.508v7.105h1.508v-3.254C97.305,43.358,97.961,42.642,99.634,42.597
		 M94.632,43.508c0-1.688-0.881-2.479-2.553-2.479c-2.149,0-3.016,1.433-3.016,3.433c0,2.359,1.06,4.001,3.568,4.001
		c0.642,0,1.284-0.134,1.896-0.358v-0.702c-0.402,0.164-0.836,0.269-1.269,0.269c-1.911,0-2.553-2.15-2.553-3.717
		c0-0.806,0.224-2.299,1.313-2.299c0.986,0,1.03,1.119,1.03,1.852H94.632z M87.437,41.194h-1.508v7.105h1.508V41.194z
		 M87.497,37.999h-1.628v1.493h1.628V37.999z M83.705,48.299V37.999h-2.121l-2.866,8.376h-0.031l-2.851-8.376h-2.195v10.301h1.239
		v-8.897h0.03l3.016,8.897h1.254l3.016-8.897h0.03v8.897H83.705z"/>
	<path d="M118.759,34.117v-5.194c0-1.105-0.597-2.075-1.792-2.075c-1.224,0-2.016,0.806-2.494,1.851h-0.028V27.01h-1.508v7.106
		h1.508v-2.94c0-1.105,0.506-3.21,1.91-3.21c0.867,0,0.896,1.075,0.896,1.702v4.449H118.759z M109.398,31.624
		c0,0.657-0.3,1.254-0.896,1.567c-0.165,0.09-0.374,0.149-0.568,0.149c-0.582,0-0.866-0.537-0.866-1.06
		c0-1.194,1.403-1.434,2.33-1.493V31.624z M110.906,34.117v-4.583c0-1.821-0.537-2.687-2.508-2.687
		c-1.583,0-2.612,0.522-2.731,2.179h1.582c0.044-0.777,0.194-1.553,1.149-1.553c1.016,0,1.001,1.343,1.001,2.06v0.627
		c-1.508,0.075-3.972,0.343-3.972,2.344c0,1.075,0.926,1.777,1.941,1.777c0.836,0,1.583-0.434,2-1.15h0.031v0.985H110.906z
		 M103.829,34.117v-4.822c0-1.239-0.298-2.447-1.791-2.447c-1.18,0-1.718,0.806-2.15,1.761h-0.029c-0.06-1-0.718-1.761-1.763-1.761
		c-1.075,0-1.851,0.88-2.149,1.851h-0.03V27.01h-1.508v7.106h1.508v-2.94c0-0.971,0.225-3.21,1.553-3.21
		c0.91,0,0.896,1.045,0.896,1.702v4.449h1.508v-2.956c0-0.955,0.283-3.194,1.583-3.194c0.836,0,0.865,0.956,0.865,1.567v4.583
		H103.829z M93.14,28.415v-1.567c-1.255,0.104-1.792,0.939-2.3,1.969h-0.029V27.01h-1.508v7.106h1.508v-3.254
		C90.811,29.175,91.467,28.459,93.14,28.415 M86.302,29.071h-2.733c0.061-0.821,0.507-1.597,1.418-1.597
		C85.928,27.474,86.302,28.235,86.302,29.071 M87.78,29.758c0-1.821-0.807-2.911-2.732-2.911c-2.18,0-3.031,1.373-3.031,3.403
		c0,2.313,1.089,4.031,3.554,4.031c0.776,0,1.358-0.104,2.075-0.403v-0.687c-0.432,0.194-0.896,0.298-1.359,0.298
		c-1.97,0-2.762-2.045-2.762-3.732H87.78z M80.688,33.296V28.22h-3.687v0.986h2.045v3.658c-0.359,0.358-0.881,0.522-1.389,0.522
		c-2.523,0-2.777-2.748-2.777-4.673c0-1.553,0.135-4.166,2.255-4.166c1.253,0,1.643,0.91,1.643,2.015h1.91
		c-0.149-2.105-1.538-2.912-3.553-2.912c-3.12,0-4.001,2.345-4.001,5.062c0,2.866,1.045,5.569,4.344,5.569
		C78.732,34.282,79.643,33.938,80.688,33.296"/>
	<path fill="#878787" d="M3.906,19.829c-0.05,0.171-0.19,0.611-0.19,1.123c0,1.195,0.651,1.676,1.374,1.676
		c1.365,0,1.536-2.157,2.38-2.157c0.301,0,0.602,0.24,0.602,0.823c0,0.563-0.301,1.034-0.501,1.324h0.933
		c0.081-0.24,0.21-0.662,0.21-1.273c0-1.015-0.42-1.816-1.445-1.816c-1.526,0-1.606,2.188-2.469,2.188
		c-0.361,0-0.502-0.362-0.502-0.684c0-0.482,0.242-0.864,0.473-1.204H3.906z M2.681,23.735H1.679v1.092h1.002V23.735z M8.603,23.774
		H3.827v1.013h4.776V23.774z M3.906,26.125c-0.05,0.17-0.19,0.611-0.19,1.124c0,1.194,0.651,1.676,1.374,1.676
		c1.365,0,1.536-2.158,2.38-2.158c0.301,0,0.602,0.242,0.602,0.824c0,0.562-0.301,1.033-0.501,1.323h0.933
		c0.081-0.24,0.21-0.66,0.21-1.273c0-1.014-0.42-1.816-1.445-1.816c-1.526,0-1.606,2.188-2.469,2.188
		c-0.361,0-0.502-0.362-0.502-0.684c0-0.481,0.242-0.862,0.473-1.204H3.906z M5.211,32.668c-0.271-0.019-1.075-0.169-1.075-0.954
		c0-0.753,0.703-0.883,1.075-0.883V32.668z M7.981,29.929c0.141,0.301,0.201,0.602,0.201,0.913c0,1.435-1.566,1.857-2.51,1.857
		v-2.86c-0.923,0-1.956,0.291-1.956,1.836c0,1.505,0.963,2.037,2.287,2.037c1.929,0,2.71-1.063,2.71-2.389
		c0-0.602-0.101-0.974-0.271-1.394H7.981z M6.164,37.808c-0.773,0-1.807-0.151-1.807-0.965c0-0.843,1.064-0.964,1.857-0.964
		s1.808,0.081,1.808,0.964C8.022,37.646,6.978,37.808,6.164,37.808 M3.827,34.836v1.013h0.781v0.02
		C4.287,36,3.716,36.331,3.716,37.114c0,1.375,1.092,1.795,2.448,1.795c1.406,0,2.438-0.531,2.438-1.795
		c0-0.824-0.43-1.105-0.661-1.245v-0.02h0.521c1.054,0,1.797,0.121,1.797,1.185c0,0.653-0.391,1.215-0.582,1.535h0.992
		c0.091-0.36,0.19-0.761,0.19-1.375c0-1.917-1.053-2.358-2.397-2.358H3.827z M7.459,47.251c-0.964,0-3.243-1.045-3.243-2.019
		c0-0.401,0.332-0.621,0.643-0.621c0.282,0,1.496,0.281,2.42,0.841c0.261,0.161,0.853,0.473,0.853,1.105
		C8.132,46.959,7.941,47.251,7.459,47.251 M8.462,42.884c0.11,0.14,1.014,1.115,1.014,2.931c0,2.147-1.225,3.494-2.871,3.494
		c-1.977,0-3.955-1.907-3.955-3.845c0-1.665,1.005-3.131,2.73-3.131c1.708,0,2.7,1.276,2.7,2.019c0,0.231-0.11,0.301-0.27,0.301
		c-0.212,0-1.145-0.391-1.708-0.613l-2.077-0.843v0.874l0.541,0.221c-0.191,0.101-0.741,0.352-0.741,1.163
		c0,1.306,1.825,2.601,3.281,2.601c0.944,0,1.435-0.602,1.435-1.334c0-0.763-0.511-1.166-0.652-1.306
		c0.251,0,0.712-0.089,0.712-0.722c0-1.405-1.405-2.819-3.222-2.819c-1.916,0-3.24,1.595-3.24,3.623C2.141,47.913,4.237,50,6.616,50
		c1.957,0,3.321-1.756,3.321-4.145c0-1.705-0.953-2.971-1.244-3.242L8.462,42.884z"/>
</g>
</svg>
