<?xml version="1.0" encoding="UTF-8" standalone="no"?>
<svg
   xmlns:dc="http://purl.org/dc/elements/1.1/"
   xmlns:cc="http://creativecommons.org/ns#"
   xmlns:rdf="http://www.w3.org/1999/02/22-rdf-syntax-ns#"
   xmlns:svg="http://www.w3.org/2000/svg"
   xmlns="http://www.w3.org/2000/svg"
   xml:space="preserve"
   enable-background="new 0 0 872.957 88.496"
   viewBox="0 0 213 88.496"
   height="88.496002"
   width="213"
   y="0px"
   x="0px"
   id="Ebene_1"
   version="1.1"><metadata
     id="metadata4229"><rdf:RDF><cc:Work
         rdf:about=""><dc:format>image/svg+xml</dc:format><dc:type
           rdf:resource="http://purl.org/dc/dcmitype/StillImage" /><dc:title></dc:title></cc:Work></rdf:RDF></metadata><defs
     id="defs4227" /><g
     id="g4205"><g
       id="g4207"><path
         style="fill:#adce6e"
         id="path4209"
         d="m 163.521,72.078 c 1.779,0 3.18,0.558 4.208,1.664 1.028,1.107 1.542,2.41 1.542,3.909 0,1.499 -0.513,2.803 -1.542,3.908 -1.029,1.109 -2.43,1.664 -4.208,1.664 l -154.036,0 c -1.779,0 -3.181,-0.555 -4.208,-1.664 -1.029,-1.105 -1.544,-2.409 -1.544,-3.908 0,-1.499 0.515,-2.802 1.544,-3.909 1.027,-1.106 2.428,-1.664 4.208,-1.664 l 154.036,0 z" /></g><g
       id="g4211"><path
         style="fill:#2d8d36"
         id="path4213"
         d="M 11.576,34.231 C 8.657,32.192 6.674,29.989 5.627,27.618 4.581,25.25 4.058,22.549 4.058,19.517 c 0,-2.642 0.467,-4.928 1.406,-6.858 0.938,-1.93 2.208,-3.542 3.806,-4.839 1.603,-1.291 3.463,-2.257 5.586,-2.892 2.123,-0.634 4.372,-0.949 6.741,-0.949 3.087,0 5.677,0.498 7.772,1.489 2.095,0.996 3.791,2.237 5.085,3.723 1.298,1.492 2.22,3.106 2.771,4.843 0.551,1.739 0.827,3.376 0.827,4.92 0,1.877 -0.508,3.282 -1.529,4.217 -1.02,0.938 -2.33,1.407 -3.928,1.407 -1.102,0 -2,-0.124 -2.688,-0.372 -0.688,-0.248 -1.227,-0.634 -1.612,-1.159 -0.386,-0.523 -0.675,-1.184 -0.869,-1.982 -0.195,-0.799 -0.344,-1.724 -0.455,-2.771 -0.275,-2.094 -0.937,-3.541 -1.984,-4.339 -1.049,-0.802 -2.371,-1.201 -3.968,-1.201 -1.71,0 -3.117,0.51 -4.22,1.531 -1.099,1.016 -1.654,2.408 -1.654,4.173 0,0.661 0.056,1.337 0.167,2.024 0.11,0.691 0.37,1.379 0.783,2.068 0.414,0.689 1.007,1.435 1.777,2.233 0.77,0.798 1.846,1.639 3.222,2.52 l 8.181,5.374 c 1.487,0.992 2.835,2.022 4.048,3.1 1.21,1.075 2.231,2.274 3.058,3.595 0.824,1.321 1.458,2.825 1.902,4.506 0.438,1.68 0.658,3.596 0.658,5.745 0,5.18 -1.542,9.258 -4.628,12.233 -3.085,2.977 -7.825,4.463 -14.215,4.463 -2.425,0 -4.517,-0.318 -6.28,-0.952 C 12.055,64.731 10.567,63.905 9.354,62.886 8.142,61.863 7.179,60.733 6.461,59.492 5.745,58.248 5.181,57.047 4.769,55.889 4.354,54.735 4.077,53.669 3.94,52.705 3.801,51.741 3.733,51.011 3.733,50.516 c 0,-0.993 0.071,-1.942 0.208,-2.853 0.138,-0.909 0.415,-1.711 0.828,-2.398 0.416,-0.689 0.992,-1.241 1.738,-1.654 0.744,-0.414 1.696,-0.622 2.855,-0.622 1.764,0 3.077,0.537 3.931,1.616 0.855,1.072 1.366,2.936 1.53,5.578 0.11,2.042 0.673,3.776 1.69,5.209 1.019,1.437 2.652,2.153 4.906,2.153 2.2,0 3.821,-0.676 4.864,-2.025 1.046,-1.353 1.568,-2.991 1.568,-4.92 0,-0.989 -0.098,-1.888 -0.29,-2.687 -0.192,-0.798 -0.524,-1.529 -0.992,-2.189 -0.466,-0.662 -1.06,-1.309 -1.775,-1.943 -0.715,-0.635 -1.568,-1.309 -2.561,-2.026 L 11.576,34.231 Z" /><path
         style="fill:#2d8d36"
         id="path4215"
         d="m 52.921,34.231 c -2.918,-2.039 -4.903,-4.242 -5.948,-6.613 -1.048,-2.368 -1.571,-5.069 -1.571,-8.101 0,-2.642 0.468,-4.928 1.407,-6.858 0.939,-1.93 2.208,-3.542 3.807,-4.839 1.601,-1.291 3.462,-2.257 5.584,-2.892 2.123,-0.634 4.373,-0.949 6.742,-0.949 3.087,0 5.677,0.498 7.771,1.489 2.095,0.996 3.792,2.237 5.086,3.723 1.295,1.492 2.22,3.106 2.771,4.843 0.552,1.739 0.826,3.376 0.826,4.92 0,1.877 -0.509,3.282 -1.528,4.217 -1.019,0.938 -2.331,1.407 -3.929,1.407 -1.102,0 -1.998,-0.124 -2.687,-0.372 -0.688,-0.248 -1.228,-0.634 -1.613,-1.159 -0.384,-0.523 -0.675,-1.184 -0.867,-1.982 -0.191,-0.799 -0.346,-1.724 -0.456,-2.771 -0.273,-2.094 -0.935,-3.541 -1.984,-4.339 -1.049,-0.802 -2.372,-1.201 -3.97,-1.201 -1.707,0 -3.115,0.51 -4.217,1.531 -1.099,1.016 -1.654,2.408 -1.654,4.173 0,0.661 0.056,1.337 0.167,2.024 0.11,0.691 0.371,1.379 0.784,2.068 0.412,0.689 1.006,1.435 1.776,2.233 0.771,0.798 1.845,1.639 3.223,2.52 l 8.181,5.374 c 1.486,0.992 2.835,2.022 4.048,3.1 1.209,1.075 2.23,2.274 3.058,3.595 0.824,1.321 1.457,2.825 1.899,4.506 0.442,1.68 0.661,3.596 0.661,5.745 0,5.18 -1.542,9.258 -4.628,12.233 -3.083,2.977 -7.824,4.463 -14.214,4.463 -2.425,0 -4.516,-0.318 -6.28,-0.952 -1.763,-0.636 -3.251,-1.462 -4.464,-2.481 -1.211,-1.023 -2.175,-2.153 -2.892,-3.394 -0.717,-1.244 -1.281,-2.445 -1.693,-3.603 -0.415,-1.154 -0.692,-2.22 -0.829,-3.184 -0.139,-0.964 -0.207,-1.694 -0.207,-2.189 0,-0.993 0.071,-1.942 0.208,-2.853 0.137,-0.909 0.413,-1.711 0.827,-2.398 0.415,-0.689 0.992,-1.241 1.738,-1.654 0.743,-0.414 1.697,-0.622 2.856,-0.622 1.764,0 3.075,0.537 3.93,1.616 0.855,1.072 1.368,2.936 1.531,5.578 0.11,2.042 0.673,3.776 1.69,5.209 1.02,1.437 2.652,2.153 4.907,2.153 2.197,0 3.821,-0.676 4.864,-2.025 1.045,-1.353 1.567,-2.991 1.567,-4.92 0,-0.989 -0.098,-1.888 -0.29,-2.687 -0.193,-0.798 -0.524,-1.529 -0.992,-2.189 -0.466,-0.662 -1.061,-1.309 -1.776,-1.943 -0.715,-0.634 -1.568,-1.309 -2.561,-2.026 L 52.921,34.231 Z" /><path
         style="fill:#2d8d36"
         id="path4217"
         d="m 86.639,28.369 c 0,-5.456 0.511,-9.798 1.531,-13.021 1.022,-3.224 2.389,-5.679 4.101,-7.356 1.714,-1.682 3.658,-2.772 5.838,-3.266 2.183,-0.498 4.434,-0.746 6.751,-0.746 2.321,0 4.571,0.248 6.751,0.746 2.181,0.494 4.127,1.583 5.839,3.266 1.714,1.678 3.08,4.133 4.102,7.356 1.021,3.223 1.532,7.565 1.532,13.021 l 0,12.566 c 0,5.623 -0.469,10.102 -1.408,13.438 -0.938,3.332 -2.225,5.882 -3.852,7.646 -1.629,1.764 -3.563,2.921 -5.798,3.474 -2.236,0.549 -4.625,0.825 -7.167,0.825 -2.595,0 -4.996,-0.276 -7.206,-0.825 -2.208,-0.553 -4.128,-1.71 -5.756,-3.474 -1.63,-1.765 -2.913,-4.314 -3.854,-7.646 -0.939,-3.337 -1.406,-7.815 -1.406,-13.438 l 0,-12.566 z m 11.573,12.564 c 0,3.637 0.138,6.542 0.418,8.719 0.276,2.177 0.689,3.856 1.246,5.04 0.552,1.188 1.247,1.958 2.077,2.314 0.832,0.356 1.799,0.539 2.908,0.539 1.108,0 2.077,-0.183 2.91,-0.539 0.83,-0.356 1.522,-1.127 2.078,-2.314 0.554,-1.184 0.968,-2.863 1.245,-5.04 0.279,-2.178 0.417,-5.082 0.417,-8.719 l 0,-12.559 c 0,-3.197 -0.138,-5.814 -0.417,-7.853 -0.276,-2.037 -0.691,-3.632 -1.245,-4.792 -0.555,-1.159 -1.248,-1.943 -2.078,-2.354 -0.833,-0.416 -1.802,-0.621 -2.91,-0.621 -1.108,0 -2.076,0.206 -2.908,0.621 -0.83,0.412 -1.525,1.195 -2.077,2.354 -0.557,1.16 -0.969,2.755 -1.246,4.792 -0.28,2.039 -0.418,4.656 -0.418,7.853 l 0,12.559 z" /><path
         style="fill:#2d8d36"
         id="path4219"
         d="m 140.66,50.062 -2.235,10.733 c -0.386,1.869 -1.008,3.204 -1.861,4.005 -0.856,0.795 -2.165,1.197 -3.929,1.197 -1.65,0 -2.934,-0.444 -3.845,-1.326 -0.908,-0.879 -1.362,-2.039 -1.362,-3.471 0,-0.499 0.054,-1.175 0.165,-2.027 0.11,-0.854 0.276,-1.695 0.495,-2.523 l 10.585,-44.575 c 0.327,-1.487 0.703,-2.743 1.117,-3.763 0.412,-1.021 0.949,-1.819 1.613,-2.398 0.659,-0.577 1.5,-0.991 2.52,-1.239 1.021,-0.248 2.301,-0.373 3.845,-0.373 1.379,0 2.564,0.125 3.555,0.373 0.994,0.248 1.848,0.662 2.567,1.239 0.713,0.58 1.308,1.377 1.774,2.398 0.467,1.02 0.867,2.276 1.201,3.763 l 10.502,44.243 c 0.217,0.938 0.412,1.823 0.577,2.65 0.166,0.824 0.248,1.46 0.248,1.9 0,1.873 -0.565,3.198 -1.695,3.969 -1.13,0.773 -2.386,1.16 -3.761,1.16 -2.041,0 -3.53,-0.513 -4.466,-1.529 -0.937,-1.019 -1.68,-2.901 -2.234,-5.657 l -1.735,-8.749 -13.641,0 z m 11.907,-8.776 -4.881,-24.724 -0.163,0 -5.047,24.724 10.091,0 z" /><path
         style="fill:#2d8d36"
         id="path4221"
         d="m 173.899,11.332 c 0,-2.093 0.479,-3.61 1.445,-4.547 0.965,-0.936 2.467,-1.407 4.506,-1.407 l 15.212,0 c 2.482,0 4.576,0.401 6.284,1.199 1.711,0.802 3.091,1.89 4.136,3.271 1.046,1.378 1.807,3.005 2.275,4.883 0.467,1.875 0.704,3.86 0.704,5.958 0,3.917 -0.565,6.885 -1.691,8.898 -1.127,2.012 -2.955,3.542 -5.483,4.593 1.487,0.498 2.667,1.115 3.546,1.859 0.88,0.743 1.569,1.626 2.065,2.646 0.495,1.018 0.822,2.206 0.988,3.551 0.164,1.35 0.25,2.878 0.25,4.586 l 0,6.365 c 0,1.652 0.123,3.236 0.369,4.75 0.249,1.519 0.375,3.018 0.375,4.505 0,0.879 -0.414,1.696 -1.239,2.438 -0.826,0.745 -2.176,1.118 -4.044,1.118 -2.091,0 -3.716,-0.457 -4.868,-1.365 -1.155,-0.907 -1.789,-2.328 -1.898,-4.257 l -0.498,-15.207 c -0.166,-4.132 -2.347,-6.198 -6.542,-6.198 l -4.805,0 0,38.552 c 0,1.761 -0.552,3.153 -1.655,4.17 -1.103,1.021 -2.4,1.531 -3.889,1.531 -1.491,0 -2.787,-0.513 -3.889,-1.531 -1.105,-1.018 -1.655,-2.41 -1.655,-4.174 l 0,-66.187 z m 11.088,19.295 4.317,0 c 1.104,0 2.129,-0.137 3.069,-0.412 0.942,-0.28 1.74,-0.749 2.408,-1.412 0.664,-0.664 1.188,-1.534 1.575,-2.608 0.386,-1.08 0.582,-2.417 0.582,-4.021 0,-2.981 -0.524,-5.137 -1.576,-6.462 -1.05,-1.327 -2.904,-1.989 -5.557,-1.989 l -4.817,0 0,16.904 z" /></g><circle
       style="fill:#adce6e"
       id="circle4223"
       r="5.573"
       cy="77.651001"
       cx="203.308" /></g></svg>