<?xml version="1.0" encoding="utf-8"?>
<!-- Generator: Adobe Illustrator 22.1.0, SVG Export Plug-In . SVG Version: 6.00 Build 0)  -->
<svg version="1.1" id="Ebene_1" xmlns="http://www.w3.org/2000/svg" xmlns:xlink="http://www.w3.org/1999/xlink" x="0px" y="0px"
	 viewBox="0 0 286 141.7" style="enable-background:new 0 0 286 141.7;" xml:space="preserve">
<style type="text/css">
	.st0{fill:#9B0073;}
	.st1{fill:#5E5E5D;}
</style>
<g>
	<path class="st0" d="M266.7,103.4l-8.4-11.7c1.3-2,2.3-4.4,3.2-7.2c1.2-4,1.9-8.5,1.9-13.7c0-5.2-0.6-9.8-1.9-13.7
		c-1.2-3.9-2.8-7.1-4.8-9.4c-2-2.3-4.4-4.2-7.1-5.7c-2.8-1.5-5.5-2.5-8.1-2.9c-2.6-0.5-5.5-0.7-8.5-0.7s-5.9,0.2-8.5,0.7
		c-2.6,0.5-5.3,1.5-8.1,2.9c-2.8,1.5-5.1,3.4-7.1,5.7c-2,2.3-3.5,5.5-4.8,9.4c-1.2,3.9-1.9,8.5-1.9,13.7c0,5.2,0.6,9.7,1.9,13.7
		c1.2,4,2.8,7.1,4.8,9.4c2,2.3,4.3,4.2,7.1,5.7s5.5,2.5,8.1,3c2.6,0.5,5.5,0.7,8.5,0.7s5.9-0.2,8.5-0.7c2.6-0.5,5.3-1.5,8.1-3
		c0,0,0.1-0.1,0.1-0.1l2.8,3.8H266.7z M238.8,92.8c-1.6,0.3-3.5,0.4-5.8,0.4c-2.7,0-5.1-0.3-7.1-0.8c-2-0.5-3.9-1.5-5.8-3
		c-1.9-1.5-3.3-3.8-4.3-6.9c-1-3.1-1.5-7.1-1.5-11.8c0-3.8,0.4-7.1,1.1-9.8c0.7-2.8,1.6-4.9,2.7-6.5c1.1-1.6,2.5-2.8,4.2-3.8
		c1.7-0.9,3.4-1.5,5-1.8c1.6-0.3,3.5-0.4,5.7-0.4c2.8,0,5.2,0.2,7.1,0.7c2,0.5,3.9,1.5,5.8,2.9c1.9,1.5,3.4,3.8,4.3,6.9
		c1,3.1,1.5,7,1.5,11.7c0,3.8-0.4,7.1-1.1,9.9c-0.7,2.8-1.6,5-2.7,6.6c-1.1,1.6-2.5,2.9-4.2,3.8C242,92,240.4,92.6,238.8,92.8z"/>
	<path class="st1" d="M19.3,57c0-6.2,2.2-10.8,6.6-13.9c4.4-3.1,9.9-4.7,16.6-4.7c5.8,0,11.7,1.5,17.5,4.4V54
		c-5-3.2-10.4-4.8-16.1-4.8c-3.6,0-6.6,0.6-9.1,1.8c-2.5,1.2-3.7,3.1-3.7,5.7c0,2.1,1.1,3.8,3.4,5c2.3,1.2,5,2.2,8.2,3
		c3.2,0.8,6.5,1.9,9.7,3.1s6,3.4,8.3,6.4S64,81.2,64,86c0,5.1-2.2,9.3-6.5,12.5c-4.3,3.2-9.6,4.8-15.9,4.8c-8.2,0-15.4-1.8-21.5-5.3
		V86.5c5.6,4.1,11.8,6.1,18.7,6.1c8.9,0,13.4-2.4,13.4-7.3c0-2.2-0.8-4-2.4-5.5c-1.6-1.5-3.7-2.5-6.1-3.2c-2.5-0.7-5.1-1.5-7.9-2.5
		c-2.8-0.9-5.5-2-7.9-3.1c-2.5-1.1-4.5-2.9-6.1-5.2C20.1,63.4,19.3,60.5,19.3,57z"/>
	<path class="st1" d="M65,50.6V39.1h42.6v11.4H92.4v52.1H80.7V50.6H65z"/>
	<polygon class="st1" points="145.3,102.7 132.8,102.7 126.9,87.3 98.2,87.3 98.2,77 122.8,77 112.5,50.6 112.5,39.1 119.5,39.1 	
		"/>
	<path class="st1" d="M149.5,102.7V39.2h24.4c7.4,0,13.2,1.8,17.3,5.3c4.1,3.5,6.2,8.6,6.2,15.1c0,9.7-4.6,15.9-13.9,18.8l16.7,24.3
		h-13.8l-15.1-22.4h-10.3v22.4H149.5z M160.9,69.8h12.6c3.9,0,6.9-0.7,9.1-2.1c2.2-1.4,3.3-4,3.3-7.8c0-3.9-1.1-6.5-3.3-7.9
		c-2.2-1.4-5.2-2-9.1-2h-12.6V69.8z"/>
	<rect x="19.4" y="114.6" class="st1" width="180.7" height="10.7"/>
	<rect x="19.4" y="16.5" class="st1" width="180.7" height="10.7"/>
	<rect x="205.7" y="114.6" class="st0" width="61" height="10.7"/>
	<rect x="205.7" y="16.5" class="st0" width="61" height="10.7"/>
</g>
</svg>
