<svg id="Ebene_1" data-name="Ebene 1" xmlns="http://www.w3.org/2000/svg" viewBox="0 0 311.81 127.56"><defs><style>.cls-1{fill:#353534;}.cls-2{fill:#d0661c;}.cls-3{fill:#e5ab82;}.cls-4{fill:#efc9b0;}.cls-5{fill:#dc8c55;}.cls-6{fill:#f8e8dd;}</style></defs><path class="cls-1" d="M139,60.37c-3.77,0-6.74-.75-8.93-2.24a6.92,6.92,0,0,1-3.29-6A7.13,7.13,0,0,1,128,48.28a12.31,12.31,0,0,1,3.23-3.35v-.25a5.51,5.51,0,0,1-1.86-1.86,5.29,5.29,0,0,1-.75-2.91,5.22,5.22,0,0,1,1.12-3.38,10.44,10.44,0,0,1,2.1-2.08v-.24a12.18,12.18,0,0,1-2.57-3.35A10,10,0,0,1,128.1,26a10.71,10.71,0,0,1,.8-4.21,10.06,10.06,0,0,1,2.23-3.32,10.24,10.24,0,0,1,3.35-2.17,11.48,11.48,0,0,1,6.32-.56,8.79,8.79,0,0,1,1.68.53h10.1v2.29h-6.94a9.64,9.64,0,0,1,2.35,3.2,9.85,9.85,0,0,1,.93,4.3,10.76,10.76,0,0,1-.8,4.22,10.29,10.29,0,0,1-2.2,3.32,10,10,0,0,1-3.29,2.17,10.71,10.71,0,0,1-4.06.77,11.13,11.13,0,0,1-2.57-.31,8.63,8.63,0,0,1-2.39-.93,9.31,9.31,0,0,0-1.7,1.8,4.11,4.11,0,0,0-.71,2.48,3.74,3.74,0,0,0,1.17,2.76q1.19,1.14,4.53,1.14h6.38q5,0,7.41,1.65a5.83,5.83,0,0,1,2.39,5.17,7.79,7.79,0,0,1-1,3.75,10.36,10.36,0,0,1-2.82,3.23,14.67,14.67,0,0,1-4.44,2.23A18.89,18.89,0,0,1,139,60.37Zm.31-2.24a14.65,14.65,0,0,0,4.52-.65,11.82,11.82,0,0,0,3.47-1.7,8,8,0,0,0,2.2-2.39,5.4,5.4,0,0,0,.78-2.76,3.71,3.71,0,0,0-1.77-3.5,10.37,10.37,0,0,0-5.11-1H137c-.33,0-.83,0-1.52-.1a13,13,0,0,1-2.2-.4,9.77,9.77,0,0,0-3,3,6.39,6.39,0,0,0-.93,3.22A5.25,5.25,0,0,0,132,56.4Q134.54,58.13,139.32,58.13Zm-.75-23.74a7.4,7.4,0,0,0,3-.59A7.25,7.25,0,0,0,144,32.1a8.34,8.34,0,0,0,1.67-2.67,9.69,9.69,0,0,0,0-6.82A7.86,7.86,0,0,0,144,20a7.28,7.28,0,0,0-2.45-1.64,7.62,7.62,0,0,0-3-.59,7.51,7.51,0,0,0-3,.59A7.59,7.59,0,0,0,133.12,20a7.69,7.69,0,0,0-1.68,2.57,9.77,9.77,0,0,0,0,6.85,8.1,8.1,0,0,0,1.71,2.67,7.47,7.47,0,0,0,2.48,1.7A7.35,7.35,0,0,0,138.57,34.39Z"/><path class="cls-1" d="M168.45,46.79a13.74,13.74,0,0,1-5.36-1,12.61,12.61,0,0,1-4.37-3.07,14.85,14.85,0,0,1-2.94-4.9,18.31,18.31,0,0,1-1.09-6.54,18.55,18.55,0,0,1,1.09-6.57,15,15,0,0,1,2.91-4.93,13,13,0,0,1,4.15-3.1,11.28,11.28,0,0,1,4.81-1.08A10.34,10.34,0,0,1,176,19.14q3,3.6,3,10.17v1.11a5.26,5.26,0,0,1-.12,1.12H157.48a17.19,17.19,0,0,0,.87,5.18,12.18,12.18,0,0,0,2.26,4.09,10.41,10.41,0,0,0,3.5,2.66,10.71,10.71,0,0,0,4.59,1,12.56,12.56,0,0,0,4.37-.71,14.14,14.14,0,0,0,3.63-1.95l1.11,2.11a37.88,37.88,0,0,1-3.93,2A13.72,13.72,0,0,1,168.45,46.79Zm-11-17.48h19q0-5.77-2.36-8.59a7.88,7.88,0,0,0-6.38-2.82,8.85,8.85,0,0,0-3.66.78,9.58,9.58,0,0,0-3.13,2.26,12.2,12.2,0,0,0-2.29,3.59A15.74,15.74,0,0,0,157.48,29.31Z"/><path class="cls-1" d="M192.69,46.79a15.22,15.22,0,0,1-6.14-1.21,19.38,19.38,0,0,1-4.77-2.88l1.61-2.05a20.67,20.67,0,0,0,4.09,2.7,12.08,12.08,0,0,0,5.4,1.08,7.2,7.2,0,0,0,5.3-1.76,5.68,5.68,0,0,0,1.76-4.13,4.44,4.44,0,0,0-.65-2.41,6,6,0,0,0-1.7-1.8,13.09,13.09,0,0,0-2.33-1.3c-.85-.37-1.7-.72-2.57-1.06-1.12-.41-2.24-.84-3.38-1.3A14.68,14.68,0,0,1,186.24,29a8,8,0,0,1-2.2-2.3,6,6,0,0,1-.83-3.25,7.82,7.82,0,0,1,.61-3.07,7.11,7.11,0,0,1,1.86-2.54,9.08,9.08,0,0,1,3-1.7,12.27,12.27,0,0,1,4.12-.62,13,13,0,0,1,4.62.86,13.65,13.65,0,0,1,3.88,2.23l-1.49,1.93a16.94,16.94,0,0,0-3.16-1.89,9.34,9.34,0,0,0-4-.78,8.51,8.51,0,0,0-3,.47,6.54,6.54,0,0,0-2.07,1.21,4.57,4.57,0,0,0-1.24,1.73,5.2,5.2,0,0,0-.41,2,4,4,0,0,0,.59,2.21,5.93,5.93,0,0,0,1.58,1.58,12.42,12.42,0,0,0,2.27,1.2c.84.36,1.7.7,2.57,1l3.47,1.36a14.81,14.81,0,0,1,3.13,1.68,7.85,7.85,0,0,1,2.26,2.44,7,7,0,0,1,.87,3.63,7.88,7.88,0,0,1-.65,3.19,7.34,7.34,0,0,1-2,2.67A10.06,10.06,0,0,1,197,46.11,12.52,12.52,0,0,1,192.69,46.79Z"/><path class="cls-1" d="M210.42,9.1a2.49,2.49,0,0,1-1.77-.68,2.34,2.34,0,0,1-.71-1.74,2.39,2.39,0,0,1,.71-1.83,2.73,2.73,0,0,1,3.54,0,2.39,2.39,0,0,1,.71,1.83,2.34,2.34,0,0,1-.71,1.74A2.49,2.49,0,0,1,210.42,9.1ZM209,46.05V16.29h2.73V46.05Z"/><path class="cls-1" d="M228.77,46.79a15.22,15.22,0,0,1-6.14-1.21,19.38,19.38,0,0,1-4.77-2.88l1.61-2.05a20.39,20.39,0,0,0,4.09,2.7A12,12,0,0,0,229,44.43c2.36,0,4.13-.58,5.3-1.76A5.65,5.65,0,0,0,236,38.54a4.53,4.53,0,0,0-.65-2.41,5.86,5.86,0,0,0-1.71-1.8,12.66,12.66,0,0,0-2.32-1.3c-.85-.37-1.7-.72-2.57-1.06-1.12-.41-2.24-.84-3.38-1.3A14.68,14.68,0,0,1,222.32,29a8,8,0,0,1-2.2-2.3,6,6,0,0,1-.84-3.25,7.83,7.83,0,0,1,.62-3.07,7.11,7.11,0,0,1,1.86-2.54,9.08,9.08,0,0,1,3-1.7,12.27,12.27,0,0,1,4.12-.62,13,13,0,0,1,4.62.86,13.46,13.46,0,0,1,3.87,2.23l-1.48,1.93a16.94,16.94,0,0,0-3.16-1.89,9.34,9.34,0,0,0-4-.78,8.51,8.51,0,0,0-3,.47,6.32,6.32,0,0,0-2.07,1.21,4.47,4.47,0,0,0-1.24,1.73,5.2,5.2,0,0,0-.41,2,4,4,0,0,0,.59,2.21,5.79,5.79,0,0,0,1.58,1.58,12.65,12.65,0,0,0,2.26,1.2c.85.36,1.71.7,2.58,1l3.47,1.36a14.81,14.81,0,0,1,3.13,1.68,8,8,0,0,1,2.26,2.44,7,7,0,0,1,.87,3.63,8.05,8.05,0,0,1-.65,3.19,7.46,7.46,0,0,1-1.95,2.67A10.11,10.11,0,0,1,233,46.11,12.42,12.42,0,0,1,228.77,46.79Z"/><path class="cls-1" d="M137.39,110a8.73,8.73,0,0,1-3.59-.65,5.62,5.62,0,0,1-2.29-1.83,7,7,0,0,1-1.21-2.85A18.22,18.22,0,0,1,130,101V81.88h-4.65V79.77l4.71-.25.37-8.62h2.35v8.62h8.62v2.36h-8.62v19.4a14.24,14.24,0,0,0,.22,2.57,5.28,5.28,0,0,0,.78,2,3.73,3.73,0,0,0,1.52,1.3,5.77,5.77,0,0,0,2.51.46,7.15,7.15,0,0,0,1.89-.28,11.14,11.14,0,0,0,1.83-.65l.74,2.23a22.17,22.17,0,0,1-2.6.81A9.76,9.76,0,0,1,137.39,110Z"/><path class="cls-1" d="M147,109.28V79.52h2.36l.25,5.52h.18a14.51,14.51,0,0,1,3.63-4.53,7.45,7.45,0,0,1,4.8-1.73,9,9,0,0,1,1.55.12,5.21,5.21,0,0,1,1.43.5l-.62,2.48a5.93,5.93,0,0,0-1.3-.41,9.36,9.36,0,0,0-1.43-.09,7,7,0,0,0-4.18,1.7A14.24,14.24,0,0,0,149.73,89v20.28Z"/><path class="cls-1" d="M170.25,110a10.94,10.94,0,0,1-3.35-.5,8,8,0,0,1-2.73-1.48,7,7,0,0,1-1.86-2.55,9.07,9.07,0,0,1-.68-3.65,8.16,8.16,0,0,1,4.62-7.53q4.62-2.58,14.6-3.69a22.81,22.81,0,0,0-.25-3.38,8.25,8.25,0,0,0-1-3A6.43,6.43,0,0,0,177.38,82a6.8,6.8,0,0,0-3.6-.84,12.61,12.61,0,0,0-5.45,1.18,25.7,25.7,0,0,0-4,2.3l-1.24-2c.53-.37,1.18-.78,1.95-1.24a17.56,17.56,0,0,1,2.57-1.24,24.58,24.58,0,0,1,3.1-1,14.71,14.71,0,0,1,3.47-.4,9.72,9.72,0,0,1,4.4.9,7.82,7.82,0,0,1,2.92,2.44,10.34,10.34,0,0,1,1.61,3.63,19.36,19.36,0,0,1,.5,4.49v19h-2.36l-.25-3.85h-.18a33.26,33.26,0,0,1-4.93,3.19A11.73,11.73,0,0,1,170.25,110Zm.49-2.36a10.45,10.45,0,0,0,5-1.24,29.13,29.13,0,0,0,5.15-3.59V92.72a63.52,63.52,0,0,0-7.75,1.37A20.36,20.36,0,0,0,168,96a7.38,7.38,0,0,0-2.76,2.54,6.12,6.12,0,0,0-.84,3.16,6.69,6.69,0,0,0,.5,2.73,4.94,4.94,0,0,0,1.36,1.83,5.64,5.64,0,0,0,2,1A8.42,8.42,0,0,0,170.74,107.66Z"/><path class="cls-1" d="M194,72.33a2.49,2.49,0,0,1-1.77-.68,2.34,2.34,0,0,1-.71-1.74,2.39,2.39,0,0,1,.71-1.83,2.73,2.73,0,0,1,3.54,0,2.39,2.39,0,0,1,.71,1.83,2.34,2.34,0,0,1-.71,1.74A2.49,2.49,0,0,1,194,72.33Zm-1.43,37V79.52h2.73v29.76Z"/><path class="cls-1" d="M205.15,109.28V79.52h2.35l.25,4.59h.19a27,27,0,0,1,4.71-3.81,10.09,10.09,0,0,1,5.52-1.52q4.65,0,6.82,2.79c1.44,1.86,2.17,4.73,2.17,8.61v19.1h-2.73V90.55q0-4.77-1.58-7c-1.06-1.51-2.8-2.26-5.24-2.26a8.77,8.77,0,0,0-4.84,1.39,29.47,29.47,0,0,0-4.89,4.19v22.44Z"/><path class="cls-1" d="M237.94,72.33a2.49,2.49,0,0,1-1.77-.68,2.34,2.34,0,0,1-.71-1.74,2.39,2.39,0,0,1,.71-1.83,2.73,2.73,0,0,1,3.54,0,2.39,2.39,0,0,1,.71,1.83,2.34,2.34,0,0,1-.71,1.74A2.49,2.49,0,0,1,237.94,72.33Zm-1.42,37V79.52h2.72v29.76Z"/><path class="cls-1" d="M249.1,109.28V79.52h2.35l.25,4.59h.19a27,27,0,0,1,4.71-3.81,10.09,10.09,0,0,1,5.52-1.52q4.65,0,6.82,2.79c1.44,1.86,2.17,4.73,2.17,8.61v19.1h-2.73V90.55q0-4.77-1.58-7c-1.06-1.51-2.8-2.26-5.24-2.26a8.77,8.77,0,0,0-4.84,1.39,29.88,29.88,0,0,0-4.89,4.19v22.44Z"/><path class="cls-1" d="M290.2,123.6q-5.64,0-8.93-2.24a6.91,6.91,0,0,1-3.28-6,7.12,7.12,0,0,1,1.17-3.84,12.31,12.31,0,0,1,3.23-3.35v-.25a5.51,5.51,0,0,1-1.86-1.86,5.82,5.82,0,0,1,.37-6.29A10.46,10.46,0,0,1,283,97.68v-.24a12,12,0,0,1-2.57-3.35,9.92,9.92,0,0,1-1.15-4.84,10.89,10.89,0,0,1,.8-4.21,9.93,9.93,0,0,1,2.24-3.32,10.2,10.2,0,0,1,3.34-2.17,10.79,10.79,0,0,1,4.1-.77A10.9,10.9,0,0,1,292,79a8.45,8.45,0,0,1,1.67.53h10.11v2.29h-6.95a9.66,9.66,0,0,1,2.36,3.2,9.85,9.85,0,0,1,.93,4.3,10.76,10.76,0,0,1-.81,4.22,10.29,10.29,0,0,1-2.2,3.32A9.88,9.88,0,0,1,293.82,99a10.69,10.69,0,0,1-4.05.77,11.21,11.21,0,0,1-2.58-.31,8.26,8.26,0,0,1-2.38-.93,9.36,9.36,0,0,0-1.71,1.8,4.18,4.18,0,0,0-.71,2.48,3.72,3.72,0,0,0,1.18,2.76c.78.76,2.29,1.14,4.52,1.14h6.39q5,0,7.4,1.65a5.83,5.83,0,0,1,2.39,5.17,7.79,7.79,0,0,1-1,3.75,10.11,10.11,0,0,1-2.82,3.23,14.72,14.72,0,0,1-4.43,2.23A19,19,0,0,1,290.2,123.6Zm.31-2.24a14.65,14.65,0,0,0,4.52-.65,11.88,11.88,0,0,0,3.48-1.7,8,8,0,0,0,2.2-2.39,5.49,5.49,0,0,0,.77-2.76,3.71,3.71,0,0,0-1.77-3.5,10.35,10.35,0,0,0-5.11-1h-6.38c-.34,0-.84,0-1.52-.1a12.68,12.68,0,0,1-2.2-.4,9.7,9.7,0,0,0-3,3,6.39,6.39,0,0,0-.93,3.22,5.27,5.27,0,0,0,2.57,4.53Q285.74,121.36,290.51,121.36Zm-.74-23.74a7.35,7.35,0,0,0,2.94-.59,7.25,7.25,0,0,0,2.45-1.7,8.34,8.34,0,0,0,1.67-2.67,9.69,9.69,0,0,0,0-6.82,7.86,7.86,0,0,0-1.64-2.6,7.18,7.18,0,0,0-2.45-1.64,7.72,7.72,0,0,0-8.43,1.64,7.67,7.67,0,0,0-1.67,2.57,9.77,9.77,0,0,0,0,6.85,8.08,8.08,0,0,0,1.7,2.67,7.47,7.47,0,0,0,2.48,1.7A7.37,7.37,0,0,0,289.77,97.62Z"/><rect class="cls-2" x="70.22" y="15.96" width="36.89" height="14.98"/><rect class="cls-3" x="38.09" y="55.51" width="69.03" height="14.98"/><rect class="cls-4" x="22.48" y="75.29" width="84.64" height="14.98"/><rect class="cls-5" x="55.02" y="35.74" width="52.09" height="14.98"/><rect class="cls-6" x="6.95" y="95.06" width="100.16" height="14.98"/></svg>