<?xml version="1.0" encoding="utf-8"?>
<!-- Generator: Adobe Illustrator 16.0.3, SVG Export Plug-In . SVG Version: 6.00 Build 0)  -->
<!DOCTYPE svg PUBLIC "-//W3C//DTD SVG 1.1//EN" "http://www.w3.org/Graphics/SVG/1.1/DTD/svg11.dtd">
<svg version="1.1" id="Ebene_1" xmlns="http://www.w3.org/2000/svg" xmlns:xlink="http://www.w3.org/1999/xlink" x="0px" y="0px"
	 width="148px" height="100px" viewBox="0 0 118 80" enable-background="new 0 0 118 80" xml:space="preserve">
<g>
	
		<rect x="63.925" y="10.708" transform="matrix(0.7071 0.7071 -0.7071 0.7071 48.0705 -51.0845)" fill="#497593" stroke="#FFFFFF" stroke-miterlimit="10" width="43.557" height="43.559"/>
	<polygon fill="#497593" stroke="#FFFFFF" stroke-miterlimit="10" points="54.902,63.285 39.503,47.883 54.902,32.487 
		70.303,47.883 	"/>
	
		<rect x="59.414" y="52.395" transform="matrix(0.7071 0.7071 -0.7071 0.7071 65.3361 -31.1755)" fill="#EC631D" stroke="#FFFFFF" stroke-miterlimit="10" width="21.778" height="21.78"/>
	
		<rect x="15.468" y="16.152" transform="matrix(0.7072 0.7071 -0.7071 0.7072 32.2826 -12.9722)" fill="#9D9D9C" stroke="#FFFFFF" stroke-miterlimit="10" width="32.667" height="32.67"/>
	
		<rect x="3.256" y="19.342" transform="matrix(0.7071 0.7071 -0.7071 0.7071 20.0762 1.1072)" fill="#497593" stroke="#FFFFFF" stroke-miterlimit="10" width="10.891" height="10.889"/>
	
		<rect x="34.058" y="3.941" transform="matrix(0.7071 0.7071 -0.7071 0.7071 18.2081 -25.1844)" fill="#497593" stroke="#FFFFFF" stroke-miterlimit="10" width="10.891" height="10.89"/>
	
		<rect x="44.013" y="6.199" transform="matrix(0.7071 0.7071 -0.7071 0.7071 28.1659 -33.8177)" fill="#EC631D" stroke="#FFFFFF" stroke-miterlimit="10" width="21.778" height="21.779"/>
	
		<rect x="34.057" y="50.141" transform="matrix(0.707 0.7072 -0.7072 0.707 50.888 -11.6495)" fill="#DADADA" stroke="#FFFFFF" stroke-miterlimit="10" width="10.892" height="10.889"/>
</g>
</svg>
