<?xml version="1.0" encoding="utf-8"?>
<!-- Generator: Adobe Illustrator 16.0.3, SVG Export Plug-In . SVG Version: 6.00 Build 0)  -->
<!DOCTYPE svg PUBLIC "-//W3C//DTD SVG 1.1//EN" "http://www.w3.org/Graphics/SVG/1.1/DTD/svg11.dtd">
<svg version="1.1" id="Ebene_1" xmlns="http://www.w3.org/2000/svg" xmlns:xlink="http://www.w3.org/1999/xlink" x="0px" y="0px"
	 width="200px" height="100px" viewBox="0 0 200 100" enable-background="new 0 0 200 100" xml:space="preserve">
<g>
	
		<rect x="25.714" y="60.915" transform="matrix(-0.966 -0.2584 0.2584 -0.966 38.2011 130.8163)" fill="#50748F" width="3.968" height="3.965"/>
	
		<rect x="25.714" y="35.12" transform="matrix(-0.2586 -0.966 0.966 -0.2586 -0.981 73.4551)" fill="#50748F" width="3.969" height="3.968"/>
	
		<rect x="70.388" y="35.12" transform="matrix(0.966 0.2584 -0.2584 0.966 12.0472 -17.4426)" fill="#50748F" width="3.968" height="3.968"/>
	
		<rect x="48.051" y="73.811" transform="matrix(-0.7075 -0.7067 0.7067 -0.7075 31.8667 164.7797)" fill="#50748F" width="3.968" height="3.967"/>
	
		<rect x="48.052" y="22.224" transform="matrix(0.7075 -0.7067 0.7067 0.7075 -2.4744 42.4396)" fill="#50748F" width="3.968" height="3.97"/>
	<path fill="#50748F" d="M0,0v100h200V0H0z M67.979,45.566l-1.027,3.832L58.82,47.22L54.002,50l4.818,2.78l8.131-2.179l1.027,3.834
		l-4.3,1.153l5.329,3.074l6.775-1.814l2.567,9.581l-9.584,2.569L66.9,62.028l-5.118-2.953l1.152,4.294L59.1,64.4l-2.188-8.133
		L52,53.438v5.561l5.961,5.952l-2.812,2.805L52,64.611v6.153l4.969,4.958l-7.009,7.015l-7.038-7.015L48,70.622v-5.91l-3.121,3.145
		l-2.818-2.805L48,59.1v-5.661l-4.791,2.78l-2.167,8.134l-3.826-1.032l1.156-4.293l-5.328,3.074l-1.814,6.772l-9.582-2.565
		l2.57-9.581l6.968,1.866l5.117-2.956l-4.295-1.15l1.025-3.835l8.132,2.181L46.067,50l-4.902-2.829l-8.132,2.178l-1.025-3.835
		l4.295-1.149l-5.117-2.953l-6.968,1.866l-2.569-9.584l9.582-2.569l1.815,6.778l5.329,3.076l-1.152-4.297l3.832-1.028l2.154,8.131
		L48,46.564v-5.662l-5.926-5.952l2.791-2.808L48,35.291v-5.91l-5.076-5.102l7.028-7.016l7.01,7.016L52,29.239v6.15l3.154-3.146
		l2.802,2.807L52,41.001v5.563l4.911-2.83l2.184-8.132l3.837,1.027l-1.15,4.298l5.118-2.956l1.867-6.967l9.584,2.567l-2.567,9.58
		l-6.775-1.813l-5.329,3.074L67.979,45.566z M196,95h-91V5h91V95z"/>
	
		<rect x="70.388" y="60.913" transform="matrix(0.2584 0.966 -0.966 0.2584 114.4299 -23.2707)" fill="#50748F" width="3.968" height="3.969"/>
</g>
<path fill="#50748F" d="M149.954,19.984c4.652,0,8.426,3.772,8.426,8.426c0,4.653-3.773,8.426-8.426,8.426
	c-4.654,0-8.427-3.772-8.427-8.426C141.527,23.756,145.3,19.984,149.954,19.984"/>
<path fill="#50748F" d="M141.527,47.446c-1.122,0.563-2.977,5.448-1.96,6.11l-5.471-1.008c3.724-1.348,4.469-3.602,4.771-7.708
	l-0.289-2.556c1.222-1.016,3.031-3.263,4.634-3.263h13.479c1.638,0,3.078,0.695,4.319,1.752l0.789,2.906
	c0,3.433,2.618,4.467,5.35,6.13l-3.822-0.081c-0.994-0.034-1.915,0.188-2.762,0.596c-0.717-1.234-1.603-2.587-2.187-2.879
	l0.188,4.265c-3.566,3.275-5.35,9.456-5.35,9.456l-0.618,3.061l-1.804,0.069c-1.212,0-2.403-0.094-3.563-0.277
	c-0.925-2.455-2.938-6.887-6.044-8.95L141.527,47.446z"/>
<path fill="#50748F" d="M128.995,35.703c4.651,0,8.426,3.772,8.426,8.426s-3.774,8.427-8.426,8.427
	c-4.653,0-8.424-3.773-8.424-8.427S124.342,35.703,128.995,35.703"/>
<path fill="#50748F" d="M120.571,63.164c-1.124,0.562-3.373,5.056-3.373,5.056s-1.123,1.686-1.683,8.424l-5.057-1.683l1.687-8.428
	c0,0,3.37-11.793,10.11-11.793h13.479c6.741,0,10.112,11.793,10.112,11.793l1.685,8.428l-5.056,1.683
	c-0.561-6.738-1.685-8.424-1.685-8.424s-2.248-4.494-3.37-5.056l0.679,15.304c-2.559,0.998-5.348,1.548-8.264,1.548
	c-3.552,0-6.914-0.816-9.912-2.268L120.571,63.164z"/>
<path fill="#50748F" d="M171.648,32.515c4.653,0.166,8.426,4.071,8.426,8.725c0,4.654-3.772,8.291-8.426,8.127
	c-4.653-0.166-8.426-4.074-8.426-8.726C163.223,35.987,166.995,32.349,171.648,32.515"/>
<path fill="#50748F" d="M163.223,59.678c-1.124,0.52-3.371,4.931-3.371,4.931s-1.121,1.648-1.685,8.368l-5.053-1.866l1.683-8.365
	c0,0,3.37-11.676,10.11-11.435l13.482,0.479c6.737,0.239,10.11,12.157,10.11,12.157l1.683,8.482l-5.056,1.506
	c-0.561-6.762-1.685-8.486-1.685-8.486s-2.247-4.573-3.368-5.173l0.682,15.325c-2.563,0.907-5.353,1.36-8.267,1.253
	c-3.552-0.124-6.916-1.06-9.911-2.617L163.223,59.678z"/>
</svg>
