<?xml version="1.0" encoding="utf-8"?>
<!-- Generator: Adobe Illustrator 27.3.1, SVG Export Plug-In . SVG Version: 6.00 Build 0)  -->
<svg version="1.1" id="Ebene_1" xmlns="http://www.w3.org/2000/svg" xmlns:xlink="http://www.w3.org/1999/xlink" x="0px" y="0px"
	 viewBox="0 0 174.135 89.003" enable-background="new 0 0 174.135 89.003" xml:space="preserve">
<g>
	<defs>
		<rect id="SVGID_1_" x="11.448" y="11.357" width="159.26" height="73.367"/>
	</defs>
	<clipPath id="SVGID_00000097485027409694931080000014833068669249593767_">
		<use xlink:href="#SVGID_1_"  overflow="visible"/>
	</clipPath>
	<path clip-path="url(#SVGID_00000097485027409694931080000014833068669249593767_)" fill="#FFFFFF" d="M53.496,28.49
		c8.211,0,14.868-3.695,14.868-8.254c0-4.558-6.657-8.254-14.868-8.254c-8.211,0-14.868,3.696-14.868,8.254
		C38.627,24.794,45.285,28.49,53.496,28.49"/>
	
		<path clip-path="url(#SVGID_00000097485027409694931080000014833068669249593767_)" fill="none" stroke="#B1B3B3" stroke-width="1.25" d="
		M53.496,28.49c8.211,0,14.868-3.695,14.868-8.254c0-4.558-6.657-8.254-14.868-8.254c-8.211,0-14.868,3.696-14.868,8.254
		C38.627,24.794,45.285,28.49,53.496,28.49z"/>
	<path clip-path="url(#SVGID_00000097485027409694931080000014833068669249593767_)" fill="#FFFFFF" d="M31.784,77.721
		c8.211,0,14.868-3.695,14.868-8.254s-6.657-8.254-14.868-8.254c-8.211,0-14.868,3.695-14.868,8.254S23.573,77.721,31.784,77.721"/>
	
		<path clip-path="url(#SVGID_00000097485027409694931080000014833068669249593767_)" fill="none" stroke="#B1B3B3" stroke-width="1.25" d="
		M31.784,77.721c8.211,0,14.868-3.695,14.868-8.254s-6.657-8.254-14.868-8.254c-8.211,0-14.868,3.695-14.868,8.254
		S23.573,77.721,31.784,77.721z"/>
	<path clip-path="url(#SVGID_00000097485027409694931080000014833068669249593767_)" fill="#FFFFFF" d="M43.122,54.022
		c8.211,0,14.868-3.694,14.868-8.254c0-4.558-6.657-8.254-14.868-8.254c-8.211,0-14.868,3.696-14.868,8.254
		C28.254,50.328,34.912,54.022,43.122,54.022"/>
	
		<path clip-path="url(#SVGID_00000097485027409694931080000014833068669249593767_)" fill="none" stroke="#B1B3B3" stroke-width="1.25" d="
		M43.122,54.022c8.211,0,14.868-3.694,14.868-8.254c0-4.558-6.657-8.254-14.868-8.254c-8.211,0-14.868,3.696-14.868,8.254
		C28.254,50.328,34.912,54.022,43.122,54.022z"/>
	<path clip-path="url(#SVGID_00000097485027409694931080000014833068669249593767_)" fill="#497593" d="M44.324,75.718
		c-8.678-6.263-20.26-7.921-30.612-10.817c-2.793-0.781-0.309-3.436,1.892-2.821c11.108,3.107,23.042,5.005,32.344,11.719
		C49.922,75.222,45.937,76.882,44.324,75.718"/>
	<path clip-path="url(#SVGID_00000097485027409694931080000014833068669249593767_)" fill="#497593" d="M43.014,59.57
		c-9.301,8.127-17.76,17.018-27.505,24.733c-1.573,1.246-5.465-0.523-3.534-2.052c9.745-7.717,18.203-16.605,27.505-24.733
		C40.989,56.2,44.87,57.948,43.014,59.57"/>
	<path clip-path="url(#SVGID_00000097485027409694931080000014833068669249593767_)" fill="#EC6608" d="M168.151,27.182h-10.344
		c-6.195,0-12.049,2.955-12.049,11.253c0,9.548,14.265,12.958,14.265,17.164c0,1.478-1.421,2.159-3.694,2.159h-10.287v9.207h10.629
		c12.73,0,14.037-6.82,14.037-11.936c0-9.32-14.833-13.64-14.833-16.992c0-1.194,1.023-1.649,2.273-1.649h10.003V27.182z
		 M141.325,27.182h-5.627c-10.684,0-18.186,8.866-18.186,19.891c0,11.026,7.502,19.893,18.186,19.893h5.627v-9.207
		c-8.923,0-10.628-0.568-13.242-6.365h13.242v-8.639h-13.242c2.5-5.342,4.092-6.365,13.242-6.365V27.182z M115.013,57.417h-6.764
		c-3.979,0-5.059-0.966-5.059-4.205v-26.03h-9.889v26.94c0,9.207,4.547,12.844,14.151,12.844h7.56V57.417z M84.833,32.865
		C80.457,28.943,74.717,26.5,68.294,26.5c-11.31,0-20.233,9.434-20.233,20.572c0,11.141,8.923,20.574,20.233,20.574
		c12.504,0,20.29-10.229,20.29-21.142v-4.206H67.84v8.979h9.946c-1.308,3.865-5.456,6.82-8.753,6.82
		c-6.195,0-10.628-4.773-10.628-11.139c0-5.911,3.694-10.912,10.401-10.912c3.808,0,5.967,1.023,9.093,3.694L84.833,32.865z"/>
</g>
</svg>
