<?xml version="1.0" encoding="utf-8"?>
<!-- Generator: Adobe Illustrator 16.0.3, SVG Export Plug-In . SVG Version: 6.00 Build 0)  -->
<!DOCTYPE svg PUBLIC "-//W3C//DTD SVG 1.1//EN" "http://www.w3.org/Graphics/SVG/1.1/DTD/svg11.dtd">
<svg version="1.1" id="Ebene_1" xmlns="http://www.w3.org/2000/svg" xmlns:xlink="http://www.w3.org/1999/xlink" x="0px" y="0px"
	 width="150px" height="113px" viewBox="0 -32.34 150 113" enable-background="new 0 -32.34 150 113" xml:space="preserve">
<g id="Ebene_1_1_">
</g>
<g>
	<path fill="#930067" d="M64.287,14.913c-1.291,0-2.488,0.219-3.58,0.641c-1.091,0.423-2.023,1.045-2.804,1.859
		c-0.788,0.813-1.396,1.818-1.832,3.016c-0.444,1.192-0.662,2.561-0.662,4.095c0,1.529,0.198,2.87,0.602,4.022
		c0.403,1.159,0.972,2.124,1.726,2.895c0.748,0.775,1.661,1.365,2.739,1.755c1.079,0.397,2.302,0.596,3.671,0.596
		c0.986,0,1.984-0.081,3.01-0.232c1.018-0.157,1.971-0.383,2.865-0.679v4.087c-0.906,0.256-1.879,0.461-2.924,0.612
		c-1.045,0.147-2.13,0.22-3.254,0.22c-2.197,0-4.127-0.312-5.795-0.939c-1.666-0.627-3.062-1.508-4.18-2.654
		c-1.118-1.143-1.958-2.512-2.52-4.106c-0.562-1.602-0.84-3.36-0.84-5.287c0-1.971,0.298-3.81,0.899-5.502
		c0.602-1.694,1.468-3.156,2.6-4.4c1.131-1.237,2.547-2.216,4.24-2.923c1.699-0.716,3.625-1.071,5.768-1.085
		c1.099,0,2.137,0.072,3.122,0.224c0.979,0.145,1.866,0.357,2.652,0.629v4.028c-1.031-0.325-1.997-0.55-2.891-0.675
		C66.012,14.98,65.14,14.913,64.287,14.913z"/>
	<polygon fill="#930067" points="79.62,33.344 92.366,33.344 92.366,37.319 74.87,37.319 74.87,11.387 91.671,11.387 91.671,15.363 
		79.62,15.363 79.62,22.063 89.965,22.063 89.965,26.038 79.62,26.038 	"/>
	<path fill="#930067" d="M112.264,18.206c-0.503,2.422-1.085,4.916-1.747,7.482l-2.905,11.631h-4.729l-8.236-25.932h5.054
		l3.123,10.333c0.944,3.241,1.706,6.173,2.289,8.798h0.111c0.569-2.817,1.231-5.711,1.978-8.665l2.673-10.466h4.889l2.672,10.466
		c0.747,2.93,1.408,5.818,1.978,8.665h0.112c0.714-3.102,1.475-6.032,2.289-8.798l3.124-10.333h5.053l-8.235,25.932h-4.729
		l-2.905-11.631c-0.662-2.619-1.244-5.112-1.745-7.482H112.264z"/>
	<path fill="#930067" d="M145.111,29.876c0-0.662-0.157-1.192-0.482-1.603c-0.323-0.403-0.761-0.74-1.316-0.998
		c-0.554-0.259-1.177-0.463-1.872-0.627c-0.687-0.16-1.415-0.317-2.176-0.478c-1.012-0.217-1.97-0.475-2.891-0.78
		c-0.913-0.304-1.727-0.727-2.421-1.264c-0.694-0.534-1.25-1.216-1.667-2.044c-0.409-0.826-0.623-1.859-0.623-3.096
		c0-1.374,0.24-2.566,0.722-3.577c0.477-1.014,1.125-1.853,1.946-2.522c0.819-0.662,1.785-1.163,2.89-1.489
		c1.104-0.329,2.347-0.495,3.731-0.495c1.382,0,2.771,0.132,4.159,0.403c1.396,0.271,2.6,0.622,3.605,1.052v4.068
		c-1.342-0.529-2.633-0.914-3.862-1.159c-1.238-0.237-2.396-0.355-3.481-0.355c-1.56,0-2.765,0.284-3.611,0.852
		c-0.847,0.569-1.271,1.421-1.271,2.558c0,0.664,0.14,1.205,0.417,1.63c0.279,0.422,0.656,0.78,1.133,1.057
		c0.477,0.278,1.023,0.496,1.647,0.668c0.621,0.165,1.282,0.325,1.976,0.462c1.099,0.233,2.151,0.504,3.149,0.808
		c0.999,0.305,1.893,0.721,2.667,1.271c0.773,0.541,1.389,1.244,1.838,2.115c0.457,0.876,0.682,1.994,0.682,3.349
		c0,1.394-0.258,2.597-0.775,3.624c-0.522,1.021-1.25,1.858-2.201,2.527c-0.947,0.662-2.106,1.157-3.46,1.484
		c-1.356,0.321-2.845,0.481-4.458,0.481c-1.41,0-2.792-0.138-4.155-0.419c-1.361-0.276-2.498-0.666-3.4-1.169v-4.008
		c1.276,0.556,2.528,0.959,3.738,1.211c1.218,0.25,2.467,0.377,3.764,0.377c0.747,0,1.481-0.06,2.202-0.187
		c0.728-0.125,1.376-0.331,1.952-0.626c0.575-0.297,1.039-0.704,1.382-1.211C144.94,31.251,145.111,30.625,145.111,29.876z"/>
	<path fill-rule="evenodd" clip-rule="evenodd" fill="#597490" d="M58.874-32.34c13.37,0.667,25.508,6.014,34.811,14.438
		L73.631,2.215c-4.103-3.365-9.186-5.58-14.758-6.145V-32.34L58.874-32.34z M53.202-3.929c-5.447,0.553-10.43,2.682-14.486,5.923
		L18.513-18.01C27.8-26.371,39.89-31.678,53.202-32.34V-3.929L53.202-3.929z M34.667,5.967L14.492-14.009
		C6.037-4.699,0.667,7.465,0,20.863h28.412C28.984,15.229,31.239,10.094,34.667,5.967L34.667,5.967z M28.411,26.535
		c1.421,14.003,13.25,24.933,27.626,24.933c7.297,0,13.935-2.818,18.892-7.421l33.359,0.132
		c-8.186,20.856-28.495,35.628-52.25,35.628C26.006,79.807,1.479,56.2,0,26.535H28.411z"/>
</g>
</svg>
