<?xml version="1.0" encoding="utf-8"?>
<!-- Generator: Adobe Illustrator 16.0.3, SVG Export Plug-In . SVG Version: 6.00 Build 0)  -->
<!DOCTYPE svg PUBLIC "-//W3C//DTD SVG 1.1//EN" "http://www.w3.org/Graphics/SVG/1.1/DTD/svg11.dtd">
<svg version="1.1" id="allbusrot_xA0_Bild_1_" xmlns="http://www.w3.org/2000/svg" xmlns:xlink="http://www.w3.org/1999/xlink"
	 x="0px" y="0px" width="300px" height="86.167px" viewBox="0 0 300 86.167" enable-background="new 0 0 300 86.167"
	 xml:space="preserve">
<path fill-rule="evenodd" clip-rule="evenodd" fill="#C20E1A" d="M215.959,50.861c3.945-4.759,7.293-7.934,9.589-11.743
	c4.373-7.244,8.421-14.722,12.037-22.37c1.497-3.169,2.803-5.147,6.544-4.417c4.012,0.786,3.933,3.723,4.142,6.911
	c0.571,8.827,0.433,17.892,2.594,26.349c1.181,4.611,3.686,8.933,2.923,13.893c-0.265,1.71-1.427,4.257-2.667,4.587
	c-1.506,0.405-4.485-0.646-5.15-1.929c-2.203-4.285-4.072-8.854-5.28-13.516c-1.073-4.146-1.101-8.568-1.793-14.662
	c-3.562,5.649-6.038,10.153-9.078,14.239c-2.537,3.406-5.446,6.66-8.69,9.379c-6.053,5.071-9.64,2.398-11.807-3.253
	c-2.305-6.009-3.159-12.721-3.764-19.212c-0.827-8.838-0.93-17.755-1.089-26.641c-0.036-2.361,0.563-4.868,1.502-7.037
	c0.376-0.867,3.203-1.75,3.625-1.332c1.711,1.708,4.007,3.853,4.132,5.951c0.442,7.578,0.057,15.201,0.057,22.805
	c-0.005,4.941-0.005,9.886,0.236,14.817C214.109,45.428,214.922,47.144,215.959,50.861z"/>
<path fill-rule="evenodd" clip-rule="evenodd" fill="#C20E1A" d="M262.177,82.838c-3.982,0-7.972,0.12-11.949-0.041
	c-3.166-0.131-6.382-4.593-4.848-7.168c0.738-1.236,3.881-2.235,5.284-1.687c11.429,4.476,22.087,2.105,32.461-3.11
	c4.806-2.417,5.062-6.981,3.913-11.373c-1.938-7.418-4.546-14.655-6.609-22.044c-2.453-8.783-4.978-17.801,1.905-25.76
	c2.398-2.777,5.643-5.915,8.919-6.489c2.469-0.43,6.689,2.324,8.172,4.82c1.868,3.158-1.13,4.934-4.452,5.282
	c-6.494,0.682-8.213,5.845-7.679,10.66c0.822,7.348,3.282,14.515,5.02,21.763c1.302,5.443,3.318,10.843,3.672,16.351
	c0.553,8.729-6.405,16.374-15.139,17.574c-6.182,0.845-12.423,1.282-18.638,1.9C262.2,83.29,262.187,83.061,262.177,82.838z"/>
<path fill-rule="evenodd" clip-rule="evenodd" fill="#C20E1A" d="M80.628,60.092c9.445,0,17.367-0.121,25.282,0.098
	c1.578,0.042,3.119,1.357,4.678,2.087c-1.274,1.167-2.389,3.045-3.848,3.37c-6.426,1.418-12.954,2.371-19.438,3.528
	c-1.476,0.265-2.996,0.498-4.374,1.046c-7.237,2.881-10.658,1.088-11.225-6.442c-1.048-13.999-1.978-28.005-2.619-42.026
	c-0.142-3.116-1.618-8.152,4.143-8.057c5.134,0.083,5.891,4.064,5.999,8.482C79.531,34.676,80.128,47.167,80.628,60.092z"/>
<path fill-rule="evenodd" clip-rule="evenodd" fill="#C20E1A" d="M112.329,44.843c-2.638,0-5.306-0.247-7.91,0.046
	c-6.933,0.781-10.363-1.167-9.879-7.964c0.625-8.778,2.789-17.464,4.678-26.105c0.19-0.869,3.318-1.938,4.613-1.506
	c1.545,0.518,3.679,2.577,3.646,3.923c-0.107,4.295-0.625,8.708-1.841,12.821c-3.123,10.571-1.654,12.239,9.349,10.162
	c2.482-0.469,5.238-0.409,7.681,0.184c1.257,0.302,2.928,2.331,2.896,3.537c-0.03,1.12-1.903,2.726-3.27,3.172
	c-3.2,1.032-6.586,1.492-9.896,2.185C112.373,45.145,112.35,44.991,112.329,44.843z"/>
<path fill-rule="evenodd" clip-rule="evenodd" fill="#C20E1A" d="M189.986,40.706c-4.479-3.072-10.043-4.676-15.291-6.486
	c-3.244-1.118-6.758-1.462-11.661-2.459c7.58-2.687,13.437-5.001,19.446-6.819c4.979-1.503,9.217-4.324,9.39-9.379
	c0.166-4.941-4.704-7.104-8.985-7.971c-11.987-2.431-24.062-4.432-36.108-6.549c-0.686-0.121-1.506,0.114-2.178,0.395
	c-3.198,1.336-6.365,2.745-10.014,4.334c-1.025,3.682-0.189,6.642,4.755,7.882c1.308,0.328,3.102,2.44,3.093,3.723
	c-0.089,12.349-0.369,24.703-0.959,37.038c-0.128,2.678-1.713,5.285-2.84,8.539c0.616,1.594,1.232,4.43,2.729,6.679
	c1.334,2.007,3.637,3.369,5.515,5.02c1.116-1.403,2.062-2.998,3.396-4.142c1.264-1.087,2.85-2.082,4.447-2.454
	c10.639-2.458,21.553-4.039,31.871-7.427c3.918-1.288,7.915-6.163,9.188-10.239C196.555,47.905,192.947,42.737,189.986,40.706z
	 M153.487,15.643c0.256-1.32,1.957-3.409,2.942-3.372c7.549,0.285,15.077,1.011,22.616,1.599c0.069,0.89,0.135,1.778,0.205,2.668
	c-8.307,2.402-16.616,4.808-25.898,7.495C153.353,20.767,153.014,18.127,153.487,15.643z M183.749,52.083
	c-7.733,2.208-15.556,4.128-23.402,5.931c-2.518,0.581-5.19,0.511-8.346,0.79c0-6.321,0-12.586,0-19.205
	c10.89,0.939,21.636,1.097,31.405,6.293c1.227,0.651,2.249,1.673,3.368,2.523C185.776,49.681,185.004,51.726,183.749,52.083z"/>
<path fill-rule="evenodd" clip-rule="evenodd" fill="#C20E1A" d="M52.333,57.317c-1.547-4.011-0.978-6.219,3.395-7.479
	c2.654-0.762,5.059-2.398,7.578-3.639c-0.213-0.721-0.425-1.441-0.636-2.156c-2.626,0-5.345-0.433-7.862,0.092
	c-4.313,0.902-6.165-0.817-7.381-4.766c-2.981-9.679-6.007-19.367-9.644-28.807c-1.183-3.067-3.948-5.863-6.656-7.904
	c-2.312-1.743-5.094-1.517-5.438,2.656c-0.277,3.351-0.195,6.981-1.494,9.951c-5.852,13.396-12.275,26.542-18.21,39.9
	C3.556,60.636,1.471,66.33,0.049,72.12c-0.395,1.618,1.683,4.755,3.447,5.764c2.342,1.343,4.343,0.298,5.045-3.161
	c0.739-3.616,2.531-7.064,4.176-10.429c0.769-1.576,2.052-3.612,3.5-4.012c7.404-2.063,14.936-3.653,22.421-5.424
	c3.537-0.836,5.405,1.027,6.395,4.063c2.375,7.288,4.71,14.585,6.963,21.91c1.331,4.322,3.974,6.089,8.938,5.043
	c-0.217-2.101-0.091-4.03-0.652-5.735C57.763,72.488,55.23,64.833,52.333,57.317z M35.237,46.13
	c-4.38,0.958-8.921,1.185-14.155,1.775c3.933-7.734,7.39-14.526,11.239-22.093c2.193,5.829,4.38,11.004,5.944,16.363
	C38.556,43.174,36.541,45.846,35.237,46.13z"/>
</svg>
