<?xml version="1.0" encoding="utf-8"?>
<!-- Generator: Adobe Illustrator 16.0.3, SVG Export Plug-In . SVG Version: 6.00 Build 0)  -->
<!DOCTYPE svg PUBLIC "-//W3C//DTD SVG 1.1//EN" "http://www.w3.org/Graphics/SVG/1.1/DTD/svg11.dtd">
<svg version="1.1" id="Layer_1" xmlns="http://www.w3.org/2000/svg" xmlns:xlink="http://www.w3.org/1999/xlink" x="0px" y="0px"
	 width="32px" height="32px" viewBox="117.447 117.448 32 32" enable-background="new 117.447 117.448 32 32" xml:space="preserve">
<path id="Blue_1_" fill="#3C5A99" d="M147.681,149.448c0.975,0,1.766-0.791,1.766-1.766v-28.468c0-0.976-0.791-1.766-1.766-1.766
	h-28.468c-0.976,0-1.766,0.791-1.766,1.766v28.468c0,0.975,0.791,1.766,1.766,1.766H147.681z"/>
<path id="f" fill="#FFFFFF" d="M139.527,149.448v-12.393h4.158l0.623-4.829h-4.781v-3.083c0-1.398,0.388-2.351,2.393-2.351
	l2.557-0.001v-4.319c-0.441-0.059-1.959-0.19-3.726-0.19c-3.687,0-6.212,2.25-6.212,6.384v3.562h-4.17v4.829h4.17v12.393H139.527z"
	/>
</svg>
