<?xml version="1.0" encoding="UTF-8"?>
<svg width="122" height="50" enable-background="new 0 0 270 50" version="1.1" viewBox="0 0 122 50" xml:space="preserve" xmlns="http://www.w3.org/2000/svg" xmlns:cc="http://creativecommons.org/ns#" xmlns:dc="http://purl.org/dc/elements/1.1/" xmlns:rdf="http://www.w3.org/1999/02/22-rdf-syntax-ns#"><metadata><rdf:RDF><cc:Work rdf:about=""><dc:format>image/svg+xml</dc:format><dc:type rdf:resource="http://purl.org/dc/dcmitype/StillImage"/><dc:title/></cc:Work></rdf:RDF></metadata>


	
		<g fill="#57738f">
			<path d="m36.776 11.083c0-1.761 1.219-7.314 6.974-7.314 5.756 0 6.569 4.538 6.569 7.314zm18.148 19.502c-1.896 0.475-2.98 0.949-5.891 0.949-9.955 0-12.393-10.361-12.393-17.471h18.894c0-2.643 0-13.002-11.444-13.002-9.414 0-13.071 6.703-13.071 15.914 0 11.852 6.3 17.809 15.916 17.809 3.655 0 5.347-0.541 7.99-1.285v-2.914z" clip-rule="evenodd" fill-rule="evenodd"/>
			<path d="m78.961 2.212c-1.287-0.271-4.133-1.15-7.517-1.15-7.313 0-11.039 3.249-11.039 8.802 0 5.485 4.672 7.178 8.737 9.55 3.792 2.234 6.907 3.52 6.907 6.771 0 3.656-3.047 5.214-6.772 5.214-4.2 0-8.33-2.643-9.007-3.049v5.08c1.557 0.609 4.334 1.354 8.737 1.354 8.464 0 12.053-4.537 12.053-9.549 0-4.536-2.439-6.77-5.551-8.599-5.622-3.386-10.294-4.47-10.294-8.329 0-2.643 2.64-3.861 5.552-3.861 3.791 0 7.109 1.964 8.194 2.573z"/>
			<rect x="88.188" y="1.805" width="5.01" height="32.235"/>
			<path d="m119.4 2.212c-1.288-0.271-4.131-1.15-7.516-1.15-7.314 0-11.04 3.249-11.04 8.802 0 5.485 4.673 7.178 8.736 9.55 3.793 2.234 6.906 3.52 6.906 6.771 0 3.656-3.047 5.214-6.771 5.214-4.198 0-8.329-2.643-9.006-3.049v5.08c1.557 0.609 4.333 1.354 8.736 1.354 8.464 0 12.054-4.537 12.054-9.549 0-4.536-2.438-6.77-5.552-8.599-5.622-3.386-10.295-4.47-10.295-8.329 0-2.643 2.641-3.861 5.553-3.861 3.792 0 7.111 1.964 8.195 2.573z"/>
			<path d="m19.491 30.632c-1.491 1.658-3.728 3.348-6.628 3.348-8.196-1e-3 -12.863-7.789-12.863-16.794 0-9.007 4.871-16.186 12.66-16.186 3.412 0 5.498 1.455 6.826 3.109v-2.35h5.013v32.437c0 9.818-5.013 14.289-14.832 14.289-3.455 0-6.299-0.541-8.397-1.219v-5.553c2.776 1.557 5.62 3.047 9.413 3.047 8.803 0 8.803-8.533 8.803-10.904zm-14.174-13.176c0-5.62 1.626-13.508 6.976-13.508 5.688 0 7.854 7.752 7.854 13.508 0 6.027-2.301 13.577-7.787 13.577-5.349-1e-3 -7.043-8.025-7.043-13.577" clip-rule="evenodd" fill-rule="evenodd"/>
		</g>
	


</svg>
