<?xml version="1.0" encoding="utf-8"?>
<!-- Generator: Adobe Illustrator 16.0.3, SVG Export Plug-In . SVG Version: 6.00 Build 0)  -->
<!DOCTYPE svg PUBLIC "-//W3C//DTD SVG 1.1//EN" "http://www.w3.org/Graphics/SVG/1.1/DTD/svg11.dtd">
<svg version="1.1"
	 id="svg3626" xmlns:svg="http://www.w3.org/2000/svg" xmlns:rdf="http://www.w3.org/1999/02/22-rdf-syntax-ns#" xmlns:cc="http://creativecommons.org/ns#" xmlns:dc="http://purl.org/dc/elements/1.1/"
	 xmlns="http://www.w3.org/2000/svg" xmlns:xlink="http://www.w3.org/1999/xlink" x="0px" y="0px" width="32px" height="32px"
	 viewBox="134 106.094 32 32" enable-background="new 134 106.094 32 32" xml:space="preserve">
<path fill="#1DA1F2" d="M165.001,106.094h-30.002c-0.553,0-0.999,0.457-0.999,1.02v29.958c0,0.566,0.446,1.022,0.999,1.022h30.002
	c0.552,0,0.999-0.456,0.999-1.022v-29.958C166,106.55,165.553,106.094,165.001,106.094z"/>
<g id="layer1" transform="translate(-539.17946,-568.85777)">
	<path id="path3611" fill="#FFFFFF" d="M684.517,701.164c9.485,0,14.67-7.857,14.67-14.671c0-0.224-0.004-0.446-0.014-0.667
		c1.006-0.728,1.883-1.636,2.572-2.67c-0.924,0.411-1.918,0.687-2.961,0.812c1.064-0.638,1.881-1.648,2.268-2.852
		c-0.996,0.591-2.1,1.02-3.275,1.251c-0.941-1.002-2.279-1.629-3.764-1.629c-2.848,0-5.157,2.31-5.157,5.156
		c0,0.405,0.045,0.798,0.134,1.176c-4.286-0.215-8.086-2.268-10.629-5.388c-0.443,0.762-0.698,1.647-0.698,2.592
		c0,1.789,0.91,3.369,2.295,4.292c-0.846-0.026-1.641-0.258-2.335-0.645c-0.001,0.022-0.001,0.043-0.001,0.066
		c0,2.497,1.777,4.583,4.137,5.055c-0.434,0.118-0.889,0.182-1.36,0.182c-0.332,0-0.655-0.032-0.969-0.093
		c0.657,2.049,2.56,3.539,4.817,3.581c-1.765,1.384-3.988,2.208-6.405,2.208c-0.416,0-0.826-0.023-1.23-0.072
		C678.895,700.311,681.605,701.164,684.517,701.164"/>
</g>
</svg>
