<?xml version="1.0" encoding="utf-8"?>
<!-- Generator: Adobe Illustrator 16.0.3, SVG Export Plug-In . SVG Version: 6.00 Build 0)  -->
<!DOCTYPE svg PUBLIC "-//W3C//DTD SVG 1.1//EN" "http://www.w3.org/Graphics/SVG/1.1/DTD/svg11.dtd">
<svg version="1.1" id="Ebene_1" xmlns="http://www.w3.org/2000/svg" xmlns:xlink="http://www.w3.org/1999/xlink" x="0px" y="0px"
	 width="100px" height="100px" viewBox="0 0 100 100" enable-background="new 0 0 100 100" xml:space="preserve">
<path fill="#FFFFFF" d="M50,5.613c-9.078,0-16.438,7.361-16.438,16.44c0,9.079,7.36,16.439,16.438,16.439
	c9.08,0,16.438-7.36,16.438-16.439C66.438,12.974,59.08,5.613,50,5.613z M33.562,61.508l-1.259,28.455
	c5.846,2.832,12.408,4.424,19.34,4.424c5.69,0,11.128-1.07,16.126-3.018l-1.33-29.861c2.194,1.098,6.579,9.865,6.579,9.865
	s2.189,3.285,3.284,16.438l9.864-3.289L82.88,68.084c0,0-6.578-23.016-19.729-23.015H36.848
	c-13.15-0.001-19.727,23.015-19.727,23.015l-3.287,16.438l9.864,3.289c1.096-13.152,3.287-16.439,3.287-16.439
	S31.369,62.605,33.562,61.508z"/>
</svg>
