<?xml version="1.0" encoding="utf-8"?>
<!-- Generator: Adobe Illustrator 16.0.3, SVG Export Plug-In . SVG Version: 6.00 Build 0)  -->
<!DOCTYPE svg PUBLIC "-//W3C//DTD SVG 1.1//EN" "http://www.w3.org/Graphics/SVG/1.1/DTD/svg11.dtd">
<svg version="1.1" id="Ebene_1" xmlns="http://www.w3.org/2000/svg" xmlns:xlink="http://www.w3.org/1999/xlink" x="0px" y="0px"
	 width="255px" height="130px" viewBox="0 0 255 130" enable-background="new 0 0 255 130" xml:space="preserve">
<path fill="#999999" d="M115.779,75.047c0,2.232-0.559,5.581-1.675,5.581h29.582c2.791,0,3.35-2.791,3.35-5.581V49.372h-31.256
	V75.047z M151.5,75.047c0,4.881-3.35,10.047-7.256,10.047h-35.162c-2.929,0-5.582-4.607-5.582-9.488v-24h7.814v-6.698H151.5V75.047z
	 M107.965,56.07v20.093c0,2.928,0.698,4.743,1.674,4.743s1.674-1.815,1.674-4.743V56.07H107.965z M131.407,59.418h13.396v15.628
	h-13.396V59.418z M118.012,52.721h26.791v3.349h-26.791V52.721z M118.012,59.418h11.163v2.233h-11.163V59.418z M118.012,63.884
	h11.163v2.231h-11.163V63.884z M118.012,68.35h11.163v2.231h-11.163V68.35z M118.012,72.813h11.163v2.233h-11.163V72.813z"/>
</svg>
