<?xml version="1.0" encoding="iso-8859-1"?>
<!-- Generator: Adobe Illustrator 16.0.3, SVG Export Plug-In . SVG Version: 6.00 Build 0)  -->
<!DOCTYPE svg PUBLIC "-//W3C//DTD SVG 1.1//EN" "http://www.w3.org/Graphics/SVG/1.1/DTD/svg11.dtd">
<svg version="1.1" xmlns="http://www.w3.org/2000/svg" xmlns:xlink="http://www.w3.org/1999/xlink" x="0px" y="0px" width="32px"
	 height="32px" viewBox="0 0 32 32" style="enable-background:new 0 0 32 32;" xml:space="preserve">
<g id="institution_x5F_blue">
	<path style="fill:#58748F;" d="M16,8.665l-8,6.001v8.668h2.256h1.23h3.74v-3.402h1.548v3.402h3.739h1.23H24v-8.668L16,8.665z
		 M10.367,21.789H8.818v-1.857h1.549V21.789z M10.367,19.451H8.818v-1.858h1.549V19.451z M10.367,17.183H8.818v-1.857h1.549V17.183z
		 M12.502,21.789h-1.548v-1.857h1.548V21.789z M12.502,19.451h-1.548v-1.858h1.548V19.451z M12.502,17.183h-1.548v-1.857h1.548
		V17.183z M14.639,21.789H13.09v-1.857h1.549V21.789z M14.639,19.451H13.09v-1.858h1.549V19.451z M14.639,17.183H13.09v-1.857h1.549
		V17.183z M16.774,19.451h-1.548v-1.858h1.548V19.451z M16.774,17.183h-1.548v-1.857h1.548V17.183z M18.91,21.789h-1.548v-1.857
		h1.548V21.789z M18.91,19.451h-1.548v-1.858h1.548V19.451z M18.91,17.183h-1.548v-1.857h1.548V17.183z M21.046,21.789h-1.548
		v-1.857h1.548V21.789z M21.046,19.451h-1.548v-1.858h1.548V19.451z M21.046,17.183h-1.548v-1.857h1.548V17.183z M23.182,21.789
		h-1.548v-1.857h1.548V21.789z M23.182,19.451h-1.548v-1.858h1.548V19.451z M23.182,17.183h-1.548v-1.857h1.548V17.183z"/>
</g>
<g id="Ebene_1">
</g>
</svg>
