<?xml version="1.0" encoding="utf-8"?>
<!-- Generator: Adobe Illustrator 16.0.0, SVG Export Plug-In . SVG Version: 6.00 Build 0)  -->
<!DOCTYPE svg PUBLIC "-//W3C//DTD SVG 1.1//EN" "http://www.w3.org/Graphics/SVG/1.1/DTD/svg11.dtd">
<svg version="1.1" id="Ebene_1" xmlns="http://www.w3.org/2000/svg" xmlns:xlink="http://www.w3.org/1999/xlink" x="0px" y="0px"
	 width="32px" height="32px" viewBox="22 22 32 32" enable-background="new 22 22 32 32" xml:space="preserve">
<path fill="#FFFFFF" d="M30,30c8.836,0,16,7.164,16,16h-3.331c0-6.995-5.523-12.667-12.335-12.667L30,33.337V30z M30,35.333
	c5.891,0,10.667,4.776,10.667,10.667h-3.334c0-4.051-3.284-7.333-7.333-7.333V35.333z M32.333,41.333
	c1.289,0,2.334,1.047,2.334,2.334c0,1.29-1.045,2.333-2.334,2.333S30,44.957,30,43.667C30,42.38,31.045,41.333,32.333,41.333z"/>
</svg>
