<?xml version="1.0" encoding="iso-8859-1"?>
<!-- Generator: Adobe Illustrator 16.0.3, SVG Export Plug-In . SVG Version: 6.00 Build 0)  -->
<!DOCTYPE svg PUBLIC "-//W3C//DTD SVG 1.1//EN" "http://www.w3.org/Graphics/SVG/1.1/DTD/svg11.dtd">
<svg version="1.1" xmlns="http://www.w3.org/2000/svg" xmlns:xlink="http://www.w3.org/1999/xlink" x="0px" y="0px" width="32px"
	 height="32px" viewBox="0 0 32 32" style="enable-background:new 0 0 32 32;" xml:space="preserve">
<g id="tools_x5F_blue">
	<path style="fill:#58748F;" d="M11.087,17.857c0.461,0,0.896,0.102,1.288,0.283l2.44-2.44l-0.916-0.917l-0.869,0.869l-0.868-0.869
		l0.36-0.361c-0.733-0.287-1.283-0.87-2.156-1.742c-1.799-1.799-2.827-3.687-2.107-4.406c0.719-0.719,2.301,0.002,4.099,1.801
		c0.872,0.872,1.763,1.729,2.05,2.463l0.36-0.361l0.868,0.869l-0.868,0.868l0.917,0.917l2.438-2.44
		c-0.18-0.392-0.281-0.828-0.281-1.287c0-1.696,1.375-3.071,3.07-3.071c0.396,0,0.775,0.075,1.121,0.211l-2.35,2.35l1.736,1.737
		l2.352-2.35c0.137,0.347,0.211,0.726,0.211,1.122c0,1.695-1.375,3.07-3.07,3.07c-0.33,0-0.65-0.053-0.947-0.149l-2.545,2.543
		l3.574,3.574l0.217-0.217l2.113,2.111l-1.303,1.303l-2.113-2.111l0.217-0.217l-3.574-3.574l-2.542,2.543
		c0.097,0.299,0.148,0.617,0.148,0.947c0,1.697-1.374,3.072-3.07,3.072c-0.396,0-0.773-0.076-1.121-0.213l2.35-2.35l-1.736-1.736
		l-2.351,2.35c-0.136-0.348-0.212-0.727-0.212-1.123C8.017,19.232,9.392,17.857,11.087,17.857z"/>
</g>
<g id="Ebene_1">
</g>
</svg>
