<?xml version="1.0" encoding="utf-8"?>
<!-- Generator: Adobe Illustrator 16.0.3, SVG Export Plug-In . SVG Version: 6.00 Build 0)  -->
<!DOCTYPE svg PUBLIC "-//W3C//DTD SVG 1.1//EN" "http://www.w3.org/Graphics/SVG/1.1/DTD/svg11.dtd">
<svg version="1.1" id="Ebene_1" xmlns="http://www.w3.org/2000/svg" xmlns:xlink="http://www.w3.org/1999/xlink" x="0px" y="0px"
	 width="100px" height="100px" viewBox="0 0 100 100" enable-background="new 0 0 100 100" xml:space="preserve">
<path fill="#FFFFFF" d="M2.049,85.061c0,0,49.086-70.121,91.158-70.121c3.503,3.507,3.503,7.014,0,10.517
	c-3.508,3.507-7.889-0.874-11.396,2.63c-3.506,3.507,5.412,1.905,7.891,4.385c3.507,3.504-12.271,7.89-19.284,4.38
	c0,0-1.752,0.879,5.258,7.89c-7.01,1.751-18.405,2.629-18.405,2.629s-2.629,6.138,11.396,6.138c0,3.502-14.897,10.517-32.432,7.888
	c0,0-16.65,9.64-23.666,20.158L2.049,85.061z"/>
</svg>
