<?xml version="1.0" encoding="utf-8"?>
<!-- Generator: Adobe Illustrator 16.0.3, SVG Export Plug-In . SVG Version: 6.00 Build 0)  -->
<!DOCTYPE svg PUBLIC "-//W3C//DTD SVG 1.1//EN" "http://www.w3.org/Graphics/SVG/1.1/DTD/svg11.dtd">
<svg version="1.1" xmlns="http://www.w3.org/2000/svg" xmlns:xlink="http://www.w3.org/1999/xlink" x="0px" y="0px" width="32px"
	 height="32px" viewBox="0 0 32 32" enable-background="new 0 0 32 32" xml:space="preserve">
<g id="search_x5F_white">
	<path fill="#FFFFFF" d="M8.452,21.846l4.051-3.941c-0.522-0.905-0.63-1.956-0.63-3.077c0-3.403,2.565-6.161,5.968-6.161
		c3.403,0,6.16,2.758,6.16,6.161s-2.757,5.967-6.16,5.967c-1.063,0-2.063-0.076-2.937-0.551l-4.082,3.972
		c-0.602,0.603-1.77,0.603-2.371,0C7.851,23.615,7.851,22.447,8.452,21.846z M17.841,10.978c-2.127,0-3.851,1.724-3.851,3.851
		c0,2.126,1.724,3.85,3.851,3.85s3.851-1.723,3.851-3.85C21.691,12.701,19.967,10.978,17.841,10.978z"/>
</g>
</svg>
