<?xml version="1.0" encoding="utf-8"?>
<!-- Generator: Adobe Illustrator 16.0.3, SVG Export Plug-In . SVG Version: 6.00 Build 0)  -->
<!DOCTYPE svg PUBLIC "-//W3C//DTD SVG 1.1//EN" "http://www.w3.org/Graphics/SVG/1.1/DTD/svg11.dtd">
<svg version="1.1" id="Ebene_1" xmlns="http://www.w3.org/2000/svg" xmlns:xlink="http://www.w3.org/1999/xlink" x="0px" y="0px"
	 width="32px" height="32px" viewBox="0 0 32 32" enable-background="new 0 0 32 32" xml:space="preserve">
<g>
	<g>
		<polygon fill="#FFFFFF" points="8.889,23.824 8.889,14.682 7.745,15.569 6.094,13.094 16,5.664 25.906,13.094 24.254,15.569 
			23.113,14.682 23.113,16.332 21.59,16.332 21.59,13.666 16.077,9.578 10.413,13.666 10.413,23.824 		"/>
		<path fill="#FFFFFF" stroke="#FFFFFF" stroke-width="0.25" stroke-miterlimit="10" d="M25.287,17.508v7.913h-3.484
			c-0.801,0-1.361,0.915-1.361,0.915h-1.818c0,0-0.563-0.915-1.363-0.915h-3.484v-7.913h4.697c0,0,0.43,0.217,0.9,0.714
			c0.566-0.714,1.143-0.714,1.143-0.714H25.287z M18.623,18.923c-0.195-0.242-0.445-0.501-0.607-0.501h-3.33v6.088h2.727
			c0,0,0.604-0.078,1.211,0.837V18.923z M20.441,25.347c0.605-0.915,1.209-0.837,1.209-0.837h2.727v-6.088h-3.33
			c-0.162,0-0.41,0.259-0.605,0.501V25.347z"/>
	</g>
</g>
</svg>
