<?xml version="1.0" encoding="UTF-8" standalone="no"?>
<svg
   xmlns:dc="http://purl.org/dc/elements/1.1/"
   xmlns:cc="http://creativecommons.org/ns#"
   xmlns:rdf="http://www.w3.org/1999/02/22-rdf-syntax-ns#"
   xmlns:svg="http://www.w3.org/2000/svg"
   xmlns="http://www.w3.org/2000/svg"
   xmlns:sodipodi="http://sodipodi.sourceforge.net/DTD/sodipodi-0.dtd"
   xmlns:inkscape="http://www.inkscape.org/namespaces/inkscape"
   inkscape:version="1.0 (4035a4fb49, 2020-05-01)"
   sodipodi:docname="gs_icon_help_hover.svg"
   xml:space="preserve"
   enable-background="new 34 34 32 32"
   viewBox="34 34 12.92 18.882999"
   height="18.882999"
   width="12.92"
   y="0px"
   x="0px"
   id="Ebene_1"
   version="1.1"><metadata
   id="metadata9"><rdf:RDF><cc:Work
       rdf:about=""><dc:format>image/svg+xml</dc:format><dc:type
         rdf:resource="http://purl.org/dc/dcmitype/StillImage" /><dc:title></dc:title></cc:Work></rdf:RDF></metadata><defs
   id="defs7" /><sodipodi:namedview
   inkscape:current-layer="Ebene_1"
   inkscape:window-maximized="1"
   inkscape:window-y="49"
   inkscape:window-x="54"
   inkscape:cy="9.441"
   inkscape:cx="6.46"
   inkscape:zoom="22.96875"
   fit-margin-bottom="0"
   fit-margin-right="0"
   fit-margin-left="0"
   fit-margin-top="0"
   showgrid="false"
   id="namedview5"
   inkscape:window-height="1057"
   inkscape:window-width="1858"
   inkscape:pageshadow="2"
   inkscape:pageopacity="0"
   guidetolerance="10"
   gridtolerance="10"
   objecttolerance="10"
   borderopacity="1"
   bordercolor="#666666"
   pagecolor="#ffffff" />
<path
   id="path2"
   d="M 34,37.975 44.437,34 v 1.615 l -8.697,3.354 1.615,1.118 9.565,-3.727 v 12.299 l -9.564,4.224 -3.354,-2.484 V 37.975 Z m 8.396,9.458 c -0.494,0.192 -0.893,0.748 -0.893,1.24 0,0.493 0.398,0.737 0.893,0.545 0.492,-0.192 0.893,-0.749 0.893,-1.241 -0.001,-0.493 -0.401,-0.737 -0.893,-0.544 z m 0.179,-7.211 c -1.58,0.616 -2.858,2.313 -2.858,3.792 v 0.357 l 1.786,-0.697 v -0.536 c 0,-0.592 0.48,-1.258 1.072,-1.488 0.59,-0.231 1.07,0.062 1.07,0.653 0,0.258 0,0.358 -0.715,1.35 -0.355,0.497 -1.428,1.664 -1.428,2.878 v 0.536 l 1.785,-0.697 v -0.713 c 0,-0.593 0.357,-1.211 1.07,-1.846 0.713,-0.635 1.072,-1.668 1.072,-2.204 0,-1.478 -1.28,-2 -2.854,-1.385 z"
   fill="#ff6100" />
</svg>
