<?xml version="1.0" encoding="iso-8859-1"?>
<!-- Generator: Adobe Illustrator 16.0.3, SVG Export Plug-In . SVG Version: 6.00 Build 0)  -->
<!DOCTYPE svg PUBLIC "-//W3C//DTD SVG 1.1//EN" "http://www.w3.org/Graphics/SVG/1.1/DTD/svg11.dtd">
<svg version="1.1" xmlns="http://www.w3.org/2000/svg" xmlns:xlink="http://www.w3.org/1999/xlink" x="0px" y="0px" width="32px"
	 height="32px" viewBox="0 0 32 32" style="enable-background:new 0 0 32 32;" xml:space="preserve">
<g id="link_x5F_ws">
	<path style="fill:#FFFFFF;" d="M10.039,18.697l0.652,1.131l1.783,0.478l1.695-0.979L14.735,19l1.13-0.652l0.326,0.565l-0.478,1.782
		l-2.826,1.633l-3.566-0.956l-1.305-2.261l0.956-3.566l2.826-1.631l1.783,0.478l0.326,0.565l-1.13,0.652l-0.565,0.326l-1.696,0.979
		L10.039,18.697z M16.319,11.304l2.826-1.632l3.565,0.956l1.306,2.261l-0.956,3.566l-2.826,1.632l-1.782-0.479l-0.326-0.564
		l1.13-0.653l0.565-0.327l1.696-0.979l0.477-1.783l-0.652-1.13l-1.783-0.478l-1.695,0.979l-0.564,0.326l-1.131,0.652l-0.326-0.565
		L16.319,11.304z M14.327,18.294l-0.891-0.239l-0.49-0.848l0.239-0.891l4.522-2.61l0.891,0.239l0.489,0.848l-0.239,0.892
		L14.327,18.294z"/>
</g>
<g id="Ebene_1">
</g>
</svg>
