<?xml version="1.0" encoding="utf-8"?>
<!-- Generator: Adobe Illustrator 16.0.3, SVG Export Plug-In . SVG Version: 6.00 Build 0)  -->
<!DOCTYPE svg PUBLIC "-//W3C//DTD SVG 1.1//EN" "http://www.w3.org/Graphics/SVG/1.1/DTD/svg11.dtd">
<svg version="1.1" id="Ebene_1" xmlns="http://www.w3.org/2000/svg" xmlns:xlink="http://www.w3.org/1999/xlink" x="0px" y="0px"
	 width="100px" height="100px" viewBox="0 0 100 100" enable-background="new 0 0 100 100" xml:space="preserve">
<path fill="#FF6100" d="M50,3.696c25.99,0,47.059,20.77,47.059,46.391c0,25.621-21.067,46.391-47.059,46.391
	c-25.99,0-47.059-20.771-47.059-46.391C2.941,24.466,24.01,3.696,50,3.696z M9.801,46.774h13.375
	c0.224-5.484,1.001-10.706,2.235-15.5c-3.123-1.08-6.004-2.359-8.589-3.807C12.908,33.035,10.399,39.638,9.801,46.774z
	 M33.132,13.956c-4.58,2.083-8.696,4.984-12.156,8.517c1.927,0.982,4.057,1.87,6.358,2.642
	C28.907,20.875,30.867,17.107,33.132,13.956z M46.639,46.774V35.109c-5.244-0.208-10.251-0.901-14.882-1.999
	c-1.008,4.203-1.652,8.81-1.856,13.664H46.639z M46.639,10.873c-5.338,1.766-9.964,7.666-13.003,15.971
	c4.03,0.882,8.407,1.449,13.003,1.637V10.873z M90.2,46.774c-0.597-7.137-3.108-13.737-7.021-19.307
	c-2.589,1.447-5.47,2.727-8.592,3.806c1.232,4.794,2.012,10.015,2.234,15.5L90.2,46.774L90.2,46.774z M66.867,13.956
	c2.266,3.15,4.227,6.918,5.799,11.159c2.302-0.772,4.432-1.659,6.359-2.642C75.564,18.941,71.449,16.039,66.867,13.956z
	 M53.363,46.774h16.734c-0.203-4.854-0.847-9.461-1.854-13.664c-4.631,1.098-9.639,1.791-14.883,1.999v11.665H53.363z
	 M53.363,10.873v17.608c4.595-0.188,8.974-0.754,13.002-1.637C63.327,18.538,58.7,12.639,53.363,10.873z M90.2,53.403H76.824
	c-0.225,5.482-1.002,10.705-2.235,15.496c3.122,1.082,6.004,2.361,8.591,3.809C87.092,67.142,89.604,60.538,90.2,53.403z
	 M66.867,86.218c4.582-2.08,8.697-4.981,12.158-8.516c-1.93-0.984-4.06-1.871-6.359-2.645C71.094,79.3,69.133,83.071,66.867,86.218z
	 M53.363,53.403v11.66c5.242,0.209,10.25,0.904,14.882,2c1.007-4.203,1.649-8.809,1.853-13.66H53.363z M53.363,89.302
	c5.337-1.766,9.964-7.664,13.002-15.973c-4.029-0.881-8.409-1.445-13.002-1.633V89.302z M9.801,53.403
	c0.597,7.135,3.106,13.738,7.021,19.305c2.585-1.447,5.467-2.727,8.589-3.809c-1.234-4.791-2.011-10.014-2.234-15.496H9.801z
	 M33.132,86.218c-2.264-3.146-4.226-6.918-5.798-11.16c-2.302,0.773-4.432,1.66-6.358,2.646
	C24.436,81.235,28.553,84.138,33.132,86.218z M46.639,53.403H29.901c0.204,4.852,0.848,9.457,1.856,13.66
	c4.63-1.096,9.638-1.791,14.882-2V53.403z M46.639,89.302V71.694c-4.597,0.189-8.974,0.754-13.003,1.635
	C36.675,81.638,41.301,87.536,46.639,89.302z"/>
</svg>
