<?xml version="1.0" encoding="iso-8859-1"?>
<!-- Generator: Adobe Illustrator 16.0.3, SVG Export Plug-In . SVG Version: 6.00 Build 0)  -->
<!DOCTYPE svg PUBLIC "-//W3C//DTD SVG 1.1//EN" "http://www.w3.org/Graphics/SVG/1.1/DTD/svg11.dtd">
<svg version="1.1" xmlns="http://www.w3.org/2000/svg" xmlns:xlink="http://www.w3.org/1999/xlink" x="0px" y="0px" width="32px"
	 height="32px" viewBox="0 0 32 32" style="enable-background:new 0 0 32 32;" xml:space="preserve">
<g id="cite_x5F_orange">
	<path style="fill:#FF8000;" d="M8,21.982c0,0,8.375-11.964,15.553-11.964c0.598,0.598,0.598,1.196,0,1.794
		c-0.6,0.598-1.346-0.149-1.945,0.449c-0.598,0.598,0.924,0.325,1.346,0.748c0.6,0.598-2.092,1.346-3.289,0.748
		c0,0-0.299,0.149,0.896,1.346c-1.195,0.299-3.141,0.448-3.141,0.448s-0.447,1.047,1.945,1.047c0,0.597-2.543,1.796-5.533,1.347
		c0,0-2.842,1.645-4.037,3.439L8,21.982z"/>
</g>
<g id="Ebene_1">
</g>
</svg>
