<?xml version="1.0" encoding="utf-8"?>
<!-- Generator: Adobe Illustrator 16.0.3, SVG Export Plug-In . SVG Version: 6.00 Build 0)  -->
<!DOCTYPE svg PUBLIC "-//W3C//DTD SVG 1.1//EN" "http://www.w3.org/Graphics/SVG/1.1/DTD/svg11.dtd">
<svg version="1.1" id="Ebene_1" xmlns="http://www.w3.org/2000/svg" xmlns:xlink="http://www.w3.org/1999/xlink" x="0px" y="0px"
	 width="100px" height="100px" viewBox="0 0 100 100" enable-background="new 0 0 100 100" xml:space="preserve">
<path d="M42.494,91.167c0.686,1.751,1.495,3.442,2.415,5.062c1.642,0.17,3.308,0.258,4.994,0.258c3.643,0,7.193-0.404,10.602-1.176
	c-4.705-4.732-7.614-11.256-7.614-18.455c0-14.457,11.719-26.176,26.176-26.176c6.938,0,13.242,2.697,17.926,7.103
	c0.591-3.005,0.898-6.107,0.898-9.283c0-2.146-0.145-4.26-0.414-6.332c-2.834-1.507-5.871-2.676-9.063-3.455l-0.46-11.241
	c-2.832-0.506-5.744-0.776-8.724-0.785l-2.479,10.973c-4.417,0.257-8.641,1.244-12.547,2.842l-6.979-8.826
	c-2.645,1.281-5.158,2.785-7.518,4.49l4.441,10.34c-3.322,2.732-6.19,6.001-8.47,9.673l-10.836-3.035
	c-1.374,2.558-2.532,5.246-3.452,8.045l9.675,5.752c-0.825,3.168-1.264,6.492-1.264,9.918l0.105,2.894l-10.553,3.913
	c0.397,2.936,1.049,5.787,1.932,8.537L42.494,91.167z M34.84,47.361L45.678,50.4c1.374-2.557,2.533-5.247,3.451-8.045l-9.673-5.752
	c0.825-3.167,1.264-6.491,1.264-9.917l-0.104-2.894l10.553-3.912c-0.397-2.934-1.051-5.789-1.933-8.538l-11.207,1.032
	c-1.245-3.175-2.89-6.149-4.874-8.86c-4.201,1.564-8.124,3.701-11.674,6.315c3.838,4.554,6.151,10.436,6.151,16.857
	c0,14.238-11.369,25.822-25.522,26.167c0.406,4.519,1.439,8.854,3.011,12.926c3.928-0.363,7.688-1.305,11.195-2.74l6.979,8.826
	c2.643-1.279,5.157-2.785,7.517-4.489l-4.444-10.341C29.691,54.305,32.561,51.035,34.84,47.361z"/>
</svg>
