<?xml version="1.0" encoding="UTF-8" standalone="no"?>
<svg
   xmlns:dc="http://purl.org/dc/elements/1.1/"
   xmlns:cc="http://creativecommons.org/ns#"
   xmlns:rdf="http://www.w3.org/1999/02/22-rdf-syntax-ns#"
   xmlns:svg="http://www.w3.org/2000/svg"
   xmlns="http://www.w3.org/2000/svg"
   xmlns:sodipodi="http://sodipodi.sourceforge.net/DTD/sodipodi-0.dtd"
   xmlns:inkscape="http://www.inkscape.org/namespaces/inkscape"
   inkscape:version="1.0 (4035a4fb49, 2020-05-01)"
   sodipodi:docname="gs_icon_lang.svg"
   xml:space="preserve"
   enable-background="new 0 0 32 32"
   viewBox="0 0 17.332001 17.332001"
   height="17.332001"
   width="17.332001"
   y="0px"
   x="0px"
   id="Ebene_1"
   version="1.1"><metadata
   id="metadata9"><rdf:RDF><cc:Work
       rdf:about=""><dc:format>image/svg+xml</dc:format><dc:type
         rdf:resource="http://purl.org/dc/dcmitype/StillImage" /><dc:title></dc:title></cc:Work></rdf:RDF></metadata><defs
   id="defs7" /><sodipodi:namedview
   inkscape:current-layer="Ebene_1"
   inkscape:window-maximized="1"
   inkscape:window-y="-8"
   inkscape:window-x="1912"
   inkscape:cy="8.666"
   inkscape:cx="8.666"
   inkscape:zoom="22.96875"
   fit-margin-bottom="0"
   fit-margin-right="0"
   fit-margin-left="0"
   fit-margin-top="0"
   showgrid="false"
   id="namedview5"
   inkscape:window-height="1177"
   inkscape:window-width="1858"
   inkscape:pageshadow="2"
   inkscape:pageopacity="0"
   guidetolerance="10"
   gridtolerance="10"
   objecttolerance="10"
   borderopacity="1"
   bordercolor="#666666"
   pagecolor="#ffffff" />
<path
   id="path2"
   d="m 8.666,0 c 4.787,0 8.666,3.88 8.666,8.666 0,4.787 -3.879,8.666 -8.666,8.666 C 3.88,17.332 0,13.453 0,8.666 0,3.88 3.88,0 8.666,0 Z m 0,1.238 C 8.29,1.238 7.92,1.266 7.561,1.32 7.484,1.488 7.429,1.673 7.429,1.858 c 0,0.619 -0.62,-0.619 -1.238,0.619 -0.619,1.238 0,0 0,1.238 0,0.62 -0.896,0.172 -0.619,0.31 0.619,0.31 0.619,0.31 0,0.928 0,0 -1.238,-0.619 -1.238,0 0,0.62 -0.62,0.62 -1.238,0.62 -0.619,0 0,1.238 -0.619,1.238 -0.476,0 -0.22,-0.732 -0.639,-1.07 -0.159,0.371 -0.289,0.757 -0.387,1.157 0.417,0.374 0.487,1.851 1.026,2.39 0.619,-0.62 0.619,0 1.238,0 0.619,0 0.619,0 0.929,0.618 0.618,0 0.928,0.619 1.547,1.239 0.619,0.619 1.857,0.619 1.857,1.238 0,0.618 -0.619,0 -0.619,1.236 0,0.619 0,0.619 -0.62,0.619 -0.39,0 -0.779,0.737 -1.015,1.282 0.884,0.371 1.854,0.576 2.873,0.576 2.079,0 3.958,-0.855 5.307,-2.231 l -0.355,-0.71 c 0,0 0.775,-1.237 0.154,-1.856 -0.619,-0.619 -0.619,-1.238 -0.619,-1.238 0,0 -1.236,1.238 -1.855,0.619 -0.619,-0.619 -0.619,0 -1.24,-1.238 C 9.44,8.204 10.68,7.585 10.68,7.585 c 0,0 0,-1.238 0.619,-1.238 0.619,0 1.238,-1.238 2.475,0 0,0 0.717,-0.477 1.729,-0.594 -0.318,-0.743 -0.752,-1.425 -1.283,-2.02 -0.111,0.08 -0.256,0.138 -0.445,0.138 -0.619,0 0.621,1.238 0,1.238 -0.619,0 -0.619,-0.619 -1.236,-0.619 -0.619,0 -0.619,0.619 -1.238,1.239 -0.619,0.619 0,0 -0.619,-0.62 -0.621,-0.619 1.238,0 0.619,-0.619 C 10.682,3.871 11.92,3.871 11.92,3.252 11.92,2.766 12.682,2.661 13.01,2.639 12.653,2.381 12.272,2.155 11.92,2.014 12.539,2.633 11.301,3.252 10.682,3.252 10.1,3.252 10.61,2.16 10.674,1.514 10.035,1.334 9.361,1.238 8.666,1.238 Z M 1.238,8.666 c 0,2.185 0.944,4.149 2.445,5.509 L 3.096,12.998 c -0.619,0 -0.929,-1.392 -0.929,-2.012 0,-0.497 -0.199,-0.894 0.042,-1.351 C 1.335,8.76 1.857,9.235 1.857,8.666 1.857,8.372 1.576,8.077 1.282,7.849 1.253,8.118 1.238,8.39 1.238,8.666 Z"
   fill="#58748f" />
</svg>
