<?xml version="1.0" encoding="utf-8"?>
<!-- Generator: Adobe Illustrator 16.0.3, SVG Export Plug-In . SVG Version: 6.00 Build 0)  -->
<!DOCTYPE svg PUBLIC "-//W3C//DTD SVG 1.1//EN" "http://www.w3.org/Graphics/SVG/1.1/DTD/svg11.dtd">
<svg version="1.1" id="Ebene_1" xmlns="http://www.w3.org/2000/svg" xmlns:xlink="http://www.w3.org/1999/xlink" x="0px" y="0px"
	 width="100px" height="100px" viewBox="0 0 100 100" enable-background="new 0 0 100 100" xml:space="preserve">
<g>
	<polygon fill="#FFFFFF" points="15.848,92.508 15.848,48.598 10.359,52.867 2.432,40.975 50,5.297 97.568,40.975 89.643,52.867 
		84.152,48.598 84.152,92.508 76.837,92.508 76.837,42.598 23.166,42.598 23.166,92.508 	"/>
	<g>
		<rect x="27.894" y="46.575" fill="#FFFFFF" width="9.757" height="9.757"/>
		<rect x="44.97" y="46.574" fill="#FFFFFF" width="9.758" height="9.758"/>
		<rect x="62.047" y="46.575" fill="#FFFFFF" width="9.758" height="9.757"/>
	</g>
	<g>
		<rect x="27.893" y="61.12" fill="#FFFFFF" width="9.757" height="9.758"/>
		<rect x="62.047" y="61.12" fill="#FFFFFF" width="9.758" height="9.758"/>
		<rect x="44.97" y="61.12" fill="#FFFFFF" width="9.756" height="9.758"/>
	</g>
	<g>
		<rect x="44.97" y="75.667" fill="#FFFFFF" width="9.756" height="16.84"/>
		<rect x="27.894" y="75.666" fill="#FFFFFF" width="9.757" height="9.758"/>
		<rect x="62.048" y="75.666" fill="#FFFFFF" width="9.757" height="9.758"/>
	</g>
</g>
</svg>
