<?xml version="1.0" encoding="iso-8859-1"?>
<!-- Generator: Adobe Illustrator 16.0.3, SVG Export Plug-In . SVG Version: 6.00 Build 0)  -->
<!DOCTYPE svg PUBLIC "-//W3C//DTD SVG 1.1//EN" "http://www.w3.org/Graphics/SVG/1.1/DTD/svg11.dtd">
<svg version="1.1" xmlns="http://www.w3.org/2000/svg" xmlns:xlink="http://www.w3.org/1999/xlink" x="0px" y="0px" width="32px"
	 height="32px" viewBox="0 0 32 32" style="enable-background:new 0 0 32 32;" xml:space="preserve">
<g id="literature_x5F_orange">
	<path style="fill:#FF8000;" d="M9.905,18.325c1.685,0.497,4.755,0.688,5.793,1.987v-7.321c-1.038-1.299-4.108-1.49-5.793-1.987
		V18.325z M9.905,9.681V9.574c1.685,0.496,4.755,0.688,5.793,1.987L16,11.648l0.301-0.098c1.039-1.299,4.109-1.49,5.794-1.987V9.67
		c0.468,0.141,0.762,0.264,0.762,0.264v1.143L24,10.64v9.198c0,0-6.794,0.477-8,2.588v0.01c-1.206-2.11-8-2.586-8-2.586v-9.199
		l1.143,0.436V9.944C9.143,9.944,9.437,9.822,9.905,9.681z M10.476,17.375v-1.189c1.436,0.327,3.414,0.546,4.572,1.283v1.188
		C13.89,17.922,11.912,17.703,10.476,17.375z M10.476,15.324v-1.189c1.436,0.327,3.414,0.546,4.572,1.282v1.189
		C13.89,15.87,11.912,15.651,10.476,15.324z M10.476,13.234v-1.189c1.436,0.327,3.414,0.546,4.572,1.282v1.189
		C13.89,13.78,11.912,13.561,10.476,13.234z M22.096,18.314v-7.32c-1.686,0.497-4.756,0.688-5.794,1.987v7.32
		C17.34,19.002,20.41,18.811,22.096,18.314z M21.523,17.365c-1.436,0.326-3.413,0.546-4.571,1.281v-1.189
		c1.158-0.735,3.136-0.955,4.571-1.282V17.365z M21.523,15.313c-1.436,0.327-3.413,0.546-4.571,1.282v-1.189
		c1.158-0.736,3.136-0.955,4.571-1.282V15.313z M21.523,13.223c-1.436,0.327-3.413,0.546-4.571,1.282v-1.189
		c1.158-0.736,3.136-0.955,4.571-1.282V13.223z"/>
</g>
<g id="Ebene_1">
</g>
</svg>
