<?xml version="1.0" encoding="utf-8"?>
<!-- Generator: Adobe Illustrator 16.0.3, SVG Export Plug-In . SVG Version: 6.00 Build 0)  -->
<!DOCTYPE svg PUBLIC "-//W3C//DTD SVG 1.1//EN" "http://www.w3.org/Graphics/SVG/1.1/DTD/svg11.dtd">
<svg version="1.1" id="Ebene_1" xmlns="http://www.w3.org/2000/svg" xmlns:xlink="http://www.w3.org/1999/xlink" x="0px" y="0px"
	 width="16px" height="24px" viewBox="8 4 16 24" enable-background="new 8 4 16 24" xml:space="preserve">
<g id="Ebene_1_1_">
</g>
<path fill="#58748F" d="M22.121,23.689c0.055,0.127,0.082,0.258,0.082,0.389c0,0.184-0.049,0.354-0.146,0.512
	c-0.096,0.156-0.229,0.277-0.406,0.361l-0.819,0.383c-0.317,0.146-0.64,0.252-0.961,0.318c-0.32,0.063-0.646,0.098-0.972,0.098
	c-0.526,0-1.049-0.088-1.563-0.264c-0.514-0.174-1.008-0.426-1.478-0.752c-0.469-0.326-0.91-0.721-1.322-1.187
	c-0.412-0.463-0.78-0.979-1.106-1.549c-0.207-0.315-0.425-0.677-0.654-1.08c-0.194-0.347-0.415-0.76-0.664-1.239
	c-0.25-0.482-0.5-1.017-0.755-1.604c-0.259-0.589-0.465-1.101-0.618-1.539c-0.152-0.438-0.271-0.803-0.354-1.094
	c-0.097-0.339-0.164-0.63-0.201-0.872c-0.134-0.45-0.232-0.896-0.295-1.341c-0.063-0.444-0.094-0.885-0.094-1.321
	c0-0.57,0.058-1.118,0.172-1.645c0.114-0.527,0.29-1.018,0.526-1.471c0.236-0.453,0.536-0.858,0.899-1.216
	c0.363-0.357,0.793-0.648,1.29-0.874l0.808-0.372c0.128-0.054,0.256-0.082,0.384-0.082c0.18,0,0.348,0.05,0.503,0.15
	c0.155,0.1,0.271,0.238,0.349,0.414l1.556,3.532c0.053,0.127,0.08,0.255,0.08,0.383c0,0.188-0.049,0.361-0.146,0.521
	c-0.096,0.16-0.232,0.28-0.409,0.359l-1.599,0.735c-0.211,0.097-0.374,0.24-0.486,0.428c-0.112,0.188-0.168,0.39-0.168,0.607
	c0,0.165,0.031,0.32,0.093,0.465l2.625,5.993c0.102,0.229,0.245,0.399,0.426,0.508c0.182,0.109,0.379,0.164,0.592,0.164
	c0.145,0,0.293-0.032,0.445-0.098l1.598-0.736c0.125-0.055,0.252-0.082,0.381-0.082c0.176,0,0.342,0.052,0.5,0.15
	c0.156,0.098,0.275,0.235,0.355,0.409L22.121,23.689z"/>
</svg>
