<?xml version="1.0" encoding="UTF-8" standalone="no"?>
<!-- Generator: Adobe Illustrator 24.1.1, SVG Export Plug-In . SVG Version: 6.00 Build 0)  -->

<svg
   xmlns:dc="http://purl.org/dc/elements/1.1/"
   xmlns:cc="http://creativecommons.org/ns#"
   xmlns:rdf="http://www.w3.org/1999/02/22-rdf-syntax-ns#"
   xmlns:svg="http://www.w3.org/2000/svg"
   xmlns="http://www.w3.org/2000/svg"
   xmlns:sodipodi="http://sodipodi.sourceforge.net/DTD/sodipodi-0.dtd"
   xmlns:inkscape="http://www.inkscape.org/namespaces/inkscape"
   version="1.1"
   id="Ebene_1"
   x="0px"
   y="0px"
   width="34"
   height="34"
   viewBox="0 0 33.999999 34.000001"
   xml:space="preserve"
   sodipodi:docname="gs_icon_tools_ws.svg"
   inkscape:version="0.92.4 (5da689c313, 2019-01-14)"><metadata
   id="metadata33"><rdf:RDF><cc:Work
       rdf:about=""><dc:format>image/svg+xml</dc:format><dc:type
         rdf:resource="http://purl.org/dc/dcmitype/StillImage" /><dc:title></dc:title></cc:Work></rdf:RDF></metadata><defs
   id="defs31" /><sodipodi:namedview
   pagecolor="#ffffff"
   bordercolor="#666666"
   borderopacity="1"
   objecttolerance="10"
   gridtolerance="10"
   guidetolerance="10"
   inkscape:pageopacity="0"
   inkscape:pageshadow="2"
   inkscape:window-width="1920"
   inkscape:window-height="1057"
   id="namedview29"
   showgrid="false"
   fit-margin-top="0"
   fit-margin-left="0"
   fit-margin-right="0"
   fit-margin-bottom="0"
   inkscape:zoom="6.2105263"
   inkscape:cx="-42.477799"
   inkscape:cy="9.1583517"
   inkscape:window-x="-8"
   inkscape:window-y="-8"
   inkscape:window-maximized="1"
   inkscape:current-layer="Ebene_1" />
<style
   type="text/css"
   id="style2">
	.st0{fill:#FFFFFF;}
	.st1{fill:#FFFFFF;stroke:#FFFFFF;stroke-miterlimit:10;}
</style>
<g
   id="g26"
   transform="matrix(0.43077091,0,0,0.45811549,0.572417,-0.04189623)">
	<path
   class="st0"
   d="m 33.3,31.8 3.1,2.9 5.4,-6.2 1.5,1.3 -6.7,8.2 -4.7,-4.7 z m -3.6,-2.9 h 10.9 l -1.3,1.3 H 31 v 8.4 h 8.4 V 35.7 L 40.7,34 v 6 h -11 z"
   id="path4"
   inkscape:connector-curvature="0"
   style="fill:#ffffff" />
	<g
   id="g12">
		<path
   class="st1"
   d="M 13.1,53.8 V 52 l 6.3,-4 v 2.5 l -4,2.4 V 53 l 4,2.4 v 2.5 z"
   id="path6"
   inkscape:connector-curvature="0"
   style="fill:#ffffff;stroke:#ffffff;stroke-miterlimit:10" />
		<path
   class="st1"
   d="m 27.1,46.8 h 2.3 l -5.3,13.9 h -2.3 z"
   id="path8"
   inkscape:connector-curvature="0"
   style="fill:#ffffff;stroke:#ffffff;stroke-miterlimit:10" />
		<path
   class="st1"
   d="m 31.9,55.3 4,-2.4 v -0.1 l -4,-2.4 V 48 l 6.3,4 v 1.9 l -6.3,4 c 0,0 0,-2.6 0,-2.6 z"
   id="path10"
   inkscape:connector-curvature="0"
   style="fill:#ffffff;stroke:#ffffff;stroke-miterlimit:10" />
	</g>
	<g
   id="g24">
		<path
   class="st0"
   d="m 50.9,32.9 3,-3.5 v -11 h -12 l 0.3,-1 c 0,-2.2 -2,-4.2 -4.2,-4.2 -2.2,0 -4.3,2 -4.3,4.2 l 0.3,1 H 22 v 25.5 h 3 V 21.4 h 5.5 l -2,4 h 19 l -2,-4 H 51 Z m -11,-15.8 c 0,0.3 -0.4,1 -0.5,1.3 h -3 c -0.1,-0.2 -0.5,-1 -0.5,-1.3 0,-0.9 1.2,-1.5 2.1,-1.5 0.9,0 1.9,0.7 1.9,1.5 z"
   id="path14"
   inkscape:connector-curvature="0"
   style="fill:#ffffff" />
		<polygon
   class="st0"
   points="41.4,49.3 42.9,43.9 47.2,48.2 41.9,49.8 "
   id="polygon16"
   style="fill:#ffffff" />
		<polygon
   class="st0"
   points="50.9,51.4 50.9,48.1 53.9,45.1 53.9,54.4 41.4,54.4 41.4,51.4 "
   id="polygon18"
   style="fill:#ffffff" />
		<path
   class="st0"
   d="m 58.6,27.9 c 0.8,-0.8 2.3,-0.5 3.1,0.3 l 1.2,1.2 c 0.8,0.8 1.1,2.5 0.3,3.3 l -2.5,2 -4.3,-4.3 z"
   id="path20"
   inkscape:connector-curvature="0"
   style="fill:#ffffff" />
		
			<rect
   x="43.5"
   y="36.299999"
   transform="matrix(0.7071,-0.7071,0.7071,0.7071,-12.6759,48.1529)"
   class="st0"
   width="16.5"
   height="6.0999999"
   id="rect22"
   style="fill:#ffffff" />
	</g>
</g>
</svg>