<?xml version="1.0" encoding="iso-8859-1"?>
<!-- Generator: Adobe Illustrator 16.0.3, SVG Export Plug-In . SVG Version: 6.00 Build 0)  -->
<!DOCTYPE svg PUBLIC "-//W3C//DTD SVG 1.1//EN" "http://www.w3.org/Graphics/SVG/1.1/DTD/svg11.dtd">
<svg version="1.1" xmlns="http://www.w3.org/2000/svg" xmlns:xlink="http://www.w3.org/1999/xlink" x="0px" y="0px" width="32px"
	 height="32px" viewBox="0 0 32 32" style="enable-background:new 0 0 32 32;" xml:space="preserve">
<g id="website_x5F_ws">
	<path style="fill:#000000;" d="M16,8c4.418,0,8,3.582,8,8s-3.582,8-8,8c-4.419,0-8-3.582-8-8S11.581,8,16,8z M9.166,15.428h2.273
		c0.038-0.946,0.17-1.846,0.38-2.673c-0.53-0.187-1.021-0.407-1.46-0.657C9.693,13.059,9.268,14.198,9.166,15.428z M13.132,9.769
		c-0.778,0.359-1.479,0.859-2.066,1.469c0.327,0.169,0.689,0.322,1.081,0.456C12.414,10.962,12.747,10.312,13.132,9.769z
		 M15.428,15.428v-2.012c-0.891-0.036-1.742-0.155-2.529-0.345c-0.172,0.725-0.281,1.519-0.315,2.356H15.428z M15.428,9.237
		c-0.907,0.304-1.693,1.322-2.211,2.754c0.686,0.152,1.43,0.25,2.211,0.282V9.237z M22.834,15.428
		c-0.102-1.23-0.529-2.369-1.194-3.33c-0.439,0.25-0.929,0.47-1.46,0.657c0.209,0.827,0.342,1.727,0.38,2.673H22.834z M18.867,9.769
		c0.385,0.543,0.719,1.193,0.986,1.924c0.391-0.133,0.752-0.286,1.08-0.456C20.346,10.628,19.646,10.128,18.867,9.769z
		 M16.571,15.428h2.845c-0.034-0.837-0.144-1.632-0.314-2.356c-0.787,0.189-1.639,0.309-2.53,0.345V15.428z M16.571,9.237v3.036
		c0.781-0.032,1.525-0.13,2.21-0.282C18.266,10.559,17.479,9.542,16.571,9.237z M22.834,16.571H20.56
		c-0.038,0.946-0.171,1.847-0.38,2.673c0.531,0.186,1.021,0.406,1.46,0.656C22.305,18.94,22.732,17.802,22.834,16.571z
		 M18.867,22.23c0.779-0.359,1.479-0.859,2.066-1.469c-0.328-0.17-0.689-0.322-1.08-0.456C19.586,21.037,19.252,21.688,18.867,22.23
		z M16.571,16.571v2.011c0.892,0.036,1.743,0.156,2.53,0.346c0.171-0.725,0.28-1.52,0.314-2.356H16.571z M16.571,22.762
		c0.907-0.305,1.694-1.321,2.21-2.754c-0.685-0.152-1.429-0.25-2.21-0.282V22.762z M9.166,16.571
		c0.102,1.23,0.527,2.369,1.193,3.329c0.439-0.25,0.93-0.471,1.46-0.656c-0.21-0.826-0.342-1.727-0.38-2.673H9.166z M13.132,22.23
		c-0.385-0.543-0.718-1.193-0.985-1.925c-0.392,0.134-0.754,0.286-1.081,0.456C11.653,21.371,12.354,21.871,13.132,22.23z
		 M15.428,16.571h-2.845c0.034,0.837,0.144,1.632,0.315,2.356c0.787-0.189,1.639-0.31,2.529-0.346V16.571z M15.428,22.762v-3.036
		c-0.781,0.032-1.525,0.13-2.211,0.282C13.734,21.44,14.521,22.457,15.428,22.762z"/>
</g>
<g id="Ebene_1">
</g>
</svg>
