<?xml version="1.0" encoding="iso-8859-1"?>
<!-- Generator: Adobe Illustrator 16.0.3, SVG Export Plug-In . SVG Version: 6.00 Build 0)  -->
<!DOCTYPE svg PUBLIC "-//W3C//DTD SVG 1.1//EN" "http://www.w3.org/Graphics/SVG/1.1/DTD/svg11.dtd">
<svg version="1.1" xmlns="http://www.w3.org/2000/svg" xmlns:xlink="http://www.w3.org/1999/xlink" x="0px" y="0px" width="32px"
	 height="32px" viewBox="0 0 32 32" style="enable-background:new 0 0 32 32;" xml:space="preserve">
<g id="event_x5F_ws">
	<path style="fill:#FFFFFF;" d="M8,23.801V10.2h2V9.001C10,8.559,10.359,8.2,10.801,8.2h1.6c0.441,0,0.801,0.358,0.801,0.801V10.2
		h5.6V9.001c0-0.442,0.357-0.801,0.799-0.801h1.6C21.643,8.2,22,8.559,22,9.001V10.2h2v13.601H8z M9.201,22.602h13.6V13.4h-13.6
		V22.602z M10,19.801h2.4v2H10V19.801z M13.201,19.801H15.6v2h-2.398V19.801z M16.4,19.801h2.4v2h-2.4V19.801z M19.6,19.801H22v2
		h-2.4V19.801z M10,17h2.4v2.001H10V17z M13.201,17H15.6v2.001h-2.398V17z M16.4,17h2.4v2.001h-2.4V17z M19.6,17H22v2.001h-2.4V17z
		 M13.201,14.2H15.6v2h-2.398V14.2z M16.4,14.2h2.4v2h-2.4V14.2z M19.6,14.2H22v2h-2.4V14.2z M20.201,9.001
		c-0.332,0-0.602,0.269-0.602,0.6v1.2c0,0.331,0.27,0.6,0.602,0.6H20.6c0.332,0,0.6-0.269,0.6-0.6v-1.2c0-0.331-0.268-0.6-0.6-0.6
		H20.201z M11.4,9.001c-0.332,0-0.6,0.269-0.6,0.6v1.2c0,0.331,0.268,0.6,0.6,0.6h0.4c0.332,0,0.6-0.269,0.6-0.6v-1.2
		c0-0.331-0.268-0.6-0.6-0.6H11.4z"/>
</g>
<g id="Ebene_1">
</g>
</svg>
