<?xml version="1.0" encoding="UTF-8" standalone="no"?>
<svg
   xmlns:dc="http://purl.org/dc/elements/1.1/"
   xmlns:cc="http://creativecommons.org/ns#"
   xmlns:rdf="http://www.w3.org/1999/02/22-rdf-syntax-ns#"
   xmlns:svg="http://www.w3.org/2000/svg"
   xmlns="http://www.w3.org/2000/svg"
   xmlns:sodipodi="http://sodipodi.sourceforge.net/DTD/sodipodi-0.dtd"
   xmlns:inkscape="http://www.inkscape.org/namespaces/inkscape"
   inkscape:version="1.0 (4035a4fb49, 2020-05-01)"
   sodipodi:docname="gs_icon_ssoar_login_blue.svg"
   id="svg3711"
   version="1.1"
   viewBox="0 0 19 19"
   height="19"
   width="19">
  <metadata
     id="metadata3717">
    <rdf:RDF>
      <cc:Work
         rdf:about="">
        <dc:format>image/svg+xml</dc:format>
        <dc:type
           rdf:resource="http://purl.org/dc/dcmitype/StillImage" />
        <dc:title></dc:title>
      </cc:Work>
    </rdf:RDF>
  </metadata>
  <defs
     id="defs3715" />
  <sodipodi:namedview
     fit-margin-bottom="0"
     fit-margin-right="0"
     fit-margin-left="0"
     fit-margin-top="0"
     inkscape:document-rotation="0"
     inkscape:guide-bbox="true"
     showguides="true"
     inkscape:current-layer="svg3711"
     inkscape:window-maximized="1"
     inkscape:window-y="49"
     inkscape:window-x="54"
     inkscape:cy="7.893567"
     inkscape:cx="23.607621"
     inkscape:zoom="16"
     showgrid="false"
     id="namedview3713"
     inkscape:window-height="1057"
     inkscape:window-width="1858"
     inkscape:pageshadow="2"
     inkscape:pageopacity="0"
     guidetolerance="10"
     gridtolerance="10"
     objecttolerance="10"
     borderopacity="1"
     bordercolor="#666666"
     pagecolor="#ffffff">
    <sodipodi:guide
       inkscape:color="rgb(0,0,255)"
       inkscape:label=""
       inkscape:locked="false"
       id="guide812"
       orientation="0,1"
       position="-20.9375,0" />
    <sodipodi:guide
       inkscape:color="rgb(0,0,255)"
       inkscape:label=""
       inkscape:locked="false"
       id="guide814"
       orientation="0,1"
       position="29.375,19" />
  </sodipodi:namedview>
  <path
     inkscape:connector-curvature="0"
     style="fill:#58748f;fill-opacity:1;stroke-width:1"
     id="path3709"
     d="M 12.46875,0 C 8.90625,0 5.9375,2.9687499 5.9375,6.53125 c 0,1.1875 0.35625,2.25625 0.83125,3.325 L 0,16.625 V 19 H 4.75 V 16.625 H 7.125 V 14.25 H 9.5 l 1.425,-1.425 c 0.475,0.11875 1.06875,0.237499 1.54375,0.237499 C 16.03125,13.062499 19,10.09375 19,6.53125 19,2.9687499 16.03125,0 12.46875,0 Z M 14.25,5.9375 C 13.3,5.9375 12.46875,5.10625 12.46875,4.15625 12.46875,3.2062499 13.3,2.375 14.25,2.375 c 0.95,0 1.78125,0.8312499 1.78125,1.78125 0,0.95 -0.83125,1.78125 -1.78125,1.78125 z" />
</svg>
