<?xml version="1.0" encoding="utf-8"?>
<!-- Generator: Adobe Illustrator 16.0.3, SVG Export Plug-In . SVG Version: 6.00 Build 0)  -->
<!DOCTYPE svg PUBLIC "-//W3C//DTD SVG 1.1//EN" "http://www.w3.org/Graphics/SVG/1.1/DTD/svg11.dtd">
<svg version="1.1" id="Ebene_1" xmlns="http://www.w3.org/2000/svg" xmlns:xlink="http://www.w3.org/1999/xlink" x="0px" y="0px"
	 width="64px" height="64px" viewBox="18 18 64 64" enable-background="new 18 18 64 64" xml:space="preserve">
<g>
	<path fill="#58748F" d="M74,33.5v33h-2.005c-1.826-2.428-4.73-4-7.995-4s-6.169,1.572-7.995,4h-12.01c-1.826-2.428-4.73-4-7.995-4
		s-6.169,1.572-7.995,4H26v-33H74 M80,27.5H20v45h12c0-2.209,1.791-4,4-4s4,1.791,4,4h20c0-2.209,1.791-4,4-4s4,1.791,4,4h12V27.5
		L80,27.5z"/>
</g>
<path fill="#58748F" d="M38.04,36.917c-2.28,0-4.128,1.848-4.128,4.128s1.848,4.128,4.128,4.128s4.127-1.848,4.127-4.128
	S40.32,36.917,38.04,36.917z M33.912,50.952l-0.316,7.145c1.468,0.711,3.115,1.11,4.856,1.11c1.429,0,2.794-0.268,4.049-0.757
	l-0.334-7.498c0.551,0.274,1.652,2.477,1.652,2.477s0.55,0.825,0.825,4.127l2.477-0.825l-0.825-4.128c0,0-1.652-5.779-4.954-5.779
	h-6.604c-3.303,0-4.954,5.779-4.954,5.779l-0.826,4.128l2.477,0.825c0.275-3.302,0.826-4.128,0.826-4.128
	S33.362,51.227,33.912,50.952z"/>
<rect x="50" y="37.917" fill="#58748F" width="21.125" height="6"/>
<rect x="50" y="48.917" fill="#58748F" width="21.125" height="3"/>
<rect x="50" y="54.916" fill="#58748F" width="21.125" height="3"/>
</svg>
