<?xml version="1.0" encoding="utf-8"?>
<!-- Generator: Adobe Illustrator 16.0.3, SVG Export Plug-In . SVG Version: 6.00 Build 0)  -->
<!DOCTYPE svg PUBLIC "-//W3C//DTD SVG 1.1//EN" "http://www.w3.org/Graphics/SVG/1.1/DTD/svg11.dtd">
<svg version="1.1" id="Ebene_1" xmlns="http://www.w3.org/2000/svg" xmlns:xlink="http://www.w3.org/1999/xlink" x="0px" y="0px"
	 width="32px" height="32px" viewBox="22 22 32 32" enable-background="new 22 22 32 32" xml:space="preserve">
<path fill="#FF6100" d="M26.676,45.769l6.076-5.912c-0.784-1.357-0.945-2.933-0.945-4.616c0-5.103,3.849-9.24,8.953-9.24
	C45.864,26,50,30.137,50,35.24c0,5.104-4.136,8.952-9.239,8.952c-1.596,0-3.096-0.115-4.405-0.827l-6.124,5.958
	c-0.902,0.902-2.654,0.902-3.557,0C25.775,48.421,25.775,46.67,26.676,45.769z M40.761,29.466c-3.19,0-5.776,2.585-5.776,5.776
	c0,3.189,2.586,5.774,5.776,5.774c3.189,0,5.773-2.585,5.773-5.774C46.534,32.051,43.949,29.466,40.761,29.466z"/>
</svg>
