<?xml version="1.0" encoding="iso-8859-1"?>
<!-- Generator: Adobe Illustrator 16.0.3, SVG Export Plug-In . SVG Version: 6.00 Build 0)  -->
<!DOCTYPE svg PUBLIC "-//W3C//DTD SVG 1.1//EN" "http://www.w3.org/Graphics/SVG/1.1/DTD/svg11.dtd">
<svg version="1.1" xmlns="http://www.w3.org/2000/svg" xmlns:xlink="http://www.w3.org/1999/xlink" x="0px" y="0px" width="32px"
	 height="32px" viewBox="0 0 32 32" style="enable-background:new 0 0 32 32;" xml:space="preserve">
<g id="fulltext_x5F_orange">
	<path style="fill:#FF8000;" d="M9.143,8h9.238l4.477,4.476V24H9.143V8z M10.667,9.524v12.953h10.667v-8.381h-4.572V9.524H10.667z
		 M18.286,10v2.571h2.571L18.286,10z M11.429,10.286H16v1.905h-4.571V10.286z M11.429,12.952H16v1.143h-4.571V12.952z
		 M11.429,14.857h9.144V16h-9.144V14.857z M11.429,16.762h9.144v1.143h-9.144V16.762z M11.429,18.666h9.144v1.144h-9.144V18.666z
		 M11.429,20.571h9.144v1.144h-9.144V20.571z"/>
</g>
<g id="Ebene_1">
</g>
</svg>
