<?xml version="1.0" encoding="iso-8859-1"?>
<!-- Generator: Adobe Illustrator 16.0.3, SVG Export Plug-In . SVG Version: 6.00 Build 0)  -->
<!DOCTYPE svg PUBLIC "-//W3C//DTD SVG 1.1//EN" "http://www.w3.org/Graphics/SVG/1.1/DTD/svg11.dtd">
<svg version="1.1" xmlns="http://www.w3.org/2000/svg" xmlns:xlink="http://www.w3.org/1999/xlink" x="0px" y="0px" width="32px"
	 height="32px" viewBox="0 0 32 32" style="enable-background:new 0 0 32 32;" xml:space="preserve">
<g id="project_x5F_ws">
	<path style="fill:#FFFFFF;" d="M14.746,22.877c0.115,0.291,0.25,0.574,0.404,0.844c0.273,0.029,0.552,0.043,0.834,0.043
		c0.608,0,1.201-0.066,1.771-0.195c-0.785-0.791-1.271-1.881-1.271-3.082c0-2.416,1.958-4.372,4.371-4.372
		c1.16,0,2.213,0.45,2.996,1.185c0.098-0.501,0.148-1.019,0.148-1.55c0-0.358-0.023-0.711-0.068-1.058
		c-0.473-0.251-0.98-0.446-1.514-0.577l-0.076-1.877c-0.473-0.086-0.961-0.131-1.457-0.132l-0.414,1.833
		c-0.738,0.043-1.443,0.208-2.096,0.475l-1.166-1.475c-0.441,0.215-0.861,0.466-1.256,0.75l0.742,1.728
		c-0.555,0.456-1.034,1.003-1.415,1.616l-1.811-0.508c-0.229,0.428-0.423,0.876-0.576,1.343l1.615,0.961
		c-0.138,0.529-0.211,1.084-0.211,1.658l0.018,0.482l-1.763,0.654c0.066,0.49,0.176,0.967,0.323,1.426L14.746,22.877z M13.468,15.56
		l1.811,0.508c0.229-0.428,0.423-0.877,0.577-1.344l-1.616-0.961c0.138-0.529,0.211-1.085,0.211-1.657l-0.018-0.483l1.763-0.653
		c-0.066-0.49-0.175-0.968-0.322-1.427l-1.872,0.172c-0.208-0.529-0.483-1.026-0.814-1.479c-0.702,0.261-1.357,0.617-1.95,1.055
		c0.642,0.76,1.027,1.742,1.027,2.815c0,2.378-1.898,4.313-4.263,4.371c0.067,0.754,0.24,1.479,0.502,2.158
		c0.656-0.061,1.285-0.217,1.87-0.457l1.166,1.475c0.441-0.215,0.861-0.465,1.256-0.75l-0.742-1.729
		C12.608,16.719,13.087,16.173,13.468,15.56z"/>
</g>
<g id="Ebene_1">
</g>
</svg>
